G04 EAGLE Gerber RS-274X export*
G75*
%MOMM*%
%FSLAX34Y34*%
%LPD*%
%INTop Paste*%
%IPPOS*%
%AMOC8*
5,1,8,0,0,1.08239X$1,22.5*%
G01*
%ADD10R,0.611500X2.314800*%
%ADD11R,1.500000X1.300000*%
%ADD12R,1.300000X1.500000*%


D10*
X1725246Y131349D03*
X1712546Y131349D03*
X1699846Y131349D03*
X1687146Y131349D03*
X1674446Y131349D03*
X1661746Y131349D03*
X1649046Y131349D03*
X1636346Y131349D03*
X1623646Y131349D03*
X1610946Y131349D03*
X1598246Y131349D03*
X1585546Y131349D03*
X1572846Y131349D03*
X1560146Y131349D03*
X1547446Y131349D03*
X1534746Y131349D03*
X1522046Y131349D03*
X1509346Y131349D03*
X1496646Y131349D03*
X1483946Y131349D03*
X1471246Y131349D03*
X1471246Y34259D03*
X1483946Y34259D03*
X1496646Y34259D03*
X1509346Y34259D03*
X1522046Y34259D03*
X1534746Y34259D03*
X1547446Y34259D03*
X1560146Y34259D03*
X1572846Y34259D03*
X1585546Y34259D03*
X1598246Y34259D03*
X1610946Y34259D03*
X1623646Y34259D03*
X1636346Y34259D03*
X1649046Y34259D03*
X1661746Y34259D03*
X1674446Y34259D03*
X1687146Y34259D03*
X1699846Y34259D03*
X1712546Y34259D03*
X1725246Y34259D03*
X893150Y131349D03*
X880450Y131349D03*
X867750Y131349D03*
X855050Y131349D03*
X842350Y131349D03*
X829650Y131349D03*
X816950Y131349D03*
X804250Y131349D03*
X791550Y131349D03*
X778850Y131349D03*
X766150Y131349D03*
X753450Y131349D03*
X740750Y131349D03*
X728050Y131349D03*
X715350Y131349D03*
X702650Y131349D03*
X689950Y131349D03*
X677250Y131349D03*
X664550Y131349D03*
X651850Y131349D03*
X639150Y131349D03*
X639150Y34259D03*
X651850Y34259D03*
X664550Y34259D03*
X677250Y34259D03*
X689950Y34259D03*
X702650Y34259D03*
X715350Y34259D03*
X728050Y34259D03*
X740750Y34259D03*
X753450Y34259D03*
X766150Y34259D03*
X778850Y34259D03*
X791550Y34259D03*
X804250Y34259D03*
X816950Y34259D03*
X829650Y34259D03*
X842350Y34259D03*
X855050Y34259D03*
X867750Y34259D03*
X880450Y34259D03*
X893150Y34259D03*
D11*
X893064Y179664D03*
X893064Y160664D03*
X829564Y177006D03*
X829564Y158006D03*
X638810Y176490D03*
X638810Y157490D03*
X1725422Y178444D03*
X1725422Y159444D03*
X1661922Y178630D03*
X1661922Y159630D03*
X1471168Y177004D03*
X1471168Y158004D03*
D12*
X429666Y37084D03*
X448666Y37084D03*
X485292Y37084D03*
X504292Y37084D03*
X369722Y36830D03*
X388722Y36830D03*
M02*
