G04 EAGLE Gerber RS-274X export*
G75*
%MOMM*%
%FSLAX34Y34*%
%LPD*%
%INTop Solder Mask*%
%IPPOS*%
%AMOC8*
5,1,8,0,0,1.08239X$1,22.5*%
G01*
%ADD10R,0.611500X2.314800*%
%ADD11R,1.500000X1.300000*%
%ADD12C,1.879600*%
%ADD13C,1.219200*%
%ADD14R,1.300000X1.500000*%


D10*
X1725246Y131349D03*
X1712546Y131349D03*
X1699846Y131349D03*
X1687146Y131349D03*
X1674446Y131349D03*
X1661746Y131349D03*
X1649046Y131349D03*
X1636346Y131349D03*
X1623646Y131349D03*
X1610946Y131349D03*
X1598246Y131349D03*
X1585546Y131349D03*
X1572846Y131349D03*
X1560146Y131349D03*
X1547446Y131349D03*
X1534746Y131349D03*
X1522046Y131349D03*
X1509346Y131349D03*
X1496646Y131349D03*
X1483946Y131349D03*
X1471246Y131349D03*
X1471246Y34259D03*
X1483946Y34259D03*
X1496646Y34259D03*
X1509346Y34259D03*
X1522046Y34259D03*
X1534746Y34259D03*
X1547446Y34259D03*
X1560146Y34259D03*
X1572846Y34259D03*
X1585546Y34259D03*
X1598246Y34259D03*
X1610946Y34259D03*
X1623646Y34259D03*
X1636346Y34259D03*
X1649046Y34259D03*
X1661746Y34259D03*
X1674446Y34259D03*
X1687146Y34259D03*
X1699846Y34259D03*
X1712546Y34259D03*
X1725246Y34259D03*
X893150Y131349D03*
X880450Y131349D03*
X867750Y131349D03*
X855050Y131349D03*
X842350Y131349D03*
X829650Y131349D03*
X816950Y131349D03*
X804250Y131349D03*
X791550Y131349D03*
X778850Y131349D03*
X766150Y131349D03*
X753450Y131349D03*
X740750Y131349D03*
X728050Y131349D03*
X715350Y131349D03*
X702650Y131349D03*
X689950Y131349D03*
X677250Y131349D03*
X664550Y131349D03*
X651850Y131349D03*
X639150Y131349D03*
X639150Y34259D03*
X651850Y34259D03*
X664550Y34259D03*
X677250Y34259D03*
X689950Y34259D03*
X702650Y34259D03*
X715350Y34259D03*
X728050Y34259D03*
X740750Y34259D03*
X753450Y34259D03*
X766150Y34259D03*
X778850Y34259D03*
X791550Y34259D03*
X804250Y34259D03*
X816950Y34259D03*
X829650Y34259D03*
X842350Y34259D03*
X855050Y34259D03*
X867750Y34259D03*
X880450Y34259D03*
X893150Y34259D03*
D11*
X893064Y179664D03*
X893064Y160664D03*
X829564Y177006D03*
X829564Y158006D03*
X638810Y176490D03*
X638810Y157490D03*
X1725422Y178444D03*
X1725422Y159444D03*
X1661922Y178630D03*
X1661922Y159630D03*
X1471168Y177004D03*
X1471168Y158004D03*
D12*
X197111Y38808D03*
X222511Y38808D03*
X247911Y38808D03*
X273311Y38808D03*
D13*
X38312Y217579D02*
X26120Y217579D01*
X26120Y192179D02*
X38312Y192179D01*
X38312Y65179D02*
X26120Y65179D01*
X26120Y39779D02*
X38312Y39779D01*
X38312Y166779D02*
X26120Y166779D01*
X26120Y141379D02*
X38312Y141379D01*
X38312Y90579D02*
X26120Y90579D01*
X26120Y115979D02*
X38312Y115979D01*
X102320Y39779D02*
X114512Y39779D01*
X114512Y65179D02*
X102320Y65179D01*
X102320Y90579D02*
X114512Y90579D01*
X114512Y115979D02*
X102320Y115979D01*
X102320Y141379D02*
X114512Y141379D01*
X114512Y166779D02*
X102320Y166779D01*
X102320Y192179D02*
X114512Y192179D01*
X114512Y217579D02*
X102320Y217579D01*
X170628Y192179D02*
X182820Y192179D01*
X246828Y217579D02*
X259020Y217579D01*
X182820Y217579D02*
X170628Y217579D01*
X246828Y192179D02*
X259020Y192179D01*
X305228Y192179D02*
X317420Y192179D01*
X381428Y217579D02*
X393620Y217579D01*
X317420Y217579D02*
X305228Y217579D01*
X381428Y192179D02*
X393620Y192179D01*
X444778Y192179D02*
X456970Y192179D01*
X520978Y217579D02*
X533170Y217579D01*
X456970Y217579D02*
X444778Y217579D01*
X520978Y192179D02*
X533170Y192179D01*
X584328Y192179D02*
X596520Y192179D01*
X660528Y217579D02*
X672720Y217579D01*
X596520Y217579D02*
X584328Y217579D01*
X660528Y192179D02*
X672720Y192179D01*
X723878Y192179D02*
X736070Y192179D01*
X800078Y217579D02*
X812270Y217579D01*
X736070Y217579D02*
X723878Y217579D01*
X800078Y192179D02*
X812270Y192179D01*
X1142528Y217579D02*
X1154720Y217579D01*
X1154720Y192179D02*
X1142528Y192179D01*
X1142528Y65179D02*
X1154720Y65179D01*
X1154720Y39779D02*
X1142528Y39779D01*
X1142528Y166779D02*
X1154720Y166779D01*
X1154720Y141379D02*
X1142528Y141379D01*
X1142528Y90579D02*
X1154720Y90579D01*
X1154720Y115979D02*
X1142528Y115979D01*
X1218728Y39779D02*
X1230920Y39779D01*
X1230920Y65179D02*
X1218728Y65179D01*
X1218728Y90579D02*
X1230920Y90579D01*
X1230920Y115979D02*
X1218728Y115979D01*
X1218728Y141379D02*
X1230920Y141379D01*
X1230920Y166779D02*
X1218728Y166779D01*
X1218728Y192179D02*
X1230920Y192179D01*
X1230920Y217579D02*
X1218728Y217579D01*
X1282078Y192179D02*
X1294270Y192179D01*
X1358278Y217579D02*
X1370470Y217579D01*
X1294270Y217579D02*
X1282078Y217579D01*
X1358278Y192179D02*
X1370470Y192179D01*
X1421628Y192179D02*
X1433820Y192179D01*
X1497828Y217579D02*
X1510020Y217579D01*
X1433820Y217579D02*
X1421628Y217579D01*
X1497828Y192179D02*
X1510020Y192179D01*
X1561178Y192179D02*
X1573370Y192179D01*
X1637378Y217579D02*
X1649570Y217579D01*
X1573370Y217579D02*
X1561178Y217579D01*
X1637378Y192179D02*
X1649570Y192179D01*
X1700728Y192179D02*
X1712920Y192179D01*
X1776928Y217579D02*
X1789120Y217579D01*
X1712920Y217579D02*
X1700728Y217579D01*
X1776928Y192179D02*
X1789120Y192179D01*
X1840278Y192179D02*
X1852470Y192179D01*
X1916478Y217579D02*
X1928670Y217579D01*
X1852470Y217579D02*
X1840278Y217579D01*
X1916478Y192179D02*
X1928670Y192179D01*
X875620Y192179D02*
X863428Y192179D01*
X939628Y217579D02*
X951820Y217579D01*
X875620Y217579D02*
X863428Y217579D01*
X939628Y192179D02*
X951820Y192179D01*
X1979828Y192179D02*
X1992020Y192179D01*
X2056028Y217579D02*
X2068220Y217579D01*
X1992020Y217579D02*
X1979828Y217579D01*
X2056028Y192179D02*
X2068220Y192179D01*
X1015170Y192179D02*
X1002978Y192179D01*
X1079178Y217579D02*
X1091370Y217579D01*
X1015170Y217579D02*
X1002978Y217579D01*
X1079178Y192179D02*
X1091370Y192179D01*
X2119378Y192179D02*
X2131570Y192179D01*
X2195578Y217579D02*
X2207770Y217579D01*
X2131570Y217579D02*
X2119378Y217579D01*
X2195578Y192179D02*
X2207770Y192179D01*
D14*
X429666Y37084D03*
X448666Y37084D03*
X485292Y37084D03*
X504292Y37084D03*
X369722Y36830D03*
X388722Y36830D03*
M02*
