G04 EAGLE Gerber RS-274X export*
G75*
%MOMM*%
%FSLAX34Y34*%
%LPD*%
%INBottom Copper*%
%IPPOS*%
%AMOC8*
5,1,8,0,0,1.08239X$1,22.5*%
G01*
%ADD10C,1.879600*%
%ADD11C,1.219200*%
%ADD12C,0.654800*%
%ADD13C,0.177800*%
%ADD14C,0.609600*%
%ADD15C,0.406400*%

G36*
X2214199Y5350D02*
X2214199Y5350D01*
X2214301Y5358D01*
X2214329Y5370D01*
X2214360Y5375D01*
X2214452Y5419D01*
X2214548Y5457D01*
X2214571Y5477D01*
X2214599Y5490D01*
X2214674Y5560D01*
X2214754Y5625D01*
X2214771Y5651D01*
X2214793Y5672D01*
X2214844Y5761D01*
X2214901Y5846D01*
X2214907Y5870D01*
X2214925Y5902D01*
X2214983Y6162D01*
X2214980Y6200D01*
X2214985Y6223D01*
X2214985Y186472D01*
X2214978Y186523D01*
X2214979Y186575D01*
X2214958Y186654D01*
X2214945Y186735D01*
X2214923Y186781D01*
X2214909Y186831D01*
X2214865Y186900D01*
X2214830Y186974D01*
X2214795Y187012D01*
X2214767Y187056D01*
X2214704Y187109D01*
X2214648Y187169D01*
X2214604Y187194D01*
X2214564Y187228D01*
X2214489Y187260D01*
X2214418Y187300D01*
X2214367Y187312D01*
X2214320Y187332D01*
X2214238Y187340D01*
X2214158Y187358D01*
X2214107Y187354D01*
X2214055Y187359D01*
X2213975Y187343D01*
X2213893Y187337D01*
X2213845Y187317D01*
X2213795Y187307D01*
X2213751Y187280D01*
X2213646Y187238D01*
X2213507Y187125D01*
X2213469Y187100D01*
X2212087Y185718D01*
X2209286Y184558D01*
X2194062Y184558D01*
X2191261Y185718D01*
X2189117Y187862D01*
X2187957Y190663D01*
X2187957Y193694D01*
X2189117Y196495D01*
X2191261Y198639D01*
X2194062Y199799D01*
X2209286Y199799D01*
X2212087Y198639D01*
X2213469Y197257D01*
X2213510Y197226D01*
X2213546Y197189D01*
X2213617Y197148D01*
X2213683Y197099D01*
X2213732Y197082D01*
X2213776Y197057D01*
X2213856Y197039D01*
X2213934Y197012D01*
X2213986Y197010D01*
X2214036Y196999D01*
X2214118Y197006D01*
X2214200Y197003D01*
X2214249Y197016D01*
X2214301Y197021D01*
X2214377Y197051D01*
X2214456Y197073D01*
X2214500Y197100D01*
X2214548Y197120D01*
X2214611Y197171D01*
X2214680Y197215D01*
X2214714Y197255D01*
X2214754Y197287D01*
X2214799Y197355D01*
X2214852Y197418D01*
X2214873Y197465D01*
X2214901Y197508D01*
X2214913Y197559D01*
X2214957Y197662D01*
X2214975Y197841D01*
X2214985Y197885D01*
X2214985Y210435D01*
X2214978Y210486D01*
X2214979Y210538D01*
X2214958Y210617D01*
X2214945Y210698D01*
X2214923Y210745D01*
X2214909Y210794D01*
X2214865Y210864D01*
X2214830Y210937D01*
X2214794Y210975D01*
X2214767Y211019D01*
X2214704Y211072D01*
X2214648Y211132D01*
X2214604Y211157D01*
X2214564Y211191D01*
X2214489Y211223D01*
X2214418Y211264D01*
X2214367Y211275D01*
X2214320Y211295D01*
X2214238Y211304D01*
X2214158Y211321D01*
X2214107Y211317D01*
X2214055Y211323D01*
X2213975Y211306D01*
X2213893Y211300D01*
X2213845Y211281D01*
X2213795Y211270D01*
X2213751Y211243D01*
X2213646Y211201D01*
X2213507Y211088D01*
X2213469Y211063D01*
X2213276Y210870D01*
X2211861Y209925D01*
X2210289Y209274D01*
X2208621Y208942D01*
X2203451Y208942D01*
X2203451Y216689D01*
X2203436Y216791D01*
X2203427Y216893D01*
X2203416Y216922D01*
X2203411Y216952D01*
X2203367Y217045D01*
X2203328Y217140D01*
X2203309Y217164D01*
X2203296Y217192D01*
X2203226Y217267D01*
X2203161Y217346D01*
X2203135Y217363D01*
X2203114Y217386D01*
X2203025Y217437D01*
X2202940Y217494D01*
X2202916Y217499D01*
X2202884Y217518D01*
X2202624Y217576D01*
X2202586Y217573D01*
X2202563Y217578D01*
X2201673Y217578D01*
X2201673Y218468D01*
X2201658Y218569D01*
X2201649Y218671D01*
X2201638Y218700D01*
X2201633Y218730D01*
X2201589Y218823D01*
X2201550Y218918D01*
X2201531Y218942D01*
X2201518Y218970D01*
X2201448Y219045D01*
X2201383Y219124D01*
X2201357Y219142D01*
X2201336Y219164D01*
X2201247Y219215D01*
X2201162Y219272D01*
X2201138Y219277D01*
X2201105Y219296D01*
X2200846Y219354D01*
X2200808Y219351D01*
X2200785Y219356D01*
X2187126Y219356D01*
X2187273Y220098D01*
X2187924Y221670D01*
X2188869Y223084D01*
X2190072Y224287D01*
X2191487Y225232D01*
X2192318Y225576D01*
X2192397Y225624D01*
X2192480Y225664D01*
X2192510Y225692D01*
X2192545Y225714D01*
X2192606Y225783D01*
X2192674Y225846D01*
X2192695Y225881D01*
X2192722Y225912D01*
X2192760Y225996D01*
X2192806Y226076D01*
X2192815Y226117D01*
X2192832Y226154D01*
X2192844Y226246D01*
X2192864Y226336D01*
X2192860Y226377D01*
X2192866Y226418D01*
X2192850Y226509D01*
X2192842Y226601D01*
X2192827Y226639D01*
X2192820Y226680D01*
X2192778Y226762D01*
X2192743Y226848D01*
X2192717Y226880D01*
X2192698Y226916D01*
X2192634Y226982D01*
X2192576Y227054D01*
X2192541Y227077D01*
X2192512Y227106D01*
X2192431Y227150D01*
X2192354Y227201D01*
X2192324Y227208D01*
X2192279Y227233D01*
X2192018Y227284D01*
X2191998Y227281D01*
X2191978Y227285D01*
X2071820Y227285D01*
X2071729Y227271D01*
X2071637Y227266D01*
X2071598Y227252D01*
X2071558Y227245D01*
X2071474Y227205D01*
X2071388Y227173D01*
X2071355Y227148D01*
X2071318Y227130D01*
X2071251Y227067D01*
X2071178Y227010D01*
X2071154Y226976D01*
X2071124Y226948D01*
X2071078Y226868D01*
X2071025Y226793D01*
X2071012Y226753D01*
X2070992Y226718D01*
X2070972Y226628D01*
X2070944Y226540D01*
X2070943Y226498D01*
X2070934Y226458D01*
X2070942Y226366D01*
X2070941Y226274D01*
X2070953Y226234D01*
X2070956Y226193D01*
X2070990Y226107D01*
X2071017Y226019D01*
X2071039Y225985D01*
X2071055Y225946D01*
X2071113Y225875D01*
X2071164Y225798D01*
X2071190Y225780D01*
X2071222Y225740D01*
X2071444Y225593D01*
X2071464Y225588D01*
X2071480Y225576D01*
X2072311Y225232D01*
X2073726Y224287D01*
X2074929Y223084D01*
X2075874Y221670D01*
X2076525Y220098D01*
X2076672Y219356D01*
X2063013Y219356D01*
X2062912Y219340D01*
X2062809Y219332D01*
X2062781Y219321D01*
X2062750Y219316D01*
X2062658Y219271D01*
X2062563Y219233D01*
X2062539Y219214D01*
X2062511Y219200D01*
X2062436Y219130D01*
X2062356Y219065D01*
X2062339Y219040D01*
X2062317Y219019D01*
X2062266Y218930D01*
X2062209Y218844D01*
X2062204Y218821D01*
X2062185Y218788D01*
X2062127Y218529D01*
X2062130Y218491D01*
X2062125Y218468D01*
X2062125Y217578D01*
X2062123Y217578D01*
X2062123Y218468D01*
X2062108Y218569D01*
X2062099Y218671D01*
X2062088Y218700D01*
X2062083Y218730D01*
X2062039Y218823D01*
X2062000Y218918D01*
X2061981Y218942D01*
X2061968Y218970D01*
X2061898Y219045D01*
X2061833Y219124D01*
X2061807Y219142D01*
X2061786Y219164D01*
X2061697Y219215D01*
X2061612Y219272D01*
X2061588Y219277D01*
X2061555Y219296D01*
X2061296Y219354D01*
X2061258Y219351D01*
X2061235Y219356D01*
X2047576Y219356D01*
X2047723Y220098D01*
X2048374Y221670D01*
X2049319Y223084D01*
X2050522Y224287D01*
X2051937Y225232D01*
X2052768Y225576D01*
X2052846Y225624D01*
X2052930Y225664D01*
X2052960Y225692D01*
X2052995Y225714D01*
X2053056Y225783D01*
X2053124Y225846D01*
X2053145Y225882D01*
X2053172Y225912D01*
X2053210Y225996D01*
X2053256Y226076D01*
X2053265Y226117D01*
X2053282Y226154D01*
X2053294Y226246D01*
X2053314Y226336D01*
X2053310Y226377D01*
X2053316Y226418D01*
X2053300Y226509D01*
X2053292Y226601D01*
X2053277Y226639D01*
X2053270Y226680D01*
X2053228Y226762D01*
X2053193Y226848D01*
X2053167Y226880D01*
X2053148Y226916D01*
X2053084Y226982D01*
X2053026Y227054D01*
X2052991Y227077D01*
X2052962Y227106D01*
X2052881Y227150D01*
X2052804Y227201D01*
X2052774Y227208D01*
X2052729Y227233D01*
X2052468Y227284D01*
X2052448Y227281D01*
X2052428Y227285D01*
X1932270Y227285D01*
X1932179Y227271D01*
X1932087Y227266D01*
X1932048Y227252D01*
X1932008Y227245D01*
X1931924Y227205D01*
X1931838Y227173D01*
X1931805Y227148D01*
X1931768Y227130D01*
X1931701Y227067D01*
X1931628Y227010D01*
X1931604Y226977D01*
X1931574Y226948D01*
X1931528Y226868D01*
X1931475Y226793D01*
X1931462Y226753D01*
X1931442Y226718D01*
X1931422Y226628D01*
X1931394Y226540D01*
X1931393Y226498D01*
X1931384Y226458D01*
X1931392Y226366D01*
X1931391Y226274D01*
X1931402Y226234D01*
X1931406Y226193D01*
X1931440Y226108D01*
X1931467Y226019D01*
X1931489Y225985D01*
X1931505Y225946D01*
X1931563Y225875D01*
X1931614Y225798D01*
X1931640Y225780D01*
X1931672Y225740D01*
X1931894Y225593D01*
X1931914Y225588D01*
X1931930Y225576D01*
X1932761Y225232D01*
X1934176Y224287D01*
X1935379Y223084D01*
X1936324Y221670D01*
X1936975Y220098D01*
X1937122Y219356D01*
X1923463Y219356D01*
X1923362Y219340D01*
X1923259Y219332D01*
X1923231Y219321D01*
X1923200Y219316D01*
X1923108Y219271D01*
X1923013Y219233D01*
X1922989Y219214D01*
X1922961Y219200D01*
X1922886Y219130D01*
X1922806Y219065D01*
X1922789Y219040D01*
X1922767Y219019D01*
X1922716Y218930D01*
X1922659Y218844D01*
X1922654Y218821D01*
X1922635Y218788D01*
X1922577Y218529D01*
X1922580Y218491D01*
X1922575Y218468D01*
X1922575Y217578D01*
X1922573Y217578D01*
X1922573Y218468D01*
X1922558Y218569D01*
X1922549Y218671D01*
X1922538Y218700D01*
X1922533Y218730D01*
X1922489Y218823D01*
X1922450Y218918D01*
X1922431Y218942D01*
X1922418Y218970D01*
X1922348Y219045D01*
X1922283Y219124D01*
X1922257Y219142D01*
X1922236Y219164D01*
X1922147Y219215D01*
X1922062Y219272D01*
X1922038Y219277D01*
X1922005Y219296D01*
X1921746Y219354D01*
X1921708Y219351D01*
X1921685Y219356D01*
X1908026Y219356D01*
X1908173Y220098D01*
X1908824Y221670D01*
X1909769Y223084D01*
X1910972Y224287D01*
X1912387Y225232D01*
X1913218Y225576D01*
X1913297Y225624D01*
X1913380Y225664D01*
X1913410Y225692D01*
X1913445Y225714D01*
X1913506Y225783D01*
X1913574Y225846D01*
X1913595Y225881D01*
X1913622Y225912D01*
X1913660Y225996D01*
X1913706Y226076D01*
X1913715Y226117D01*
X1913732Y226154D01*
X1913744Y226246D01*
X1913764Y226336D01*
X1913760Y226377D01*
X1913766Y226418D01*
X1913750Y226509D01*
X1913742Y226601D01*
X1913727Y226639D01*
X1913720Y226680D01*
X1913678Y226762D01*
X1913643Y226848D01*
X1913617Y226880D01*
X1913598Y226916D01*
X1913534Y226982D01*
X1913476Y227054D01*
X1913441Y227077D01*
X1913412Y227106D01*
X1913331Y227150D01*
X1913254Y227201D01*
X1913224Y227208D01*
X1913179Y227233D01*
X1912918Y227284D01*
X1912898Y227281D01*
X1912878Y227285D01*
X1792720Y227285D01*
X1792629Y227271D01*
X1792537Y227266D01*
X1792498Y227252D01*
X1792458Y227245D01*
X1792374Y227205D01*
X1792288Y227173D01*
X1792255Y227148D01*
X1792218Y227130D01*
X1792151Y227067D01*
X1792078Y227010D01*
X1792054Y226977D01*
X1792024Y226948D01*
X1791978Y226868D01*
X1791925Y226793D01*
X1791912Y226753D01*
X1791892Y226718D01*
X1791872Y226628D01*
X1791844Y226540D01*
X1791843Y226498D01*
X1791834Y226458D01*
X1791842Y226366D01*
X1791841Y226274D01*
X1791852Y226234D01*
X1791856Y226193D01*
X1791890Y226108D01*
X1791917Y226019D01*
X1791939Y225985D01*
X1791955Y225946D01*
X1792013Y225875D01*
X1792064Y225798D01*
X1792090Y225780D01*
X1792122Y225740D01*
X1792344Y225593D01*
X1792364Y225588D01*
X1792380Y225576D01*
X1793211Y225232D01*
X1794626Y224287D01*
X1795829Y223084D01*
X1796774Y221670D01*
X1797425Y220098D01*
X1797572Y219356D01*
X1783913Y219356D01*
X1783812Y219340D01*
X1783709Y219332D01*
X1783681Y219321D01*
X1783650Y219316D01*
X1783558Y219271D01*
X1783463Y219233D01*
X1783439Y219214D01*
X1783411Y219200D01*
X1783336Y219130D01*
X1783256Y219065D01*
X1783239Y219040D01*
X1783217Y219019D01*
X1783166Y218930D01*
X1783109Y218844D01*
X1783104Y218821D01*
X1783085Y218788D01*
X1783027Y218529D01*
X1783030Y218491D01*
X1783025Y218468D01*
X1783025Y217578D01*
X1783023Y217578D01*
X1783023Y218468D01*
X1783008Y218569D01*
X1782999Y218671D01*
X1782988Y218700D01*
X1782983Y218730D01*
X1782939Y218823D01*
X1782900Y218918D01*
X1782881Y218942D01*
X1782868Y218970D01*
X1782798Y219045D01*
X1782733Y219124D01*
X1782707Y219142D01*
X1782686Y219164D01*
X1782597Y219215D01*
X1782512Y219272D01*
X1782488Y219277D01*
X1782455Y219296D01*
X1782196Y219354D01*
X1782158Y219351D01*
X1782135Y219356D01*
X1768476Y219356D01*
X1768623Y220098D01*
X1769274Y221670D01*
X1770219Y223084D01*
X1771422Y224287D01*
X1772837Y225232D01*
X1773668Y225576D01*
X1773747Y225624D01*
X1773830Y225664D01*
X1773860Y225692D01*
X1773895Y225714D01*
X1773956Y225783D01*
X1774024Y225846D01*
X1774045Y225881D01*
X1774072Y225912D01*
X1774110Y225996D01*
X1774156Y226076D01*
X1774165Y226117D01*
X1774182Y226154D01*
X1774194Y226246D01*
X1774214Y226336D01*
X1774210Y226377D01*
X1774216Y226418D01*
X1774200Y226509D01*
X1774192Y226601D01*
X1774177Y226639D01*
X1774170Y226680D01*
X1774128Y226762D01*
X1774093Y226848D01*
X1774067Y226880D01*
X1774048Y226916D01*
X1773984Y226982D01*
X1773926Y227054D01*
X1773891Y227077D01*
X1773862Y227106D01*
X1773781Y227150D01*
X1773704Y227201D01*
X1773674Y227208D01*
X1773629Y227233D01*
X1773368Y227284D01*
X1773348Y227281D01*
X1773328Y227285D01*
X1653170Y227285D01*
X1653079Y227271D01*
X1652987Y227266D01*
X1652948Y227252D01*
X1652908Y227245D01*
X1652824Y227205D01*
X1652738Y227173D01*
X1652705Y227148D01*
X1652668Y227130D01*
X1652601Y227067D01*
X1652528Y227010D01*
X1652504Y226976D01*
X1652474Y226948D01*
X1652428Y226868D01*
X1652375Y226793D01*
X1652362Y226753D01*
X1652342Y226718D01*
X1652322Y226628D01*
X1652294Y226540D01*
X1652293Y226498D01*
X1652284Y226458D01*
X1652292Y226366D01*
X1652291Y226274D01*
X1652303Y226234D01*
X1652306Y226193D01*
X1652340Y226107D01*
X1652367Y226019D01*
X1652389Y225985D01*
X1652405Y225946D01*
X1652463Y225875D01*
X1652514Y225798D01*
X1652540Y225780D01*
X1652572Y225740D01*
X1652794Y225593D01*
X1652814Y225588D01*
X1652830Y225576D01*
X1653661Y225232D01*
X1655076Y224287D01*
X1656279Y223084D01*
X1657224Y221670D01*
X1657875Y220098D01*
X1658022Y219356D01*
X1644363Y219356D01*
X1644262Y219340D01*
X1644159Y219332D01*
X1644131Y219321D01*
X1644100Y219316D01*
X1644008Y219271D01*
X1643913Y219233D01*
X1643889Y219214D01*
X1643861Y219200D01*
X1643786Y219130D01*
X1643706Y219065D01*
X1643689Y219040D01*
X1643667Y219019D01*
X1643616Y218930D01*
X1643559Y218844D01*
X1643554Y218821D01*
X1643535Y218788D01*
X1643477Y218529D01*
X1643480Y218491D01*
X1643475Y218468D01*
X1643475Y217578D01*
X1643473Y217578D01*
X1643473Y218468D01*
X1643458Y218569D01*
X1643449Y218671D01*
X1643438Y218700D01*
X1643433Y218730D01*
X1643389Y218823D01*
X1643350Y218918D01*
X1643331Y218942D01*
X1643318Y218970D01*
X1643248Y219045D01*
X1643183Y219124D01*
X1643157Y219142D01*
X1643136Y219164D01*
X1643047Y219215D01*
X1642962Y219272D01*
X1642938Y219277D01*
X1642905Y219296D01*
X1642646Y219354D01*
X1642608Y219351D01*
X1642585Y219356D01*
X1628926Y219356D01*
X1629073Y220098D01*
X1629724Y221670D01*
X1630669Y223084D01*
X1631872Y224287D01*
X1633287Y225232D01*
X1634118Y225576D01*
X1634196Y225624D01*
X1634280Y225664D01*
X1634310Y225692D01*
X1634345Y225714D01*
X1634406Y225783D01*
X1634474Y225846D01*
X1634495Y225882D01*
X1634522Y225912D01*
X1634560Y225996D01*
X1634606Y226076D01*
X1634615Y226117D01*
X1634632Y226154D01*
X1634644Y226246D01*
X1634664Y226336D01*
X1634660Y226377D01*
X1634666Y226418D01*
X1634650Y226509D01*
X1634642Y226601D01*
X1634627Y226639D01*
X1634620Y226680D01*
X1634578Y226762D01*
X1634543Y226848D01*
X1634517Y226880D01*
X1634498Y226916D01*
X1634434Y226982D01*
X1634376Y227054D01*
X1634341Y227077D01*
X1634312Y227106D01*
X1634231Y227150D01*
X1634154Y227201D01*
X1634124Y227208D01*
X1634079Y227233D01*
X1633818Y227284D01*
X1633798Y227281D01*
X1633778Y227285D01*
X1513620Y227285D01*
X1513529Y227271D01*
X1513437Y227266D01*
X1513398Y227252D01*
X1513358Y227245D01*
X1513274Y227205D01*
X1513188Y227173D01*
X1513155Y227148D01*
X1513118Y227130D01*
X1513051Y227067D01*
X1512978Y227010D01*
X1512954Y226977D01*
X1512924Y226948D01*
X1512878Y226868D01*
X1512825Y226793D01*
X1512812Y226753D01*
X1512792Y226718D01*
X1512772Y226628D01*
X1512744Y226540D01*
X1512743Y226498D01*
X1512734Y226458D01*
X1512742Y226366D01*
X1512741Y226274D01*
X1512752Y226234D01*
X1512756Y226193D01*
X1512790Y226108D01*
X1512817Y226019D01*
X1512839Y225985D01*
X1512855Y225946D01*
X1512913Y225875D01*
X1512964Y225798D01*
X1512990Y225780D01*
X1513022Y225740D01*
X1513244Y225593D01*
X1513264Y225588D01*
X1513280Y225576D01*
X1514111Y225232D01*
X1515526Y224287D01*
X1516729Y223084D01*
X1517674Y221670D01*
X1518325Y220098D01*
X1518472Y219356D01*
X1504813Y219356D01*
X1504712Y219340D01*
X1504609Y219332D01*
X1504581Y219321D01*
X1504550Y219316D01*
X1504458Y219271D01*
X1504363Y219233D01*
X1504339Y219214D01*
X1504311Y219200D01*
X1504236Y219130D01*
X1504156Y219065D01*
X1504139Y219040D01*
X1504117Y219019D01*
X1504066Y218930D01*
X1504009Y218844D01*
X1504004Y218821D01*
X1503985Y218788D01*
X1503927Y218529D01*
X1503930Y218491D01*
X1503925Y218468D01*
X1503925Y217578D01*
X1503923Y217578D01*
X1503923Y218468D01*
X1503908Y218569D01*
X1503899Y218671D01*
X1503888Y218700D01*
X1503883Y218730D01*
X1503839Y218823D01*
X1503800Y218918D01*
X1503781Y218942D01*
X1503768Y218970D01*
X1503698Y219045D01*
X1503633Y219124D01*
X1503607Y219142D01*
X1503586Y219164D01*
X1503497Y219215D01*
X1503412Y219272D01*
X1503388Y219277D01*
X1503355Y219296D01*
X1503096Y219354D01*
X1503058Y219351D01*
X1503035Y219356D01*
X1489376Y219356D01*
X1489523Y220098D01*
X1490174Y221670D01*
X1491119Y223084D01*
X1492322Y224287D01*
X1493737Y225232D01*
X1494568Y225576D01*
X1494647Y225624D01*
X1494730Y225664D01*
X1494760Y225692D01*
X1494795Y225714D01*
X1494856Y225783D01*
X1494924Y225846D01*
X1494945Y225881D01*
X1494972Y225912D01*
X1495010Y225996D01*
X1495056Y226076D01*
X1495065Y226117D01*
X1495082Y226154D01*
X1495094Y226246D01*
X1495114Y226336D01*
X1495110Y226377D01*
X1495116Y226418D01*
X1495100Y226509D01*
X1495092Y226601D01*
X1495077Y226639D01*
X1495070Y226680D01*
X1495028Y226762D01*
X1494993Y226848D01*
X1494967Y226880D01*
X1494948Y226916D01*
X1494884Y226982D01*
X1494826Y227054D01*
X1494791Y227077D01*
X1494762Y227106D01*
X1494681Y227150D01*
X1494604Y227201D01*
X1494574Y227208D01*
X1494529Y227233D01*
X1494268Y227284D01*
X1494248Y227281D01*
X1494228Y227285D01*
X1374070Y227285D01*
X1373979Y227271D01*
X1373887Y227266D01*
X1373848Y227252D01*
X1373808Y227245D01*
X1373724Y227205D01*
X1373638Y227173D01*
X1373605Y227148D01*
X1373568Y227130D01*
X1373501Y227067D01*
X1373428Y227010D01*
X1373404Y226977D01*
X1373374Y226948D01*
X1373328Y226868D01*
X1373275Y226793D01*
X1373262Y226753D01*
X1373242Y226718D01*
X1373222Y226628D01*
X1373194Y226540D01*
X1373193Y226498D01*
X1373184Y226458D01*
X1373192Y226366D01*
X1373191Y226274D01*
X1373202Y226234D01*
X1373206Y226193D01*
X1373240Y226108D01*
X1373267Y226019D01*
X1373289Y225985D01*
X1373305Y225946D01*
X1373363Y225875D01*
X1373414Y225798D01*
X1373440Y225780D01*
X1373472Y225740D01*
X1373694Y225593D01*
X1373714Y225588D01*
X1373730Y225576D01*
X1374561Y225232D01*
X1375976Y224287D01*
X1377179Y223084D01*
X1378124Y221670D01*
X1378775Y220098D01*
X1378922Y219356D01*
X1365263Y219356D01*
X1365162Y219340D01*
X1365059Y219332D01*
X1365031Y219321D01*
X1365000Y219316D01*
X1364908Y219271D01*
X1364813Y219233D01*
X1364789Y219214D01*
X1364761Y219200D01*
X1364686Y219130D01*
X1364606Y219065D01*
X1364589Y219040D01*
X1364567Y219019D01*
X1364516Y218930D01*
X1364459Y218844D01*
X1364454Y218821D01*
X1364435Y218788D01*
X1364377Y218529D01*
X1364380Y218491D01*
X1364375Y218468D01*
X1364375Y217578D01*
X1364373Y217578D01*
X1364373Y218468D01*
X1364358Y218569D01*
X1364349Y218671D01*
X1364338Y218700D01*
X1364333Y218730D01*
X1364289Y218823D01*
X1364250Y218918D01*
X1364231Y218942D01*
X1364218Y218970D01*
X1364148Y219045D01*
X1364083Y219124D01*
X1364057Y219142D01*
X1364036Y219164D01*
X1363947Y219215D01*
X1363862Y219272D01*
X1363838Y219277D01*
X1363805Y219296D01*
X1363546Y219354D01*
X1363508Y219351D01*
X1363485Y219356D01*
X1349826Y219356D01*
X1349973Y220098D01*
X1350624Y221670D01*
X1351569Y223084D01*
X1352772Y224287D01*
X1354187Y225232D01*
X1355018Y225576D01*
X1355097Y225624D01*
X1355180Y225664D01*
X1355210Y225692D01*
X1355245Y225714D01*
X1355306Y225783D01*
X1355374Y225846D01*
X1355395Y225881D01*
X1355422Y225912D01*
X1355460Y225996D01*
X1355506Y226076D01*
X1355515Y226117D01*
X1355532Y226154D01*
X1355544Y226246D01*
X1355564Y226336D01*
X1355560Y226377D01*
X1355566Y226418D01*
X1355550Y226509D01*
X1355542Y226601D01*
X1355527Y226639D01*
X1355520Y226680D01*
X1355478Y226762D01*
X1355443Y226848D01*
X1355417Y226880D01*
X1355398Y226916D01*
X1355334Y226982D01*
X1355276Y227054D01*
X1355241Y227077D01*
X1355212Y227106D01*
X1355131Y227150D01*
X1355054Y227201D01*
X1355024Y227208D01*
X1354979Y227233D01*
X1354718Y227284D01*
X1354698Y227281D01*
X1354678Y227285D01*
X1234520Y227285D01*
X1234429Y227271D01*
X1234337Y227266D01*
X1234298Y227252D01*
X1234258Y227245D01*
X1234174Y227205D01*
X1234088Y227173D01*
X1234055Y227148D01*
X1234018Y227130D01*
X1233951Y227067D01*
X1233878Y227010D01*
X1233854Y226977D01*
X1233824Y226948D01*
X1233778Y226868D01*
X1233725Y226793D01*
X1233712Y226753D01*
X1233692Y226718D01*
X1233672Y226628D01*
X1233644Y226540D01*
X1233643Y226498D01*
X1233634Y226458D01*
X1233642Y226366D01*
X1233641Y226274D01*
X1233652Y226234D01*
X1233656Y226193D01*
X1233690Y226108D01*
X1233717Y226019D01*
X1233739Y225985D01*
X1233755Y225946D01*
X1233813Y225875D01*
X1233864Y225798D01*
X1233890Y225780D01*
X1233922Y225740D01*
X1234144Y225593D01*
X1234164Y225588D01*
X1234180Y225576D01*
X1235011Y225232D01*
X1236426Y224287D01*
X1237629Y223084D01*
X1238574Y221670D01*
X1239225Y220098D01*
X1239372Y219356D01*
X1225713Y219356D01*
X1225612Y219340D01*
X1225509Y219332D01*
X1225481Y219321D01*
X1225450Y219316D01*
X1225358Y219271D01*
X1225263Y219233D01*
X1225239Y219214D01*
X1225211Y219200D01*
X1225136Y219130D01*
X1225056Y219065D01*
X1225039Y219040D01*
X1225017Y219019D01*
X1224966Y218930D01*
X1224909Y218844D01*
X1224904Y218821D01*
X1224885Y218788D01*
X1224827Y218529D01*
X1224830Y218491D01*
X1224825Y218468D01*
X1224825Y217578D01*
X1224823Y217578D01*
X1224823Y218468D01*
X1224808Y218569D01*
X1224799Y218671D01*
X1224788Y218700D01*
X1224783Y218730D01*
X1224739Y218823D01*
X1224700Y218918D01*
X1224681Y218942D01*
X1224668Y218970D01*
X1224598Y219045D01*
X1224533Y219124D01*
X1224507Y219142D01*
X1224486Y219164D01*
X1224397Y219215D01*
X1224312Y219272D01*
X1224288Y219277D01*
X1224255Y219296D01*
X1223996Y219354D01*
X1223958Y219351D01*
X1223935Y219356D01*
X1210276Y219356D01*
X1210423Y220098D01*
X1211074Y221670D01*
X1212019Y223084D01*
X1213222Y224287D01*
X1214637Y225232D01*
X1215468Y225576D01*
X1215547Y225624D01*
X1215630Y225664D01*
X1215660Y225692D01*
X1215695Y225714D01*
X1215756Y225783D01*
X1215824Y225846D01*
X1215845Y225881D01*
X1215872Y225912D01*
X1215910Y225996D01*
X1215956Y226076D01*
X1215965Y226117D01*
X1215982Y226154D01*
X1215994Y226246D01*
X1216014Y226336D01*
X1216010Y226377D01*
X1216016Y226418D01*
X1216000Y226509D01*
X1215992Y226601D01*
X1215977Y226639D01*
X1215970Y226680D01*
X1215928Y226762D01*
X1215893Y226848D01*
X1215867Y226880D01*
X1215848Y226916D01*
X1215784Y226982D01*
X1215726Y227054D01*
X1215691Y227077D01*
X1215662Y227106D01*
X1215581Y227150D01*
X1215504Y227201D01*
X1215474Y227208D01*
X1215429Y227233D01*
X1215168Y227284D01*
X1215148Y227281D01*
X1215128Y227285D01*
X1094970Y227285D01*
X1094879Y227271D01*
X1094787Y227266D01*
X1094748Y227252D01*
X1094708Y227245D01*
X1094624Y227205D01*
X1094538Y227173D01*
X1094505Y227148D01*
X1094468Y227130D01*
X1094401Y227067D01*
X1094328Y227010D01*
X1094304Y226977D01*
X1094274Y226948D01*
X1094228Y226868D01*
X1094175Y226793D01*
X1094162Y226753D01*
X1094142Y226718D01*
X1094122Y226628D01*
X1094094Y226540D01*
X1094093Y226498D01*
X1094084Y226458D01*
X1094092Y226366D01*
X1094091Y226274D01*
X1094102Y226234D01*
X1094106Y226193D01*
X1094140Y226108D01*
X1094167Y226019D01*
X1094189Y225985D01*
X1094205Y225946D01*
X1094263Y225875D01*
X1094314Y225798D01*
X1094340Y225780D01*
X1094372Y225740D01*
X1094594Y225593D01*
X1094614Y225588D01*
X1094630Y225576D01*
X1095461Y225232D01*
X1096876Y224287D01*
X1098079Y223084D01*
X1099024Y221670D01*
X1099675Y220098D01*
X1099822Y219356D01*
X1086163Y219356D01*
X1086062Y219340D01*
X1085959Y219332D01*
X1085931Y219321D01*
X1085900Y219316D01*
X1085808Y219271D01*
X1085713Y219233D01*
X1085689Y219214D01*
X1085661Y219200D01*
X1085586Y219130D01*
X1085506Y219065D01*
X1085489Y219040D01*
X1085467Y219019D01*
X1085416Y218930D01*
X1085359Y218844D01*
X1085354Y218821D01*
X1085335Y218788D01*
X1085277Y218529D01*
X1085280Y218491D01*
X1085275Y218468D01*
X1085275Y217578D01*
X1085273Y217578D01*
X1085273Y218468D01*
X1085258Y218569D01*
X1085249Y218671D01*
X1085238Y218700D01*
X1085233Y218730D01*
X1085189Y218823D01*
X1085150Y218918D01*
X1085131Y218942D01*
X1085118Y218970D01*
X1085048Y219045D01*
X1084983Y219124D01*
X1084957Y219142D01*
X1084936Y219164D01*
X1084847Y219215D01*
X1084762Y219272D01*
X1084738Y219277D01*
X1084705Y219296D01*
X1084446Y219354D01*
X1084408Y219351D01*
X1084385Y219356D01*
X1070726Y219356D01*
X1070873Y220098D01*
X1071524Y221670D01*
X1072469Y223084D01*
X1073672Y224287D01*
X1075087Y225232D01*
X1075918Y225576D01*
X1075997Y225624D01*
X1076080Y225664D01*
X1076110Y225692D01*
X1076145Y225714D01*
X1076206Y225783D01*
X1076274Y225846D01*
X1076295Y225881D01*
X1076322Y225912D01*
X1076360Y225996D01*
X1076406Y226076D01*
X1076415Y226117D01*
X1076432Y226154D01*
X1076444Y226246D01*
X1076464Y226336D01*
X1076460Y226377D01*
X1076466Y226418D01*
X1076450Y226509D01*
X1076442Y226601D01*
X1076427Y226639D01*
X1076420Y226680D01*
X1076378Y226762D01*
X1076343Y226848D01*
X1076317Y226880D01*
X1076298Y226916D01*
X1076234Y226982D01*
X1076176Y227054D01*
X1076141Y227077D01*
X1076112Y227106D01*
X1076031Y227150D01*
X1075954Y227201D01*
X1075924Y227208D01*
X1075879Y227233D01*
X1075618Y227284D01*
X1075598Y227281D01*
X1075578Y227285D01*
X955420Y227285D01*
X955329Y227271D01*
X955237Y227266D01*
X955198Y227252D01*
X955158Y227245D01*
X955074Y227205D01*
X954988Y227173D01*
X954955Y227148D01*
X954918Y227130D01*
X954851Y227067D01*
X954778Y227010D01*
X954754Y226977D01*
X954724Y226948D01*
X954678Y226868D01*
X954625Y226793D01*
X954612Y226753D01*
X954592Y226718D01*
X954572Y226628D01*
X954544Y226540D01*
X954543Y226498D01*
X954534Y226458D01*
X954542Y226366D01*
X954541Y226274D01*
X954552Y226234D01*
X954556Y226193D01*
X954590Y226108D01*
X954617Y226019D01*
X954639Y225985D01*
X954655Y225946D01*
X954713Y225875D01*
X954764Y225798D01*
X954790Y225780D01*
X954822Y225740D01*
X955044Y225593D01*
X955064Y225588D01*
X955080Y225576D01*
X955911Y225232D01*
X957326Y224287D01*
X958529Y223084D01*
X959474Y221670D01*
X960125Y220098D01*
X960272Y219356D01*
X946613Y219356D01*
X946512Y219340D01*
X946409Y219332D01*
X946381Y219321D01*
X946350Y219316D01*
X946258Y219271D01*
X946163Y219233D01*
X946139Y219214D01*
X946111Y219200D01*
X946036Y219130D01*
X945956Y219065D01*
X945939Y219040D01*
X945917Y219019D01*
X945866Y218930D01*
X945809Y218844D01*
X945804Y218821D01*
X945785Y218788D01*
X945727Y218529D01*
X945730Y218491D01*
X945725Y218468D01*
X945725Y217578D01*
X945723Y217578D01*
X945723Y218468D01*
X945708Y218569D01*
X945699Y218671D01*
X945688Y218700D01*
X945683Y218730D01*
X945639Y218823D01*
X945600Y218918D01*
X945581Y218942D01*
X945568Y218970D01*
X945498Y219045D01*
X945433Y219124D01*
X945407Y219142D01*
X945386Y219164D01*
X945297Y219215D01*
X945212Y219272D01*
X945188Y219277D01*
X945155Y219296D01*
X944896Y219354D01*
X944858Y219351D01*
X944835Y219356D01*
X931176Y219356D01*
X931323Y220098D01*
X931974Y221670D01*
X932919Y223084D01*
X934122Y224287D01*
X935537Y225232D01*
X936368Y225576D01*
X936447Y225624D01*
X936530Y225664D01*
X936560Y225692D01*
X936595Y225714D01*
X936656Y225783D01*
X936724Y225846D01*
X936745Y225881D01*
X936772Y225912D01*
X936810Y225996D01*
X936856Y226076D01*
X936865Y226117D01*
X936882Y226154D01*
X936894Y226246D01*
X936914Y226336D01*
X936910Y226377D01*
X936916Y226418D01*
X936900Y226509D01*
X936892Y226601D01*
X936877Y226639D01*
X936870Y226680D01*
X936828Y226762D01*
X936793Y226848D01*
X936767Y226880D01*
X936748Y226916D01*
X936684Y226982D01*
X936626Y227054D01*
X936591Y227077D01*
X936562Y227106D01*
X936481Y227150D01*
X936404Y227201D01*
X936374Y227208D01*
X936329Y227233D01*
X936068Y227284D01*
X936048Y227281D01*
X936028Y227285D01*
X815870Y227285D01*
X815779Y227271D01*
X815687Y227266D01*
X815648Y227252D01*
X815608Y227245D01*
X815524Y227205D01*
X815438Y227173D01*
X815405Y227148D01*
X815368Y227130D01*
X815301Y227067D01*
X815228Y227010D01*
X815204Y226977D01*
X815174Y226948D01*
X815128Y226868D01*
X815075Y226793D01*
X815062Y226753D01*
X815042Y226718D01*
X815022Y226628D01*
X814994Y226540D01*
X814993Y226498D01*
X814984Y226458D01*
X814992Y226366D01*
X814991Y226274D01*
X815002Y226234D01*
X815006Y226193D01*
X815040Y226108D01*
X815067Y226019D01*
X815089Y225985D01*
X815105Y225946D01*
X815163Y225875D01*
X815214Y225798D01*
X815240Y225780D01*
X815272Y225740D01*
X815494Y225593D01*
X815514Y225588D01*
X815530Y225576D01*
X816361Y225232D01*
X817776Y224287D01*
X818979Y223084D01*
X819924Y221670D01*
X820575Y220098D01*
X820722Y219356D01*
X807063Y219356D01*
X806962Y219340D01*
X806859Y219332D01*
X806831Y219321D01*
X806800Y219316D01*
X806708Y219271D01*
X806613Y219233D01*
X806589Y219214D01*
X806561Y219200D01*
X806486Y219130D01*
X806406Y219065D01*
X806389Y219040D01*
X806367Y219019D01*
X806316Y218930D01*
X806259Y218844D01*
X806254Y218821D01*
X806235Y218788D01*
X806177Y218529D01*
X806180Y218491D01*
X806175Y218468D01*
X806175Y217578D01*
X806173Y217578D01*
X806173Y218468D01*
X806158Y218569D01*
X806149Y218671D01*
X806138Y218700D01*
X806133Y218730D01*
X806089Y218823D01*
X806050Y218918D01*
X806031Y218942D01*
X806018Y218970D01*
X805948Y219045D01*
X805883Y219124D01*
X805857Y219142D01*
X805836Y219164D01*
X805747Y219215D01*
X805662Y219272D01*
X805638Y219277D01*
X805605Y219296D01*
X805346Y219354D01*
X805308Y219351D01*
X805285Y219356D01*
X791626Y219356D01*
X791773Y220098D01*
X792424Y221670D01*
X793369Y223084D01*
X794572Y224287D01*
X795987Y225232D01*
X796818Y225576D01*
X796897Y225624D01*
X796980Y225664D01*
X797010Y225692D01*
X797045Y225714D01*
X797106Y225783D01*
X797174Y225846D01*
X797195Y225881D01*
X797222Y225912D01*
X797260Y225996D01*
X797306Y226076D01*
X797315Y226117D01*
X797332Y226154D01*
X797344Y226246D01*
X797364Y226336D01*
X797360Y226377D01*
X797366Y226418D01*
X797350Y226509D01*
X797342Y226601D01*
X797327Y226639D01*
X797320Y226680D01*
X797278Y226762D01*
X797243Y226848D01*
X797217Y226880D01*
X797198Y226916D01*
X797134Y226982D01*
X797076Y227054D01*
X797041Y227077D01*
X797012Y227106D01*
X796931Y227150D01*
X796854Y227201D01*
X796824Y227208D01*
X796779Y227233D01*
X796518Y227284D01*
X796498Y227281D01*
X796478Y227285D01*
X676320Y227285D01*
X676229Y227271D01*
X676137Y227266D01*
X676098Y227252D01*
X676058Y227245D01*
X675974Y227205D01*
X675888Y227173D01*
X675855Y227148D01*
X675818Y227130D01*
X675751Y227067D01*
X675678Y227010D01*
X675654Y226977D01*
X675624Y226948D01*
X675578Y226868D01*
X675525Y226793D01*
X675512Y226753D01*
X675492Y226718D01*
X675472Y226628D01*
X675444Y226540D01*
X675443Y226498D01*
X675434Y226458D01*
X675442Y226366D01*
X675441Y226274D01*
X675452Y226234D01*
X675456Y226193D01*
X675490Y226108D01*
X675517Y226019D01*
X675539Y225985D01*
X675555Y225946D01*
X675613Y225875D01*
X675664Y225798D01*
X675690Y225780D01*
X675722Y225740D01*
X675944Y225593D01*
X675964Y225588D01*
X675980Y225576D01*
X676811Y225232D01*
X678226Y224287D01*
X679429Y223084D01*
X680374Y221670D01*
X681025Y220098D01*
X681172Y219356D01*
X667513Y219356D01*
X667412Y219340D01*
X667309Y219332D01*
X667281Y219321D01*
X667250Y219316D01*
X667158Y219271D01*
X667063Y219233D01*
X667039Y219214D01*
X667011Y219200D01*
X666936Y219130D01*
X666856Y219065D01*
X666839Y219040D01*
X666817Y219019D01*
X666766Y218930D01*
X666709Y218844D01*
X666704Y218821D01*
X666685Y218788D01*
X666627Y218529D01*
X666630Y218491D01*
X666625Y218468D01*
X666625Y217578D01*
X666623Y217578D01*
X666623Y218468D01*
X666608Y218569D01*
X666599Y218671D01*
X666588Y218700D01*
X666583Y218730D01*
X666539Y218823D01*
X666500Y218918D01*
X666481Y218942D01*
X666468Y218970D01*
X666398Y219045D01*
X666333Y219124D01*
X666307Y219142D01*
X666286Y219164D01*
X666197Y219215D01*
X666112Y219272D01*
X666088Y219277D01*
X666055Y219296D01*
X665796Y219354D01*
X665758Y219351D01*
X665735Y219356D01*
X652076Y219356D01*
X652223Y220098D01*
X652874Y221670D01*
X653819Y223084D01*
X655022Y224287D01*
X656437Y225232D01*
X657268Y225576D01*
X657347Y225624D01*
X657430Y225664D01*
X657460Y225692D01*
X657495Y225714D01*
X657556Y225783D01*
X657624Y225846D01*
X657645Y225881D01*
X657672Y225912D01*
X657710Y225996D01*
X657756Y226076D01*
X657765Y226117D01*
X657782Y226154D01*
X657794Y226246D01*
X657814Y226336D01*
X657810Y226377D01*
X657816Y226418D01*
X657800Y226509D01*
X657792Y226601D01*
X657777Y226639D01*
X657770Y226680D01*
X657728Y226762D01*
X657693Y226848D01*
X657667Y226880D01*
X657648Y226916D01*
X657584Y226982D01*
X657526Y227054D01*
X657491Y227077D01*
X657462Y227106D01*
X657381Y227150D01*
X657304Y227201D01*
X657274Y227208D01*
X657229Y227233D01*
X656968Y227284D01*
X656948Y227281D01*
X656928Y227285D01*
X536770Y227285D01*
X536679Y227271D01*
X536587Y227266D01*
X536548Y227252D01*
X536508Y227245D01*
X536424Y227205D01*
X536338Y227173D01*
X536305Y227148D01*
X536268Y227130D01*
X536201Y227067D01*
X536128Y227010D01*
X536104Y226977D01*
X536074Y226948D01*
X536028Y226868D01*
X535975Y226793D01*
X535962Y226753D01*
X535942Y226718D01*
X535922Y226628D01*
X535894Y226540D01*
X535893Y226498D01*
X535884Y226458D01*
X535892Y226366D01*
X535891Y226274D01*
X535902Y226234D01*
X535906Y226193D01*
X535940Y226108D01*
X535967Y226019D01*
X535989Y225985D01*
X536005Y225946D01*
X536063Y225875D01*
X536114Y225798D01*
X536140Y225780D01*
X536172Y225740D01*
X536394Y225593D01*
X536414Y225588D01*
X536430Y225576D01*
X537261Y225232D01*
X538676Y224287D01*
X539879Y223084D01*
X540824Y221670D01*
X541475Y220098D01*
X541622Y219356D01*
X527963Y219356D01*
X527862Y219340D01*
X527759Y219332D01*
X527731Y219321D01*
X527700Y219316D01*
X527608Y219271D01*
X527513Y219233D01*
X527489Y219214D01*
X527461Y219200D01*
X527386Y219130D01*
X527306Y219065D01*
X527289Y219040D01*
X527267Y219019D01*
X527216Y218930D01*
X527159Y218844D01*
X527154Y218821D01*
X527135Y218788D01*
X527077Y218529D01*
X527080Y218491D01*
X527075Y218468D01*
X527075Y217578D01*
X527073Y217578D01*
X527073Y218468D01*
X527058Y218569D01*
X527049Y218671D01*
X527038Y218700D01*
X527033Y218730D01*
X526989Y218823D01*
X526950Y218918D01*
X526931Y218942D01*
X526918Y218970D01*
X526848Y219045D01*
X526783Y219124D01*
X526757Y219142D01*
X526736Y219164D01*
X526647Y219215D01*
X526562Y219272D01*
X526538Y219277D01*
X526505Y219296D01*
X526246Y219354D01*
X526208Y219351D01*
X526185Y219356D01*
X512526Y219356D01*
X512673Y220098D01*
X513324Y221670D01*
X514269Y223084D01*
X515472Y224287D01*
X516887Y225232D01*
X517718Y225576D01*
X517797Y225624D01*
X517880Y225664D01*
X517910Y225692D01*
X517945Y225714D01*
X518006Y225783D01*
X518074Y225846D01*
X518095Y225881D01*
X518122Y225912D01*
X518160Y225996D01*
X518206Y226076D01*
X518215Y226117D01*
X518232Y226154D01*
X518244Y226246D01*
X518264Y226336D01*
X518260Y226377D01*
X518266Y226418D01*
X518250Y226509D01*
X518242Y226601D01*
X518227Y226639D01*
X518220Y226680D01*
X518178Y226762D01*
X518143Y226848D01*
X518117Y226880D01*
X518098Y226916D01*
X518034Y226982D01*
X517976Y227054D01*
X517941Y227077D01*
X517912Y227106D01*
X517831Y227150D01*
X517754Y227201D01*
X517724Y227208D01*
X517679Y227233D01*
X517418Y227284D01*
X517398Y227281D01*
X517378Y227285D01*
X397220Y227285D01*
X397129Y227271D01*
X397037Y227266D01*
X396998Y227252D01*
X396958Y227245D01*
X396874Y227205D01*
X396788Y227173D01*
X396755Y227148D01*
X396718Y227130D01*
X396651Y227067D01*
X396578Y227010D01*
X396554Y226977D01*
X396524Y226948D01*
X396478Y226868D01*
X396425Y226793D01*
X396412Y226753D01*
X396392Y226718D01*
X396372Y226628D01*
X396344Y226540D01*
X396343Y226498D01*
X396334Y226458D01*
X396342Y226366D01*
X396341Y226274D01*
X396352Y226234D01*
X396356Y226193D01*
X396390Y226108D01*
X396417Y226019D01*
X396439Y225985D01*
X396455Y225946D01*
X396513Y225875D01*
X396564Y225798D01*
X396590Y225780D01*
X396622Y225740D01*
X396844Y225593D01*
X396864Y225588D01*
X396880Y225576D01*
X397711Y225232D01*
X399126Y224287D01*
X400329Y223084D01*
X401274Y221670D01*
X401925Y220098D01*
X402072Y219356D01*
X388413Y219356D01*
X388312Y219340D01*
X388209Y219332D01*
X388181Y219321D01*
X388150Y219316D01*
X388058Y219271D01*
X387963Y219233D01*
X387939Y219214D01*
X387911Y219200D01*
X387836Y219130D01*
X387756Y219065D01*
X387739Y219040D01*
X387717Y219019D01*
X387666Y218930D01*
X387609Y218844D01*
X387604Y218821D01*
X387585Y218788D01*
X387527Y218529D01*
X387530Y218491D01*
X387525Y218468D01*
X387525Y217578D01*
X387523Y217578D01*
X387523Y218468D01*
X387508Y218569D01*
X387499Y218671D01*
X387488Y218700D01*
X387483Y218730D01*
X387439Y218823D01*
X387400Y218918D01*
X387381Y218942D01*
X387368Y218970D01*
X387298Y219045D01*
X387233Y219124D01*
X387207Y219142D01*
X387186Y219164D01*
X387097Y219215D01*
X387012Y219272D01*
X386988Y219277D01*
X386955Y219296D01*
X386696Y219354D01*
X386658Y219351D01*
X386635Y219356D01*
X372976Y219356D01*
X373123Y220098D01*
X373774Y221670D01*
X374719Y223084D01*
X375922Y224287D01*
X377337Y225232D01*
X378168Y225576D01*
X378247Y225624D01*
X378330Y225664D01*
X378360Y225692D01*
X378395Y225714D01*
X378456Y225783D01*
X378524Y225846D01*
X378545Y225881D01*
X378572Y225912D01*
X378610Y225996D01*
X378656Y226076D01*
X378665Y226117D01*
X378682Y226154D01*
X378694Y226246D01*
X378714Y226336D01*
X378710Y226377D01*
X378716Y226418D01*
X378700Y226509D01*
X378692Y226601D01*
X378677Y226639D01*
X378670Y226680D01*
X378628Y226762D01*
X378593Y226848D01*
X378567Y226880D01*
X378548Y226916D01*
X378484Y226982D01*
X378426Y227054D01*
X378391Y227077D01*
X378362Y227106D01*
X378281Y227150D01*
X378204Y227201D01*
X378174Y227208D01*
X378129Y227233D01*
X377868Y227284D01*
X377848Y227281D01*
X377828Y227285D01*
X262620Y227285D01*
X262529Y227271D01*
X262437Y227266D01*
X262398Y227252D01*
X262358Y227245D01*
X262274Y227205D01*
X262188Y227173D01*
X262155Y227148D01*
X262118Y227130D01*
X262051Y227067D01*
X261978Y227010D01*
X261954Y226976D01*
X261924Y226948D01*
X261878Y226868D01*
X261825Y226793D01*
X261812Y226753D01*
X261792Y226718D01*
X261772Y226628D01*
X261744Y226540D01*
X261743Y226498D01*
X261734Y226458D01*
X261742Y226366D01*
X261741Y226274D01*
X261753Y226234D01*
X261756Y226193D01*
X261790Y226107D01*
X261817Y226019D01*
X261839Y225985D01*
X261855Y225946D01*
X261913Y225875D01*
X261964Y225798D01*
X261990Y225780D01*
X262022Y225740D01*
X262244Y225593D01*
X262264Y225588D01*
X262280Y225576D01*
X263111Y225232D01*
X264526Y224287D01*
X265729Y223084D01*
X266674Y221670D01*
X267325Y220098D01*
X267472Y219356D01*
X253813Y219356D01*
X253712Y219340D01*
X253609Y219332D01*
X253581Y219321D01*
X253550Y219316D01*
X253458Y219271D01*
X253363Y219233D01*
X253339Y219214D01*
X253311Y219200D01*
X253236Y219130D01*
X253156Y219065D01*
X253139Y219040D01*
X253117Y219019D01*
X253066Y218930D01*
X253009Y218844D01*
X253004Y218821D01*
X252985Y218788D01*
X252927Y218529D01*
X252930Y218491D01*
X252925Y218468D01*
X252925Y217578D01*
X252923Y217578D01*
X252923Y218468D01*
X252908Y218569D01*
X252899Y218671D01*
X252888Y218700D01*
X252883Y218730D01*
X252839Y218823D01*
X252800Y218918D01*
X252781Y218942D01*
X252768Y218970D01*
X252698Y219045D01*
X252633Y219124D01*
X252607Y219142D01*
X252586Y219164D01*
X252497Y219215D01*
X252412Y219272D01*
X252388Y219277D01*
X252355Y219296D01*
X252096Y219354D01*
X252058Y219351D01*
X252035Y219356D01*
X238376Y219356D01*
X238523Y220098D01*
X239174Y221670D01*
X240119Y223084D01*
X241322Y224287D01*
X242737Y225232D01*
X243568Y225576D01*
X243646Y225624D01*
X243730Y225664D01*
X243760Y225692D01*
X243795Y225714D01*
X243856Y225783D01*
X243924Y225846D01*
X243945Y225882D01*
X243972Y225912D01*
X244010Y225996D01*
X244056Y226076D01*
X244065Y226117D01*
X244082Y226154D01*
X244094Y226246D01*
X244114Y226336D01*
X244110Y226377D01*
X244116Y226418D01*
X244100Y226509D01*
X244092Y226601D01*
X244077Y226639D01*
X244070Y226680D01*
X244028Y226762D01*
X243993Y226848D01*
X243967Y226880D01*
X243948Y226916D01*
X243884Y226982D01*
X243826Y227054D01*
X243791Y227077D01*
X243762Y227106D01*
X243681Y227150D01*
X243604Y227201D01*
X243574Y227208D01*
X243529Y227233D01*
X243268Y227284D01*
X243248Y227281D01*
X243228Y227285D01*
X118113Y227285D01*
X118021Y227271D01*
X117929Y227266D01*
X117891Y227252D01*
X117850Y227245D01*
X117767Y227205D01*
X117680Y227173D01*
X117648Y227148D01*
X117611Y227130D01*
X117543Y227067D01*
X117470Y227010D01*
X117446Y226977D01*
X117416Y226948D01*
X117370Y226868D01*
X117317Y226793D01*
X117305Y226753D01*
X117284Y226718D01*
X117264Y226628D01*
X117236Y226540D01*
X117235Y226498D01*
X117226Y226458D01*
X117234Y226366D01*
X117233Y226274D01*
X117245Y226234D01*
X117248Y226193D01*
X117282Y226108D01*
X117309Y226019D01*
X117332Y225985D01*
X117347Y225946D01*
X117405Y225875D01*
X117457Y225798D01*
X117482Y225780D01*
X117515Y225740D01*
X117736Y225593D01*
X117756Y225588D01*
X117773Y225576D01*
X118603Y225232D01*
X120018Y224287D01*
X121221Y223084D01*
X122166Y221670D01*
X122817Y220098D01*
X122965Y219356D01*
X109305Y219356D01*
X109204Y219340D01*
X109102Y219332D01*
X109073Y219321D01*
X109043Y219316D01*
X108950Y219271D01*
X108855Y219233D01*
X108831Y219214D01*
X108803Y219200D01*
X108728Y219130D01*
X108649Y219065D01*
X108631Y219040D01*
X108609Y219019D01*
X108558Y218930D01*
X108501Y218844D01*
X108496Y218821D01*
X108477Y218788D01*
X108419Y218529D01*
X108422Y218491D01*
X108417Y218468D01*
X108417Y217578D01*
X108415Y217578D01*
X108415Y218468D01*
X108400Y218569D01*
X108392Y218671D01*
X108380Y218700D01*
X108376Y218730D01*
X108331Y218823D01*
X108293Y218918D01*
X108273Y218942D01*
X108260Y218970D01*
X108190Y219045D01*
X108125Y219124D01*
X108099Y219142D01*
X108078Y219164D01*
X107990Y219215D01*
X107904Y219272D01*
X107881Y219277D01*
X107848Y219296D01*
X107588Y219354D01*
X107550Y219351D01*
X107527Y219356D01*
X93868Y219356D01*
X94015Y220098D01*
X94667Y221670D01*
X95612Y223084D01*
X96815Y224287D01*
X98229Y225232D01*
X99060Y225576D01*
X99139Y225624D01*
X99222Y225664D01*
X99252Y225692D01*
X99287Y225714D01*
X99349Y225783D01*
X99416Y225846D01*
X99437Y225881D01*
X99464Y225912D01*
X99503Y225996D01*
X99548Y226076D01*
X99557Y226117D01*
X99574Y226154D01*
X99586Y226246D01*
X99606Y226336D01*
X99603Y226377D01*
X99608Y226418D01*
X99592Y226509D01*
X99584Y226601D01*
X99569Y226639D01*
X99562Y226680D01*
X99520Y226762D01*
X99485Y226848D01*
X99459Y226880D01*
X99441Y226916D01*
X99376Y226982D01*
X99318Y227054D01*
X99283Y227077D01*
X99255Y227106D01*
X99174Y227150D01*
X99097Y227201D01*
X99066Y227208D01*
X99021Y227233D01*
X98760Y227284D01*
X98740Y227281D01*
X98720Y227285D01*
X5969Y227285D01*
X5867Y227270D01*
X5765Y227262D01*
X5737Y227250D01*
X5706Y227245D01*
X5614Y227201D01*
X5518Y227163D01*
X5495Y227143D01*
X5467Y227130D01*
X5392Y227060D01*
X5312Y226995D01*
X5295Y226969D01*
X5273Y226948D01*
X5222Y226859D01*
X5165Y226774D01*
X5159Y226750D01*
X5141Y226718D01*
X5083Y226458D01*
X5086Y226420D01*
X5081Y226397D01*
X5081Y6223D01*
X5096Y6121D01*
X5104Y6019D01*
X5116Y5991D01*
X5121Y5960D01*
X5165Y5868D01*
X5203Y5772D01*
X5223Y5749D01*
X5236Y5721D01*
X5306Y5646D01*
X5371Y5566D01*
X5397Y5549D01*
X5418Y5527D01*
X5507Y5476D01*
X5592Y5419D01*
X5616Y5413D01*
X5648Y5395D01*
X5908Y5337D01*
X5946Y5340D01*
X5969Y5335D01*
X2214097Y5335D01*
X2214199Y5350D01*
G37*
%LPC*%
G36*
X1205003Y75310D02*
X1205003Y75310D01*
X1193192Y87121D01*
X1193192Y111309D01*
X1193189Y111330D01*
X1193191Y111351D01*
X1193169Y111461D01*
X1193152Y111572D01*
X1193143Y111591D01*
X1193139Y111612D01*
X1193115Y111650D01*
X1193037Y111811D01*
X1192960Y111894D01*
X1192932Y111937D01*
X1190879Y113991D01*
X1190879Y117966D01*
X1193690Y120777D01*
X1197665Y120777D01*
X1200476Y117966D01*
X1200476Y113991D01*
X1198280Y111795D01*
X1198267Y111778D01*
X1198251Y111764D01*
X1198189Y111671D01*
X1198122Y111581D01*
X1198115Y111561D01*
X1198104Y111543D01*
X1198094Y111499D01*
X1198035Y111330D01*
X1198031Y111217D01*
X1198020Y111167D01*
X1198020Y97225D01*
X1198027Y97174D01*
X1198026Y97122D01*
X1198047Y97043D01*
X1198060Y96962D01*
X1198082Y96915D01*
X1198096Y96865D01*
X1198140Y96796D01*
X1198175Y96722D01*
X1198211Y96685D01*
X1198238Y96641D01*
X1198301Y96588D01*
X1198357Y96528D01*
X1198401Y96503D01*
X1198441Y96469D01*
X1198516Y96437D01*
X1198587Y96396D01*
X1198638Y96385D01*
X1198685Y96365D01*
X1198767Y96356D01*
X1198847Y96338D01*
X1198898Y96343D01*
X1198950Y96337D01*
X1199030Y96353D01*
X1199112Y96360D01*
X1199160Y96379D01*
X1199210Y96389D01*
X1199254Y96417D01*
X1199359Y96459D01*
X1199498Y96572D01*
X1199536Y96597D01*
X1200194Y97255D01*
X1203199Y97255D01*
X1203220Y97258D01*
X1203241Y97256D01*
X1203351Y97278D01*
X1203462Y97295D01*
X1203481Y97304D01*
X1203502Y97308D01*
X1203540Y97332D01*
X1203701Y97410D01*
X1203784Y97487D01*
X1203827Y97515D01*
X1214493Y108180D01*
X1214554Y108263D01*
X1214620Y108341D01*
X1214632Y108369D01*
X1214651Y108394D01*
X1214684Y108491D01*
X1214725Y108586D01*
X1214728Y108616D01*
X1214738Y108645D01*
X1214741Y108748D01*
X1214752Y108850D01*
X1214746Y108880D01*
X1214747Y108911D01*
X1214720Y109010D01*
X1214700Y109111D01*
X1214687Y109131D01*
X1214677Y109167D01*
X1214535Y109392D01*
X1214506Y109416D01*
X1214493Y109436D01*
X1212267Y111662D01*
X1211107Y114463D01*
X1211107Y117494D01*
X1212267Y120295D01*
X1214411Y122439D01*
X1217212Y123599D01*
X1232485Y123599D01*
X1232492Y123597D01*
X1232533Y123595D01*
X1232573Y123585D01*
X1232665Y123591D01*
X1232758Y123588D01*
X1232798Y123598D01*
X1232839Y123601D01*
X1232925Y123633D01*
X1233014Y123657D01*
X1233049Y123679D01*
X1233088Y123694D01*
X1233161Y123750D01*
X1233239Y123800D01*
X1233265Y123831D01*
X1233298Y123856D01*
X1233351Y123932D01*
X1233411Y124003D01*
X1233427Y124040D01*
X1233451Y124074D01*
X1233479Y124162D01*
X1233515Y124247D01*
X1233519Y124288D01*
X1233532Y124327D01*
X1233533Y124419D01*
X1233543Y124512D01*
X1233535Y124552D01*
X1233535Y124593D01*
X1233509Y124681D01*
X1233491Y124772D01*
X1233474Y124798D01*
X1233459Y124848D01*
X1233311Y125069D01*
X1233295Y125080D01*
X1233283Y125098D01*
X1232881Y125500D01*
X1232878Y125523D01*
X1232876Y125601D01*
X1232860Y125638D01*
X1232849Y125709D01*
X1232734Y125948D01*
X1232729Y125953D01*
X1232727Y125958D01*
X1227502Y133381D01*
X1227435Y133451D01*
X1227374Y133526D01*
X1227343Y133547D01*
X1227318Y133573D01*
X1227233Y133620D01*
X1227152Y133674D01*
X1227125Y133680D01*
X1227086Y133702D01*
X1226826Y133756D01*
X1226795Y133754D01*
X1226776Y133758D01*
X1217212Y133758D01*
X1214411Y134918D01*
X1212267Y137062D01*
X1211107Y139863D01*
X1211107Y142894D01*
X1212267Y145695D01*
X1214411Y147839D01*
X1217212Y148999D01*
X1232436Y148999D01*
X1235237Y147839D01*
X1236679Y146397D01*
X1236721Y146366D01*
X1236756Y146328D01*
X1236827Y146288D01*
X1236893Y146239D01*
X1236942Y146222D01*
X1236987Y146196D01*
X1237067Y146179D01*
X1237144Y146152D01*
X1237196Y146150D01*
X1237246Y146139D01*
X1237328Y146145D01*
X1237410Y146142D01*
X1237460Y146156D01*
X1237511Y146160D01*
X1237587Y146191D01*
X1237666Y146212D01*
X1237710Y146240D01*
X1237758Y146259D01*
X1237822Y146311D01*
X1237891Y146355D01*
X1237924Y146394D01*
X1237964Y146427D01*
X1238010Y146495D01*
X1238063Y146558D01*
X1238083Y146605D01*
X1238112Y146648D01*
X1238123Y146698D01*
X1238167Y146802D01*
X1238186Y146980D01*
X1238196Y147025D01*
X1238196Y161132D01*
X1238188Y161183D01*
X1238190Y161235D01*
X1238168Y161314D01*
X1238156Y161395D01*
X1238133Y161442D01*
X1238120Y161491D01*
X1238076Y161561D01*
X1238040Y161635D01*
X1238005Y161672D01*
X1237977Y161716D01*
X1237915Y161769D01*
X1237859Y161829D01*
X1237814Y161854D01*
X1237774Y161888D01*
X1237699Y161920D01*
X1237628Y161961D01*
X1237578Y161972D01*
X1237530Y161992D01*
X1237448Y162001D01*
X1237368Y162019D01*
X1237317Y162014D01*
X1237266Y162020D01*
X1237185Y162004D01*
X1237103Y161997D01*
X1237056Y161978D01*
X1237005Y161968D01*
X1236961Y161940D01*
X1236857Y161898D01*
X1236718Y161785D01*
X1236679Y161760D01*
X1235237Y160318D01*
X1232436Y159158D01*
X1217212Y159158D01*
X1214411Y160318D01*
X1212267Y162462D01*
X1211107Y165263D01*
X1211107Y168294D01*
X1212267Y171095D01*
X1214411Y173239D01*
X1217212Y174399D01*
X1231463Y174399D01*
X1231514Y174407D01*
X1231566Y174405D01*
X1231645Y174427D01*
X1231726Y174439D01*
X1231772Y174462D01*
X1231822Y174475D01*
X1231892Y174519D01*
X1231965Y174555D01*
X1232003Y174590D01*
X1232047Y174618D01*
X1232100Y174680D01*
X1232160Y174736D01*
X1232185Y174781D01*
X1232219Y174820D01*
X1232251Y174896D01*
X1232292Y174967D01*
X1232303Y175017D01*
X1232323Y175065D01*
X1232332Y175146D01*
X1232349Y175226D01*
X1232345Y175278D01*
X1232350Y175329D01*
X1232334Y175410D01*
X1232328Y175491D01*
X1232309Y175539D01*
X1232298Y175590D01*
X1232271Y175633D01*
X1232229Y175738D01*
X1232116Y175877D01*
X1232091Y175916D01*
X1223709Y184298D01*
X1223692Y184310D01*
X1223679Y184326D01*
X1223586Y184389D01*
X1223495Y184455D01*
X1223475Y184462D01*
X1223458Y184474D01*
X1223413Y184484D01*
X1223244Y184543D01*
X1223131Y184547D01*
X1223081Y184558D01*
X1217212Y184558D01*
X1214411Y185718D01*
X1212267Y187862D01*
X1211107Y190663D01*
X1211107Y193694D01*
X1212267Y196495D01*
X1214411Y198639D01*
X1217212Y199799D01*
X1232436Y199799D01*
X1235237Y198639D01*
X1237381Y196495D01*
X1238541Y193694D01*
X1238541Y190663D01*
X1237381Y187862D01*
X1235237Y185718D01*
X1232436Y184558D01*
X1232421Y184558D01*
X1232370Y184550D01*
X1232318Y184552D01*
X1232239Y184530D01*
X1232158Y184518D01*
X1232111Y184496D01*
X1232061Y184482D01*
X1231992Y184438D01*
X1231918Y184402D01*
X1231881Y184367D01*
X1231837Y184339D01*
X1231784Y184277D01*
X1231724Y184221D01*
X1231698Y184176D01*
X1231665Y184137D01*
X1231633Y184061D01*
X1231592Y183990D01*
X1231581Y183940D01*
X1231561Y183892D01*
X1231552Y183811D01*
X1231534Y183731D01*
X1231539Y183679D01*
X1231533Y183628D01*
X1231549Y183547D01*
X1231556Y183466D01*
X1231575Y183418D01*
X1231585Y183367D01*
X1231613Y183324D01*
X1231655Y183219D01*
X1231768Y183080D01*
X1231792Y183042D01*
X1243023Y171811D01*
X1243023Y140486D01*
X1243026Y140466D01*
X1243024Y140445D01*
X1243046Y140334D01*
X1243063Y140224D01*
X1243072Y140205D01*
X1243076Y140184D01*
X1243101Y140146D01*
X1243179Y139984D01*
X1243255Y139902D01*
X1243283Y139858D01*
X1246102Y137040D01*
X1246111Y137033D01*
X1246116Y137027D01*
X1246122Y137023D01*
X1246132Y137011D01*
X1246225Y136949D01*
X1246316Y136882D01*
X1246335Y136875D01*
X1246353Y136864D01*
X1246397Y136854D01*
X1246567Y136795D01*
X1246679Y136791D01*
X1246730Y136780D01*
X1318666Y136780D01*
X1322551Y132895D01*
X1322551Y98622D01*
X1322554Y98601D01*
X1322552Y98580D01*
X1322574Y98470D01*
X1322591Y98359D01*
X1322600Y98340D01*
X1322604Y98319D01*
X1322628Y98281D01*
X1322706Y98120D01*
X1322783Y98037D01*
X1322811Y97994D01*
X1325091Y95714D01*
X1325091Y91738D01*
X1322280Y88927D01*
X1318304Y88927D01*
X1315493Y91738D01*
X1315493Y95714D01*
X1317463Y97684D01*
X1317476Y97700D01*
X1317492Y97714D01*
X1317554Y97807D01*
X1317621Y97898D01*
X1317628Y97917D01*
X1317639Y97935D01*
X1317649Y97979D01*
X1317708Y98149D01*
X1317712Y98261D01*
X1317723Y98312D01*
X1317723Y120834D01*
X1317716Y120886D01*
X1317717Y120937D01*
X1317701Y120999D01*
X1317700Y121011D01*
X1317695Y121023D01*
X1317683Y121097D01*
X1317661Y121144D01*
X1317647Y121194D01*
X1317603Y121263D01*
X1317568Y121337D01*
X1317532Y121374D01*
X1317505Y121418D01*
X1317442Y121471D01*
X1317386Y121531D01*
X1317341Y121557D01*
X1317302Y121590D01*
X1317226Y121622D01*
X1317156Y121663D01*
X1317105Y121674D01*
X1317057Y121694D01*
X1316976Y121703D01*
X1316896Y121721D01*
X1316844Y121716D01*
X1316793Y121722D01*
X1316713Y121706D01*
X1316631Y121699D01*
X1316617Y121693D01*
X1312462Y121693D01*
X1310337Y123818D01*
X1310321Y123831D01*
X1310307Y123847D01*
X1310214Y123909D01*
X1310123Y123976D01*
X1310104Y123983D01*
X1310086Y123994D01*
X1310042Y124004D01*
X1309872Y124063D01*
X1309760Y124067D01*
X1309709Y124078D01*
X1236348Y124078D01*
X1236271Y124067D01*
X1236194Y124065D01*
X1236156Y124049D01*
X1236086Y124038D01*
X1235846Y123923D01*
X1235842Y123918D01*
X1235792Y123920D01*
X1235786Y123919D01*
X1235781Y123919D01*
X1235659Y123884D01*
X1235535Y123850D01*
X1235530Y123847D01*
X1235525Y123846D01*
X1235419Y123776D01*
X1235311Y123708D01*
X1235307Y123703D01*
X1235303Y123700D01*
X1235222Y123603D01*
X1235139Y123505D01*
X1235137Y123500D01*
X1235133Y123495D01*
X1235085Y123378D01*
X1235034Y123260D01*
X1235034Y123255D01*
X1235032Y123250D01*
X1235020Y123123D01*
X1235007Y122996D01*
X1235008Y122991D01*
X1235008Y122985D01*
X1235034Y122861D01*
X1235059Y122735D01*
X1235062Y122732D01*
X1235063Y122725D01*
X1235193Y122493D01*
X1235245Y122444D01*
X1235266Y122410D01*
X1237381Y120295D01*
X1237942Y118941D01*
X1237974Y118888D01*
X1237997Y118830D01*
X1238042Y118774D01*
X1238079Y118713D01*
X1238125Y118672D01*
X1238164Y118624D01*
X1238224Y118584D01*
X1238278Y118536D01*
X1238334Y118511D01*
X1238386Y118476D01*
X1238433Y118466D01*
X1238519Y118426D01*
X1238732Y118399D01*
X1238762Y118392D01*
X1299958Y118392D01*
X1299979Y118395D01*
X1300000Y118393D01*
X1300110Y118415D01*
X1300221Y118432D01*
X1300240Y118441D01*
X1300260Y118445D01*
X1300299Y118470D01*
X1300460Y118548D01*
X1300543Y118625D01*
X1300586Y118652D01*
X1301286Y119353D01*
X1305262Y119353D01*
X1308073Y116542D01*
X1308073Y112566D01*
X1305262Y109755D01*
X1302386Y109755D01*
X1302284Y109740D01*
X1302182Y109732D01*
X1302154Y109720D01*
X1302123Y109715D01*
X1302031Y109671D01*
X1301935Y109633D01*
X1301912Y109613D01*
X1301884Y109600D01*
X1301809Y109530D01*
X1301729Y109465D01*
X1301712Y109439D01*
X1301690Y109418D01*
X1301639Y109329D01*
X1301582Y109244D01*
X1301576Y109220D01*
X1301558Y109188D01*
X1301500Y108928D01*
X1301503Y108890D01*
X1301498Y108867D01*
X1301498Y105483D01*
X1298687Y102672D01*
X1294711Y102672D01*
X1292715Y104669D01*
X1292698Y104681D01*
X1292685Y104697D01*
X1292591Y104760D01*
X1292501Y104826D01*
X1292481Y104833D01*
X1292464Y104845D01*
X1292419Y104855D01*
X1292250Y104914D01*
X1292137Y104918D01*
X1292087Y104929D01*
X1291858Y104929D01*
X1291807Y104921D01*
X1291755Y104923D01*
X1291676Y104901D01*
X1291595Y104889D01*
X1291549Y104867D01*
X1291499Y104853D01*
X1291430Y104809D01*
X1291356Y104773D01*
X1291318Y104738D01*
X1291275Y104710D01*
X1291221Y104648D01*
X1291162Y104592D01*
X1291136Y104547D01*
X1291103Y104508D01*
X1291070Y104432D01*
X1291030Y104361D01*
X1291018Y104311D01*
X1290998Y104263D01*
X1290990Y104182D01*
X1290972Y104102D01*
X1290976Y104050D01*
X1290971Y103999D01*
X1290987Y103918D01*
X1290993Y103837D01*
X1291013Y103789D01*
X1291023Y103738D01*
X1291050Y103695D01*
X1291092Y103590D01*
X1291205Y103451D01*
X1291230Y103413D01*
X1293087Y101556D01*
X1293087Y97580D01*
X1290276Y94769D01*
X1286300Y94769D01*
X1284175Y96894D01*
X1284159Y96907D01*
X1284145Y96923D01*
X1284052Y96985D01*
X1283961Y97052D01*
X1283942Y97059D01*
X1283924Y97070D01*
X1283880Y97080D01*
X1283710Y97139D01*
X1283598Y97143D01*
X1283547Y97154D01*
X1237266Y97154D01*
X1237215Y97147D01*
X1237163Y97148D01*
X1237084Y97127D01*
X1237003Y97114D01*
X1236957Y97092D01*
X1236907Y97078D01*
X1236838Y97034D01*
X1236764Y96999D01*
X1236726Y96963D01*
X1236683Y96936D01*
X1236630Y96873D01*
X1236570Y96817D01*
X1236544Y96773D01*
X1236511Y96733D01*
X1236478Y96658D01*
X1236438Y96587D01*
X1236426Y96536D01*
X1236406Y96489D01*
X1236398Y96407D01*
X1236380Y96327D01*
X1236384Y96276D01*
X1236379Y96224D01*
X1236395Y96144D01*
X1236402Y96062D01*
X1236421Y96014D01*
X1236431Y95964D01*
X1236459Y95920D01*
X1236501Y95815D01*
X1236614Y95676D01*
X1236638Y95638D01*
X1237381Y94895D01*
X1238541Y92094D01*
X1238541Y89063D01*
X1237381Y86262D01*
X1235237Y84118D01*
X1232436Y82958D01*
X1217212Y82958D01*
X1214411Y84118D01*
X1212267Y86262D01*
X1211107Y89063D01*
X1211107Y92094D01*
X1212267Y94895D01*
X1214411Y97039D01*
X1217212Y98199D01*
X1225455Y98199D01*
X1225481Y98203D01*
X1225508Y98201D01*
X1225613Y98223D01*
X1225718Y98239D01*
X1225742Y98251D01*
X1225768Y98257D01*
X1225861Y98309D01*
X1225957Y98355D01*
X1225977Y98373D01*
X1226000Y98387D01*
X1226032Y98425D01*
X1226151Y98536D01*
X1226213Y98644D01*
X1226246Y98684D01*
X1226895Y99958D01*
X1226900Y99972D01*
X1226908Y99984D01*
X1226917Y100022D01*
X1226923Y100040D01*
X1226932Y100057D01*
X1226940Y100093D01*
X1226979Y100210D01*
X1226980Y100274D01*
X1226990Y100316D01*
X1226988Y100342D01*
X1226992Y100361D01*
X1226992Y100568D01*
X1227329Y100905D01*
X1227487Y101119D01*
X1227489Y101126D01*
X1227493Y101130D01*
X1227709Y101555D01*
X1227906Y101619D01*
X1227919Y101625D01*
X1227934Y101628D01*
X1227966Y101649D01*
X1228144Y101738D01*
X1228218Y101809D01*
X1228260Y101835D01*
X1228406Y101982D01*
X1228883Y101982D01*
X1229146Y102022D01*
X1229152Y102025D01*
X1229157Y102025D01*
X1229611Y102173D01*
X1229795Y102079D01*
X1229809Y102074D01*
X1229822Y102066D01*
X1229860Y102057D01*
X1230047Y101995D01*
X1230150Y101993D01*
X1230199Y101982D01*
X1283547Y101982D01*
X1283568Y101985D01*
X1283589Y101983D01*
X1283699Y102005D01*
X1283810Y102022D01*
X1283829Y102031D01*
X1283850Y102035D01*
X1283888Y102059D01*
X1284049Y102137D01*
X1284132Y102214D01*
X1284175Y102242D01*
X1285346Y103413D01*
X1285377Y103454D01*
X1285414Y103489D01*
X1285455Y103560D01*
X1285504Y103626D01*
X1285521Y103675D01*
X1285546Y103720D01*
X1285564Y103800D01*
X1285591Y103878D01*
X1285593Y103929D01*
X1285604Y103980D01*
X1285598Y104061D01*
X1285600Y104143D01*
X1285587Y104193D01*
X1285583Y104244D01*
X1285552Y104321D01*
X1285530Y104400D01*
X1285503Y104443D01*
X1285484Y104491D01*
X1285432Y104555D01*
X1285388Y104624D01*
X1285349Y104657D01*
X1285316Y104697D01*
X1285248Y104743D01*
X1285185Y104796D01*
X1285138Y104816D01*
X1285095Y104845D01*
X1285044Y104856D01*
X1284941Y104900D01*
X1284762Y104919D01*
X1284718Y104929D01*
X1218436Y104929D01*
X1218416Y104926D01*
X1218395Y104928D01*
X1218284Y104906D01*
X1218174Y104889D01*
X1218155Y104880D01*
X1218134Y104876D01*
X1218095Y104851D01*
X1217934Y104773D01*
X1217852Y104696D01*
X1217808Y104669D01*
X1207241Y94101D01*
X1207228Y94084D01*
X1207212Y94071D01*
X1207150Y93978D01*
X1207083Y93887D01*
X1207076Y93868D01*
X1207065Y93850D01*
X1207055Y93806D01*
X1206996Y93636D01*
X1206992Y93524D01*
X1206981Y93473D01*
X1206981Y90468D01*
X1204170Y87657D01*
X1201628Y87657D01*
X1201577Y87650D01*
X1201525Y87651D01*
X1201446Y87630D01*
X1201365Y87617D01*
X1201318Y87595D01*
X1201269Y87581D01*
X1201199Y87537D01*
X1201125Y87502D01*
X1201088Y87467D01*
X1201044Y87439D01*
X1200991Y87376D01*
X1200931Y87320D01*
X1200906Y87276D01*
X1200872Y87236D01*
X1200840Y87161D01*
X1200799Y87090D01*
X1200788Y87039D01*
X1200768Y86992D01*
X1200759Y86910D01*
X1200741Y86830D01*
X1200746Y86779D01*
X1200740Y86727D01*
X1200756Y86647D01*
X1200763Y86565D01*
X1200782Y86517D01*
X1200792Y86467D01*
X1200820Y86423D01*
X1200862Y86318D01*
X1200975Y86179D01*
X1201000Y86141D01*
X1206743Y80398D01*
X1206759Y80385D01*
X1206773Y80369D01*
X1206866Y80307D01*
X1206957Y80240D01*
X1206976Y80233D01*
X1206994Y80222D01*
X1207038Y80212D01*
X1207208Y80153D01*
X1207320Y80149D01*
X1207371Y80138D01*
X1233834Y80138D01*
X1233855Y80141D01*
X1233876Y80139D01*
X1233986Y80161D01*
X1234097Y80178D01*
X1234116Y80187D01*
X1234137Y80191D01*
X1234175Y80215D01*
X1234336Y80293D01*
X1234419Y80370D01*
X1234462Y80398D01*
X1243854Y89790D01*
X1271863Y89790D01*
X1271884Y89793D01*
X1271905Y89791D01*
X1272015Y89813D01*
X1272126Y89830D01*
X1272145Y89839D01*
X1272166Y89843D01*
X1272204Y89867D01*
X1272365Y89945D01*
X1272448Y90022D01*
X1272491Y90050D01*
X1274616Y92175D01*
X1278592Y92175D01*
X1281403Y89364D01*
X1281403Y85388D01*
X1278592Y82577D01*
X1274616Y82577D01*
X1272491Y84702D01*
X1272475Y84715D01*
X1272461Y84731D01*
X1272368Y84793D01*
X1272277Y84860D01*
X1272258Y84867D01*
X1272240Y84878D01*
X1272196Y84888D01*
X1272026Y84947D01*
X1271914Y84951D01*
X1271863Y84962D01*
X1246222Y84962D01*
X1246201Y84959D01*
X1246180Y84961D01*
X1246070Y84939D01*
X1245959Y84922D01*
X1245940Y84913D01*
X1245919Y84909D01*
X1245881Y84885D01*
X1245720Y84807D01*
X1245637Y84730D01*
X1245594Y84702D01*
X1236202Y75310D01*
X1205003Y75310D01*
G37*
%LPD*%
%LPC*%
G36*
X1390694Y75211D02*
X1390694Y75211D01*
X1387883Y78022D01*
X1387883Y81998D01*
X1390008Y84123D01*
X1390021Y84139D01*
X1390037Y84153D01*
X1390099Y84246D01*
X1390166Y84337D01*
X1390173Y84356D01*
X1390184Y84374D01*
X1390194Y84418D01*
X1390253Y84588D01*
X1390257Y84700D01*
X1390268Y84751D01*
X1390268Y101345D01*
X1390461Y101537D01*
X1390489Y101576D01*
X1390518Y101603D01*
X1390519Y101604D01*
X1390529Y101614D01*
X1390570Y101685D01*
X1390618Y101751D01*
X1390635Y101800D01*
X1390661Y101844D01*
X1390679Y101924D01*
X1390706Y102002D01*
X1390707Y102054D01*
X1390719Y102104D01*
X1390712Y102186D01*
X1390715Y102268D01*
X1390701Y102317D01*
X1390697Y102369D01*
X1390666Y102445D01*
X1390645Y102524D01*
X1390617Y102567D01*
X1390598Y102616D01*
X1390546Y102679D01*
X1390502Y102748D01*
X1390463Y102782D01*
X1390430Y102822D01*
X1390362Y102867D01*
X1390300Y102920D01*
X1390252Y102941D01*
X1390209Y102969D01*
X1390159Y102981D01*
X1390055Y103025D01*
X1389877Y103043D01*
X1389832Y103053D01*
X1389014Y103053D01*
X1386203Y105864D01*
X1386203Y109840D01*
X1389014Y112651D01*
X1390805Y112651D01*
X1390907Y112666D01*
X1391009Y112674D01*
X1391037Y112686D01*
X1391068Y112691D01*
X1391160Y112735D01*
X1391256Y112773D01*
X1391279Y112793D01*
X1391307Y112806D01*
X1391382Y112876D01*
X1391462Y112941D01*
X1391479Y112967D01*
X1391501Y112988D01*
X1391552Y113077D01*
X1391609Y113162D01*
X1391615Y113186D01*
X1391633Y113218D01*
X1391691Y113478D01*
X1391688Y113516D01*
X1391693Y113539D01*
X1391693Y117050D01*
X1394504Y119861D01*
X1398480Y119861D01*
X1400605Y117736D01*
X1400621Y117723D01*
X1400635Y117707D01*
X1400728Y117645D01*
X1400819Y117578D01*
X1400838Y117571D01*
X1400856Y117560D01*
X1400900Y117550D01*
X1401070Y117491D01*
X1401182Y117487D01*
X1401233Y117476D01*
X1479127Y117476D01*
X1479148Y117479D01*
X1479169Y117477D01*
X1479279Y117499D01*
X1479390Y117516D01*
X1479409Y117525D01*
X1479430Y117529D01*
X1479468Y117553D01*
X1479629Y117631D01*
X1479712Y117708D01*
X1479755Y117736D01*
X1481880Y119861D01*
X1485856Y119861D01*
X1488667Y117050D01*
X1488667Y112719D01*
X1488674Y112668D01*
X1488673Y112616D01*
X1488694Y112537D01*
X1488707Y112456D01*
X1488729Y112409D01*
X1488743Y112360D01*
X1488787Y112290D01*
X1488822Y112217D01*
X1488858Y112179D01*
X1488885Y112135D01*
X1488948Y112082D01*
X1489004Y112022D01*
X1489048Y111997D01*
X1489088Y111963D01*
X1489163Y111931D01*
X1489234Y111890D01*
X1489285Y111879D01*
X1489332Y111859D01*
X1489414Y111850D01*
X1489494Y111833D01*
X1489545Y111837D01*
X1489597Y111831D01*
X1489677Y111847D01*
X1489759Y111854D01*
X1489807Y111873D01*
X1489857Y111883D01*
X1489901Y111911D01*
X1490006Y111953D01*
X1490145Y112066D01*
X1490183Y112091D01*
X1491001Y112909D01*
X1491014Y112925D01*
X1491030Y112939D01*
X1491092Y113033D01*
X1491159Y113123D01*
X1491166Y113142D01*
X1491177Y113160D01*
X1491187Y113205D01*
X1491246Y113374D01*
X1491250Y113486D01*
X1491261Y113537D01*
X1491261Y116542D01*
X1494072Y119353D01*
X1498048Y119353D01*
X1500859Y116542D01*
X1500859Y112566D01*
X1498048Y109755D01*
X1495043Y109755D01*
X1495022Y109752D01*
X1495001Y109754D01*
X1494891Y109732D01*
X1494780Y109715D01*
X1494761Y109706D01*
X1494740Y109702D01*
X1494702Y109678D01*
X1494541Y109600D01*
X1494458Y109523D01*
X1494415Y109495D01*
X1493752Y108832D01*
X1493721Y108791D01*
X1493683Y108755D01*
X1493643Y108684D01*
X1493594Y108618D01*
X1493577Y108569D01*
X1493551Y108525D01*
X1493533Y108445D01*
X1493507Y108367D01*
X1493505Y108315D01*
X1493494Y108265D01*
X1493500Y108183D01*
X1493497Y108101D01*
X1493511Y108052D01*
X1493515Y108000D01*
X1493546Y107924D01*
X1493567Y107845D01*
X1493595Y107801D01*
X1493614Y107753D01*
X1493666Y107690D01*
X1493710Y107621D01*
X1493749Y107587D01*
X1493782Y107547D01*
X1493850Y107502D01*
X1493912Y107449D01*
X1493960Y107428D01*
X1494003Y107400D01*
X1494053Y107388D01*
X1494157Y107344D01*
X1494335Y107326D01*
X1494380Y107316D01*
X1498756Y107316D01*
X1498777Y107319D01*
X1498798Y107317D01*
X1498908Y107339D01*
X1499019Y107356D01*
X1499038Y107365D01*
X1499059Y107369D01*
X1499097Y107393D01*
X1499258Y107471D01*
X1499341Y107548D01*
X1499384Y107576D01*
X1504463Y112655D01*
X1504476Y112672D01*
X1504492Y112685D01*
X1504554Y112778D01*
X1504621Y112869D01*
X1504628Y112888D01*
X1504639Y112906D01*
X1504649Y112950D01*
X1504708Y113120D01*
X1504712Y113232D01*
X1504723Y113283D01*
X1504723Y116288D01*
X1507534Y119099D01*
X1511510Y119099D01*
X1514321Y116288D01*
X1514321Y112564D01*
X1514328Y112513D01*
X1514327Y112461D01*
X1514348Y112382D01*
X1514361Y112301D01*
X1514383Y112254D01*
X1514397Y112205D01*
X1514441Y112135D01*
X1514476Y112062D01*
X1514512Y112024D01*
X1514539Y111980D01*
X1514602Y111927D01*
X1514658Y111867D01*
X1514703Y111842D01*
X1514742Y111808D01*
X1514817Y111776D01*
X1514888Y111735D01*
X1514939Y111724D01*
X1514986Y111704D01*
X1515068Y111695D01*
X1515148Y111678D01*
X1515199Y111682D01*
X1515251Y111676D01*
X1515331Y111692D01*
X1515413Y111699D01*
X1515461Y111718D01*
X1515511Y111728D01*
X1515555Y111756D01*
X1515660Y111798D01*
X1515799Y111911D01*
X1515837Y111936D01*
X1516401Y112500D01*
X1516414Y112516D01*
X1516430Y112530D01*
X1516492Y112624D01*
X1516559Y112714D01*
X1516566Y112733D01*
X1516577Y112751D01*
X1516587Y112796D01*
X1516646Y112965D01*
X1516650Y113077D01*
X1516661Y113128D01*
X1516661Y116133D01*
X1519472Y118944D01*
X1523448Y118944D01*
X1526259Y116133D01*
X1526259Y112157D01*
X1523448Y109346D01*
X1520443Y109346D01*
X1520422Y109343D01*
X1520401Y109345D01*
X1520291Y109323D01*
X1520180Y109306D01*
X1520161Y109297D01*
X1520140Y109293D01*
X1520102Y109269D01*
X1519941Y109191D01*
X1519858Y109114D01*
X1519815Y109086D01*
X1509915Y99186D01*
X1402842Y99186D01*
X1402740Y99171D01*
X1402638Y99163D01*
X1402610Y99151D01*
X1402579Y99146D01*
X1402487Y99102D01*
X1402391Y99064D01*
X1402368Y99044D01*
X1402340Y99031D01*
X1402265Y98961D01*
X1402185Y98896D01*
X1402168Y98870D01*
X1402146Y98849D01*
X1402095Y98760D01*
X1402038Y98675D01*
X1402032Y98651D01*
X1402014Y98619D01*
X1401956Y98359D01*
X1401959Y98321D01*
X1401954Y98298D01*
X1401954Y91609D01*
X1401957Y91588D01*
X1401955Y91567D01*
X1401977Y91457D01*
X1401994Y91346D01*
X1402003Y91327D01*
X1402007Y91306D01*
X1402031Y91268D01*
X1402109Y91107D01*
X1402186Y91024D01*
X1402214Y90981D01*
X1404339Y88856D01*
X1404339Y84880D01*
X1401528Y82069D01*
X1398369Y82069D01*
X1398267Y82054D01*
X1398165Y82046D01*
X1398137Y82034D01*
X1398106Y82029D01*
X1398014Y81985D01*
X1397918Y81947D01*
X1397895Y81927D01*
X1397867Y81914D01*
X1397792Y81844D01*
X1397712Y81779D01*
X1397695Y81753D01*
X1397673Y81732D01*
X1397622Y81643D01*
X1397565Y81558D01*
X1397559Y81534D01*
X1397541Y81502D01*
X1397483Y81242D01*
X1397486Y81204D01*
X1397481Y81181D01*
X1397481Y78022D01*
X1394670Y75211D01*
X1390694Y75211D01*
G37*
%LPD*%
%LPC*%
G36*
X1141012Y32158D02*
X1141012Y32158D01*
X1138211Y33318D01*
X1136067Y35462D01*
X1134907Y38263D01*
X1134907Y41294D01*
X1136067Y44095D01*
X1138211Y46239D01*
X1141012Y47399D01*
X1156236Y47399D01*
X1157671Y46805D01*
X1157731Y46790D01*
X1157788Y46766D01*
X1157859Y46758D01*
X1157929Y46741D01*
X1157991Y46745D01*
X1158052Y46738D01*
X1158123Y46752D01*
X1158194Y46757D01*
X1158252Y46778D01*
X1158313Y46790D01*
X1158354Y46816D01*
X1158443Y46850D01*
X1158612Y46981D01*
X1158639Y46998D01*
X1175505Y63864D01*
X1175518Y63881D01*
X1175534Y63894D01*
X1175596Y63988D01*
X1175663Y64078D01*
X1175670Y64098D01*
X1175681Y64115D01*
X1175691Y64160D01*
X1175750Y64329D01*
X1175754Y64442D01*
X1175765Y64492D01*
X1175765Y200773D01*
X1175762Y200794D01*
X1175764Y200815D01*
X1175745Y200911D01*
X1175742Y200954D01*
X1175736Y200968D01*
X1175725Y201036D01*
X1175716Y201055D01*
X1175712Y201075D01*
X1175688Y201114D01*
X1175610Y201275D01*
X1175539Y201351D01*
X1175539Y205342D01*
X1178350Y208153D01*
X1182326Y208153D01*
X1185137Y205342D01*
X1185137Y201363D01*
X1185080Y201277D01*
X1185013Y201187D01*
X1185006Y201167D01*
X1184995Y201150D01*
X1184985Y201105D01*
X1184976Y201079D01*
X1184971Y201070D01*
X1184967Y201055D01*
X1184926Y200936D01*
X1184923Y200857D01*
X1184913Y200811D01*
X1184915Y200790D01*
X1184911Y200773D01*
X1184911Y60336D01*
X1181972Y57397D01*
X1162114Y37540D01*
X1161957Y37326D01*
X1161940Y37277D01*
X1161922Y37251D01*
X1161181Y35462D01*
X1159037Y33318D01*
X1156236Y32158D01*
X1141012Y32158D01*
G37*
%LPD*%
%LPC*%
G36*
X24604Y133758D02*
X24604Y133758D01*
X21804Y134918D01*
X19660Y137062D01*
X18500Y139863D01*
X18500Y142894D01*
X19660Y145695D01*
X21573Y147609D01*
X21604Y147650D01*
X21642Y147686D01*
X21682Y147757D01*
X21731Y147823D01*
X21748Y147872D01*
X21774Y147916D01*
X21791Y147996D01*
X21818Y148074D01*
X21820Y148126D01*
X21831Y148176D01*
X21825Y148258D01*
X21828Y148340D01*
X21814Y148389D01*
X21810Y148441D01*
X21779Y148517D01*
X21758Y148596D01*
X21730Y148640D01*
X21711Y148688D01*
X21659Y148751D01*
X21615Y148820D01*
X21576Y148854D01*
X21543Y148894D01*
X21475Y148939D01*
X21412Y148992D01*
X21365Y149013D01*
X21322Y149041D01*
X21272Y149053D01*
X21168Y149097D01*
X20990Y149115D01*
X20945Y149125D01*
X20590Y149125D01*
X17779Y151936D01*
X17779Y154941D01*
X17776Y154962D01*
X17778Y154983D01*
X17756Y155093D01*
X17739Y155204D01*
X17730Y155223D01*
X17726Y155244D01*
X17702Y155282D01*
X17624Y155443D01*
X17547Y155526D01*
X17519Y155569D01*
X13928Y159161D01*
X13928Y212101D01*
X18239Y216413D01*
X18252Y216430D01*
X18268Y216443D01*
X18331Y216537D01*
X18397Y216627D01*
X18404Y216647D01*
X18416Y216665D01*
X18426Y216709D01*
X18484Y216878D01*
X18488Y216991D01*
X18500Y217041D01*
X18500Y219094D01*
X19660Y221895D01*
X21804Y224039D01*
X24604Y225199D01*
X39828Y225199D01*
X42629Y224039D01*
X44773Y221895D01*
X45933Y219094D01*
X45933Y216063D01*
X44773Y213262D01*
X42629Y211118D01*
X39828Y209958D01*
X24604Y209958D01*
X21803Y211118D01*
X21415Y211506D01*
X21333Y211567D01*
X21255Y211633D01*
X21226Y211646D01*
X21202Y211664D01*
X21105Y211697D01*
X21010Y211738D01*
X20980Y211741D01*
X20950Y211751D01*
X20848Y211755D01*
X20746Y211765D01*
X20716Y211759D01*
X20685Y211760D01*
X20586Y211733D01*
X20485Y211713D01*
X20465Y211700D01*
X20428Y211690D01*
X20204Y211548D01*
X20179Y211519D01*
X20159Y211506D01*
X19015Y210362D01*
X19003Y210345D01*
X18986Y210332D01*
X18924Y210238D01*
X18857Y210148D01*
X18851Y210128D01*
X18839Y210111D01*
X18829Y210066D01*
X18770Y209897D01*
X18766Y209784D01*
X18755Y209734D01*
X18755Y197735D01*
X18763Y197684D01*
X18761Y197632D01*
X18783Y197553D01*
X18795Y197472D01*
X18817Y197426D01*
X18831Y197376D01*
X18875Y197307D01*
X18911Y197233D01*
X18946Y197195D01*
X18973Y197152D01*
X19036Y197099D01*
X19092Y197039D01*
X19137Y197013D01*
X19176Y196980D01*
X19252Y196947D01*
X19323Y196907D01*
X19373Y196895D01*
X19421Y196875D01*
X19502Y196867D01*
X19582Y196849D01*
X19634Y196853D01*
X19685Y196848D01*
X19766Y196864D01*
X19847Y196871D01*
X19895Y196890D01*
X19946Y196900D01*
X19989Y196928D01*
X20094Y196970D01*
X20233Y197083D01*
X20271Y197107D01*
X21804Y198639D01*
X24604Y199799D01*
X39828Y199799D01*
X42629Y198639D01*
X44773Y196495D01*
X45933Y193694D01*
X45933Y190663D01*
X44773Y187862D01*
X42629Y185718D01*
X39828Y184558D01*
X24604Y184558D01*
X21804Y185718D01*
X20271Y187250D01*
X20230Y187281D01*
X20195Y187319D01*
X20123Y187359D01*
X20057Y187408D01*
X20009Y187425D01*
X19964Y187450D01*
X19884Y187468D01*
X19806Y187495D01*
X19755Y187497D01*
X19704Y187508D01*
X19623Y187502D01*
X19541Y187504D01*
X19491Y187491D01*
X19439Y187487D01*
X19363Y187456D01*
X19284Y187435D01*
X19241Y187407D01*
X19193Y187388D01*
X19129Y187336D01*
X19060Y187292D01*
X19027Y187253D01*
X18986Y187220D01*
X18941Y187152D01*
X18888Y187089D01*
X18868Y187042D01*
X18839Y186999D01*
X18828Y186949D01*
X18783Y186845D01*
X18765Y186667D01*
X18755Y186622D01*
X18755Y172335D01*
X18763Y172284D01*
X18761Y172232D01*
X18783Y172153D01*
X18795Y172072D01*
X18817Y172026D01*
X18831Y171976D01*
X18875Y171907D01*
X18911Y171833D01*
X18946Y171795D01*
X18973Y171752D01*
X19036Y171699D01*
X19092Y171639D01*
X19137Y171613D01*
X19176Y171580D01*
X19252Y171547D01*
X19323Y171507D01*
X19373Y171495D01*
X19421Y171475D01*
X19502Y171467D01*
X19582Y171449D01*
X19634Y171453D01*
X19685Y171448D01*
X19766Y171464D01*
X19847Y171471D01*
X19895Y171490D01*
X19946Y171500D01*
X19989Y171528D01*
X20094Y171570D01*
X20233Y171683D01*
X20271Y171707D01*
X21804Y173239D01*
X24604Y174399D01*
X39828Y174399D01*
X42629Y173239D01*
X44773Y171095D01*
X45933Y168294D01*
X45933Y165263D01*
X44773Y162462D01*
X42629Y160318D01*
X39828Y159158D01*
X26275Y159158D01*
X26224Y159150D01*
X26172Y159152D01*
X26093Y159130D01*
X26012Y159118D01*
X25966Y159096D01*
X25916Y159082D01*
X25847Y159038D01*
X25773Y159002D01*
X25735Y158967D01*
X25692Y158939D01*
X25638Y158877D01*
X25579Y158821D01*
X25553Y158776D01*
X25520Y158737D01*
X25487Y158661D01*
X25447Y158590D01*
X25435Y158540D01*
X25415Y158492D01*
X25407Y158411D01*
X25389Y158331D01*
X25393Y158279D01*
X25388Y158228D01*
X25404Y158147D01*
X25410Y158066D01*
X25430Y158018D01*
X25440Y157967D01*
X25467Y157924D01*
X25509Y157819D01*
X25622Y157680D01*
X25647Y157642D01*
X27377Y155912D01*
X27377Y151936D01*
X25956Y150516D01*
X25925Y150474D01*
X25888Y150439D01*
X25847Y150368D01*
X25798Y150302D01*
X25781Y150253D01*
X25756Y150208D01*
X25738Y150128D01*
X25711Y150051D01*
X25709Y149999D01*
X25698Y149949D01*
X25705Y149867D01*
X25702Y149785D01*
X25715Y149735D01*
X25720Y149684D01*
X25750Y149608D01*
X25772Y149529D01*
X25799Y149485D01*
X25819Y149437D01*
X25870Y149373D01*
X25914Y149304D01*
X25954Y149271D01*
X25986Y149231D01*
X26055Y149185D01*
X26117Y149132D01*
X26164Y149112D01*
X26207Y149083D01*
X26258Y149072D01*
X26361Y149028D01*
X26540Y149009D01*
X26584Y148999D01*
X39828Y148999D01*
X42629Y147839D01*
X44773Y145695D01*
X45933Y142894D01*
X45933Y139863D01*
X44773Y137062D01*
X42629Y134918D01*
X39828Y133758D01*
X24604Y133758D01*
G37*
%LPD*%
%LPC*%
G36*
X234486Y8917D02*
X234486Y8917D01*
X231675Y11728D01*
X231675Y15704D01*
X234486Y18515D01*
X238462Y18515D01*
X238936Y18041D01*
X238952Y18028D01*
X238966Y18012D01*
X239059Y17950D01*
X239150Y17883D01*
X239169Y17876D01*
X239187Y17865D01*
X239231Y17855D01*
X239401Y17796D01*
X239513Y17792D01*
X239564Y17781D01*
X277813Y17781D01*
X277834Y17784D01*
X277854Y17782D01*
X277965Y17804D01*
X278076Y17821D01*
X278094Y17830D01*
X278115Y17834D01*
X278154Y17858D01*
X278315Y17936D01*
X278397Y18013D01*
X278441Y18041D01*
X289807Y29407D01*
X289820Y29424D01*
X289836Y29437D01*
X289898Y29531D01*
X289965Y29621D01*
X289972Y29641D01*
X289983Y29658D01*
X289993Y29703D01*
X290052Y29872D01*
X290056Y29985D01*
X290067Y30035D01*
X290067Y98510D01*
X290064Y98531D01*
X290066Y98552D01*
X290044Y98662D01*
X290027Y98773D01*
X290018Y98792D01*
X290014Y98813D01*
X289990Y98851D01*
X289912Y99012D01*
X289835Y99095D01*
X289807Y99138D01*
X288825Y100120D01*
X288825Y104096D01*
X291636Y106907D01*
X295612Y106907D01*
X298423Y104096D01*
X298423Y100120D01*
X297441Y99138D01*
X297428Y99122D01*
X297412Y99108D01*
X297350Y99015D01*
X297283Y98924D01*
X297276Y98905D01*
X297265Y98887D01*
X297255Y98843D01*
X297196Y98673D01*
X297192Y98561D01*
X297181Y98510D01*
X297181Y26721D01*
X283725Y13265D01*
X283712Y13248D01*
X283696Y13235D01*
X283634Y13141D01*
X283567Y13051D01*
X283560Y13031D01*
X283549Y13014D01*
X283539Y12969D01*
X283480Y12800D01*
X283479Y12765D01*
X281381Y10667D01*
X240580Y10667D01*
X240559Y10664D01*
X240538Y10666D01*
X240428Y10644D01*
X240317Y10627D01*
X240298Y10618D01*
X240277Y10614D01*
X240239Y10590D01*
X240078Y10512D01*
X239995Y10435D01*
X239952Y10407D01*
X238462Y8917D01*
X234486Y8917D01*
G37*
%LPD*%
%LPC*%
G36*
X1217212Y32158D02*
X1217212Y32158D01*
X1214411Y33318D01*
X1212267Y35462D01*
X1211107Y38263D01*
X1211107Y41294D01*
X1212267Y44095D01*
X1214411Y46239D01*
X1217212Y47399D01*
X1232436Y47399D01*
X1233010Y47161D01*
X1233100Y47139D01*
X1233187Y47109D01*
X1233228Y47107D01*
X1233268Y47097D01*
X1233361Y47103D01*
X1233453Y47100D01*
X1233493Y47110D01*
X1233534Y47113D01*
X1233620Y47145D01*
X1233709Y47170D01*
X1233744Y47192D01*
X1233783Y47206D01*
X1233856Y47263D01*
X1233934Y47312D01*
X1233960Y47344D01*
X1233993Y47369D01*
X1234046Y47444D01*
X1234106Y47515D01*
X1234122Y47553D01*
X1234146Y47586D01*
X1234174Y47674D01*
X1234210Y47759D01*
X1234214Y47800D01*
X1234227Y47839D01*
X1234228Y47932D01*
X1234238Y48024D01*
X1234230Y48064D01*
X1234230Y48105D01*
X1234204Y48194D01*
X1234186Y48284D01*
X1234169Y48311D01*
X1234154Y48360D01*
X1234006Y48581D01*
X1233989Y48593D01*
X1233978Y48610D01*
X1225291Y57298D01*
X1225274Y57310D01*
X1225261Y57326D01*
X1225167Y57389D01*
X1225077Y57455D01*
X1225057Y57462D01*
X1225040Y57474D01*
X1224995Y57484D01*
X1224826Y57543D01*
X1224713Y57547D01*
X1224663Y57558D01*
X1217212Y57558D01*
X1214411Y58718D01*
X1212267Y60862D01*
X1211107Y63663D01*
X1211107Y66694D01*
X1212267Y69495D01*
X1214411Y71639D01*
X1217212Y72799D01*
X1232436Y72799D01*
X1235237Y71639D01*
X1237381Y69495D01*
X1238541Y66694D01*
X1238541Y63663D01*
X1237381Y60862D01*
X1235237Y58718D01*
X1233255Y57897D01*
X1233246Y57892D01*
X1233236Y57889D01*
X1233132Y57823D01*
X1233028Y57760D01*
X1233021Y57752D01*
X1233012Y57746D01*
X1232932Y57652D01*
X1232851Y57561D01*
X1232846Y57552D01*
X1232840Y57544D01*
X1232791Y57431D01*
X1232741Y57319D01*
X1232739Y57309D01*
X1232735Y57299D01*
X1232723Y57177D01*
X1232707Y57056D01*
X1232709Y57045D01*
X1232708Y57035D01*
X1232732Y56914D01*
X1232753Y56794D01*
X1232758Y56785D01*
X1232760Y56774D01*
X1232777Y56748D01*
X1232874Y56557D01*
X1232941Y56489D01*
X1232967Y56449D01*
X1238637Y50779D01*
X1238654Y50766D01*
X1238667Y50750D01*
X1238760Y50688D01*
X1238851Y50621D01*
X1238870Y50614D01*
X1238888Y50603D01*
X1238932Y50593D01*
X1239102Y50534D01*
X1239214Y50530D01*
X1239265Y50519D01*
X1242270Y50519D01*
X1245081Y47708D01*
X1245081Y43732D01*
X1242270Y40921D01*
X1239429Y40921D01*
X1239327Y40906D01*
X1239225Y40898D01*
X1239197Y40886D01*
X1239166Y40881D01*
X1239074Y40837D01*
X1238978Y40799D01*
X1238955Y40779D01*
X1238927Y40766D01*
X1238852Y40696D01*
X1238772Y40631D01*
X1238755Y40605D01*
X1238733Y40584D01*
X1238682Y40495D01*
X1238625Y40410D01*
X1238619Y40386D01*
X1238601Y40354D01*
X1238543Y40094D01*
X1238546Y40056D01*
X1238541Y40033D01*
X1238541Y38263D01*
X1237381Y35462D01*
X1235237Y33318D01*
X1232436Y32158D01*
X1217212Y32158D01*
G37*
%LPD*%
%LPC*%
G36*
X764330Y11457D02*
X764330Y11457D01*
X761519Y14268D01*
X761519Y18244D01*
X763644Y20369D01*
X763657Y20385D01*
X763673Y20399D01*
X763735Y20492D01*
X763802Y20583D01*
X763809Y20602D01*
X763820Y20620D01*
X763830Y20664D01*
X763889Y20834D01*
X763893Y20946D01*
X763904Y20997D01*
X763904Y46130D01*
X763901Y46151D01*
X763903Y46172D01*
X763881Y46282D01*
X763864Y46393D01*
X763855Y46412D01*
X763851Y46433D01*
X763827Y46471D01*
X763749Y46632D01*
X763672Y46715D01*
X763644Y46758D01*
X762276Y48126D01*
X762259Y48139D01*
X762246Y48155D01*
X762153Y48217D01*
X762062Y48284D01*
X762043Y48291D01*
X762025Y48302D01*
X761981Y48312D01*
X761811Y48371D01*
X761699Y48375D01*
X761648Y48386D01*
X750739Y48386D01*
X750718Y48383D01*
X750697Y48385D01*
X750587Y48363D01*
X750476Y48346D01*
X750457Y48337D01*
X750436Y48333D01*
X750398Y48309D01*
X750237Y48231D01*
X750154Y48154D01*
X750111Y48126D01*
X747986Y46001D01*
X744010Y46001D01*
X741199Y48812D01*
X741199Y52788D01*
X741730Y53319D01*
X741761Y53360D01*
X741799Y53396D01*
X741840Y53467D01*
X741888Y53533D01*
X741905Y53582D01*
X741931Y53626D01*
X741949Y53706D01*
X741976Y53784D01*
X741977Y53836D01*
X741989Y53886D01*
X741982Y53968D01*
X741985Y54050D01*
X741971Y54099D01*
X741967Y54151D01*
X741936Y54227D01*
X741915Y54306D01*
X741887Y54350D01*
X741868Y54398D01*
X741816Y54461D01*
X741772Y54530D01*
X741733Y54564D01*
X741700Y54604D01*
X741632Y54649D01*
X741570Y54702D01*
X741522Y54723D01*
X741479Y54751D01*
X741429Y54763D01*
X741325Y54807D01*
X741147Y54825D01*
X741102Y54835D01*
X699784Y54835D01*
X699763Y54832D01*
X699742Y54834D01*
X699632Y54812D01*
X699521Y54795D01*
X699502Y54786D01*
X699481Y54782D01*
X699443Y54758D01*
X699282Y54680D01*
X699199Y54603D01*
X699156Y54575D01*
X697313Y52732D01*
X693337Y52732D01*
X690526Y55543D01*
X690526Y59519D01*
X693337Y62330D01*
X697313Y62330D01*
X699720Y59923D01*
X699736Y59910D01*
X699750Y59894D01*
X699843Y59832D01*
X699934Y59765D01*
X699953Y59758D01*
X699971Y59747D01*
X700015Y59737D01*
X700185Y59678D01*
X700297Y59674D01*
X700348Y59663D01*
X768014Y59663D01*
X768034Y59666D01*
X768055Y59664D01*
X768166Y59686D01*
X768276Y59703D01*
X768295Y59712D01*
X768316Y59716D01*
X768355Y59740D01*
X768516Y59818D01*
X768598Y59895D01*
X768642Y59923D01*
X770668Y61949D01*
X774643Y61949D01*
X777454Y59138D01*
X777454Y55162D01*
X774643Y52351D01*
X770668Y52351D01*
X768444Y54575D01*
X768427Y54588D01*
X768414Y54604D01*
X768320Y54666D01*
X768230Y54733D01*
X768210Y54740D01*
X768192Y54751D01*
X768148Y54761D01*
X767979Y54820D01*
X767866Y54824D01*
X767816Y54835D01*
X764539Y54835D01*
X764488Y54828D01*
X764436Y54829D01*
X764357Y54808D01*
X764276Y54795D01*
X764229Y54773D01*
X764180Y54759D01*
X764110Y54715D01*
X764037Y54680D01*
X763999Y54645D01*
X763955Y54617D01*
X763902Y54554D01*
X763842Y54498D01*
X763817Y54454D01*
X763783Y54414D01*
X763751Y54339D01*
X763710Y54268D01*
X763699Y54217D01*
X763679Y54170D01*
X763670Y54088D01*
X763653Y54008D01*
X763657Y53957D01*
X763651Y53905D01*
X763667Y53825D01*
X763674Y53743D01*
X763693Y53695D01*
X763703Y53645D01*
X763731Y53601D01*
X763773Y53496D01*
X763886Y53357D01*
X763911Y53319D01*
X768732Y48498D01*
X768732Y20997D01*
X768735Y20976D01*
X768733Y20955D01*
X768755Y20845D01*
X768772Y20734D01*
X768781Y20715D01*
X768785Y20694D01*
X768809Y20656D01*
X768887Y20495D01*
X768964Y20412D01*
X768992Y20369D01*
X771117Y18244D01*
X771117Y14268D01*
X768306Y11457D01*
X764330Y11457D01*
G37*
%LPD*%
%LPC*%
G36*
X1273156Y180113D02*
X1273156Y180113D01*
X1270778Y182492D01*
X1270761Y182504D01*
X1270747Y182520D01*
X1270654Y182583D01*
X1270564Y182649D01*
X1270544Y182656D01*
X1270526Y182668D01*
X1270482Y182678D01*
X1270313Y182737D01*
X1270200Y182741D01*
X1270150Y182752D01*
X1260201Y182752D01*
X1260181Y182749D01*
X1260160Y182751D01*
X1260049Y182729D01*
X1259938Y182712D01*
X1259920Y182703D01*
X1259899Y182699D01*
X1259860Y182674D01*
X1259699Y182596D01*
X1259617Y182519D01*
X1259573Y182492D01*
X1257448Y180367D01*
X1253473Y180367D01*
X1250662Y183178D01*
X1250662Y187153D01*
X1253473Y189964D01*
X1257448Y189964D01*
X1259573Y187839D01*
X1259590Y187827D01*
X1259603Y187811D01*
X1259697Y187748D01*
X1259787Y187682D01*
X1259807Y187675D01*
X1259824Y187663D01*
X1259869Y187653D01*
X1260038Y187594D01*
X1260151Y187591D01*
X1260201Y187579D01*
X1272517Y187579D01*
X1274896Y185200D01*
X1274913Y185188D01*
X1274926Y185172D01*
X1275020Y185109D01*
X1275110Y185043D01*
X1275130Y185036D01*
X1275147Y185024D01*
X1275192Y185014D01*
X1275361Y184955D01*
X1275474Y184952D01*
X1275524Y184940D01*
X1276395Y184940D01*
X1276445Y184948D01*
X1276497Y184946D01*
X1276576Y184968D01*
X1276657Y184980D01*
X1276704Y185003D01*
X1276754Y185016D01*
X1276823Y185060D01*
X1276897Y185096D01*
X1276934Y185131D01*
X1276978Y185159D01*
X1277031Y185221D01*
X1277091Y185277D01*
X1277117Y185322D01*
X1277150Y185361D01*
X1277182Y185437D01*
X1277223Y185508D01*
X1277234Y185558D01*
X1277254Y185606D01*
X1277263Y185687D01*
X1277281Y185767D01*
X1277276Y185819D01*
X1277282Y185870D01*
X1277266Y185951D01*
X1277259Y186032D01*
X1277240Y186080D01*
X1277230Y186131D01*
X1277202Y186174D01*
X1277160Y186279D01*
X1277047Y186418D01*
X1277023Y186457D01*
X1275617Y187862D01*
X1274457Y190663D01*
X1274457Y193694D01*
X1275617Y196495D01*
X1277761Y198639D01*
X1280562Y199799D01*
X1295786Y199799D01*
X1298587Y198639D01*
X1300731Y196495D01*
X1301891Y193694D01*
X1301891Y190663D01*
X1301374Y189415D01*
X1301371Y189405D01*
X1301366Y189396D01*
X1301339Y189276D01*
X1301310Y189157D01*
X1301311Y189146D01*
X1301308Y189136D01*
X1301318Y189014D01*
X1301325Y188891D01*
X1301329Y188882D01*
X1301330Y188871D01*
X1301376Y188757D01*
X1301419Y188643D01*
X1301425Y188634D01*
X1301429Y188624D01*
X1301507Y188529D01*
X1301581Y188432D01*
X1301590Y188426D01*
X1301597Y188418D01*
X1301699Y188350D01*
X1301799Y188280D01*
X1301809Y188276D01*
X1301818Y188271D01*
X1301848Y188264D01*
X1302052Y188198D01*
X1302148Y188197D01*
X1302194Y188187D01*
X1308439Y188187D01*
X1308460Y188190D01*
X1308481Y188188D01*
X1308592Y188210D01*
X1308702Y188227D01*
X1308721Y188236D01*
X1308742Y188240D01*
X1308780Y188264D01*
X1308942Y188342D01*
X1309024Y188419D01*
X1309067Y188447D01*
X1311192Y190572D01*
X1315168Y190572D01*
X1317979Y187761D01*
X1317979Y183785D01*
X1315168Y180974D01*
X1311192Y180974D01*
X1309067Y183099D01*
X1309051Y183112D01*
X1309037Y183128D01*
X1308944Y183190D01*
X1308854Y183257D01*
X1308834Y183264D01*
X1308816Y183275D01*
X1308772Y183285D01*
X1308602Y183344D01*
X1308490Y183348D01*
X1308439Y183359D01*
X1304510Y183359D01*
X1304490Y183356D01*
X1304469Y183358D01*
X1304358Y183336D01*
X1304248Y183319D01*
X1304229Y183310D01*
X1304208Y183306D01*
X1304169Y183282D01*
X1304008Y183204D01*
X1303926Y183127D01*
X1303882Y183099D01*
X1300896Y180113D01*
X1273156Y180113D01*
G37*
%LPD*%
%LPC*%
G36*
X1199686Y136171D02*
X1199686Y136171D01*
X1196875Y138982D01*
X1196875Y142958D01*
X1199254Y145337D01*
X1199267Y145353D01*
X1199283Y145367D01*
X1199345Y145460D01*
X1199412Y145550D01*
X1199419Y145570D01*
X1199430Y145588D01*
X1199440Y145632D01*
X1199499Y145802D01*
X1199503Y145914D01*
X1199514Y145965D01*
X1199514Y206333D01*
X1199511Y206354D01*
X1199513Y206375D01*
X1199491Y206485D01*
X1199474Y206596D01*
X1199465Y206615D01*
X1199461Y206636D01*
X1199437Y206674D01*
X1199359Y206835D01*
X1199282Y206918D01*
X1199254Y206961D01*
X1197865Y208350D01*
X1197782Y208411D01*
X1197704Y208478D01*
X1197676Y208490D01*
X1197651Y208508D01*
X1197554Y208542D01*
X1197460Y208582D01*
X1197429Y208585D01*
X1197400Y208596D01*
X1197297Y208599D01*
X1197195Y208610D01*
X1197165Y208604D01*
X1197134Y208605D01*
X1197035Y208578D01*
X1196935Y208558D01*
X1196914Y208545D01*
X1196878Y208535D01*
X1196654Y208392D01*
X1196629Y208363D01*
X1196609Y208350D01*
X1195303Y207045D01*
X1195291Y207028D01*
X1195275Y207015D01*
X1195212Y206921D01*
X1195146Y206831D01*
X1195139Y206811D01*
X1195127Y206794D01*
X1195117Y206749D01*
X1195058Y206580D01*
X1195054Y206467D01*
X1195043Y206417D01*
X1195043Y172027D01*
X1195046Y172007D01*
X1195044Y171986D01*
X1195066Y171875D01*
X1195083Y171764D01*
X1195092Y171746D01*
X1195096Y171725D01*
X1195121Y171686D01*
X1195199Y171525D01*
X1195276Y171443D01*
X1195303Y171399D01*
X1197428Y169274D01*
X1197428Y165299D01*
X1194617Y162488D01*
X1190642Y162488D01*
X1187831Y165299D01*
X1187831Y169274D01*
X1189956Y171399D01*
X1189968Y171416D01*
X1189984Y171429D01*
X1190047Y171523D01*
X1190113Y171613D01*
X1190120Y171633D01*
X1190132Y171650D01*
X1190142Y171695D01*
X1190201Y171864D01*
X1190204Y171977D01*
X1190216Y172027D01*
X1190216Y206218D01*
X1190213Y206239D01*
X1190215Y206260D01*
X1190193Y206370D01*
X1190176Y206481D01*
X1190167Y206500D01*
X1190163Y206520D01*
X1190138Y206559D01*
X1190060Y206720D01*
X1189983Y206803D01*
X1189956Y206846D01*
X1187731Y209070D01*
X1187731Y213046D01*
X1190542Y215857D01*
X1194518Y215857D01*
X1196593Y213782D01*
X1196676Y213721D01*
X1196754Y213654D01*
X1196782Y213642D01*
X1196807Y213624D01*
X1196904Y213590D01*
X1196998Y213550D01*
X1197029Y213547D01*
X1197058Y213536D01*
X1197160Y213533D01*
X1197263Y213522D01*
X1197293Y213528D01*
X1197324Y213527D01*
X1197423Y213554D01*
X1197523Y213574D01*
X1197543Y213587D01*
X1197580Y213597D01*
X1197804Y213740D01*
X1197829Y213769D01*
X1197849Y213782D01*
X1199940Y215873D01*
X1203916Y215873D01*
X1206727Y213062D01*
X1206727Y209086D01*
X1204602Y206961D01*
X1204589Y206945D01*
X1204573Y206931D01*
X1204511Y206838D01*
X1204444Y206747D01*
X1204437Y206728D01*
X1204426Y206710D01*
X1204416Y206666D01*
X1204357Y206496D01*
X1204353Y206384D01*
X1204342Y206333D01*
X1204342Y145457D01*
X1204345Y145436D01*
X1204343Y145415D01*
X1204365Y145304D01*
X1204382Y145194D01*
X1204391Y145175D01*
X1204395Y145154D01*
X1204419Y145116D01*
X1204497Y144954D01*
X1204574Y144872D01*
X1204602Y144829D01*
X1206473Y142958D01*
X1206473Y138982D01*
X1203662Y136171D01*
X1199686Y136171D01*
G37*
%LPD*%
%LPC*%
G36*
X1583734Y12727D02*
X1583734Y12727D01*
X1581609Y14852D01*
X1581596Y14862D01*
X1581586Y14874D01*
X1581583Y14876D01*
X1581579Y14881D01*
X1581486Y14943D01*
X1581395Y15010D01*
X1581376Y15017D01*
X1581358Y15028D01*
X1581314Y15038D01*
X1581144Y15097D01*
X1581032Y15101D01*
X1580981Y15112D01*
X1458837Y15112D01*
X1455541Y18408D01*
X1455529Y18417D01*
X1455521Y18427D01*
X1455517Y18430D01*
X1455511Y18437D01*
X1455418Y18499D01*
X1455327Y18566D01*
X1455308Y18573D01*
X1455290Y18584D01*
X1455246Y18594D01*
X1455076Y18653D01*
X1454964Y18657D01*
X1454913Y18668D01*
X1451908Y18668D01*
X1449097Y21479D01*
X1449097Y25455D01*
X1451908Y28266D01*
X1455884Y28266D01*
X1458695Y25455D01*
X1458695Y22450D01*
X1458698Y22429D01*
X1458696Y22408D01*
X1458718Y22298D01*
X1458735Y22187D01*
X1458744Y22168D01*
X1458748Y22147D01*
X1458772Y22109D01*
X1458850Y21948D01*
X1458927Y21865D01*
X1458955Y21822D01*
X1460577Y20200D01*
X1460594Y20187D01*
X1460607Y20171D01*
X1460700Y20109D01*
X1460791Y20042D01*
X1460810Y20035D01*
X1460828Y20024D01*
X1460872Y20014D01*
X1461042Y19955D01*
X1461154Y19951D01*
X1461205Y19940D01*
X1580981Y19940D01*
X1581002Y19943D01*
X1581023Y19941D01*
X1581133Y19963D01*
X1581244Y19980D01*
X1581263Y19989D01*
X1581284Y19993D01*
X1581322Y20017D01*
X1581483Y20095D01*
X1581566Y20172D01*
X1581609Y20200D01*
X1583734Y22325D01*
X1587710Y22325D01*
X1590521Y19514D01*
X1590521Y15538D01*
X1587710Y12727D01*
X1583734Y12727D01*
G37*
%LPD*%
%LPC*%
G36*
X1040936Y104167D02*
X1040936Y104167D01*
X1038125Y106978D01*
X1038125Y110954D01*
X1039107Y111936D01*
X1039120Y111952D01*
X1039136Y111966D01*
X1039198Y112059D01*
X1039265Y112150D01*
X1039272Y112169D01*
X1039283Y112187D01*
X1039293Y112231D01*
X1039352Y112401D01*
X1039356Y112513D01*
X1039367Y112564D01*
X1039367Y181568D01*
X1039364Y181589D01*
X1039366Y181610D01*
X1039344Y181720D01*
X1039327Y181831D01*
X1039318Y181850D01*
X1039314Y181871D01*
X1039290Y181909D01*
X1039212Y182070D01*
X1039135Y182153D01*
X1039107Y182196D01*
X1038125Y183178D01*
X1038125Y187154D01*
X1040936Y189965D01*
X1044912Y189965D01*
X1047723Y187154D01*
X1047723Y183178D01*
X1046741Y182196D01*
X1046728Y182180D01*
X1046712Y182166D01*
X1046650Y182073D01*
X1046583Y181982D01*
X1046576Y181963D01*
X1046565Y181945D01*
X1046555Y181901D01*
X1046496Y181731D01*
X1046492Y181619D01*
X1046481Y181568D01*
X1046481Y112564D01*
X1046484Y112543D01*
X1046482Y112522D01*
X1046504Y112412D01*
X1046521Y112301D01*
X1046530Y112282D01*
X1046534Y112261D01*
X1046558Y112223D01*
X1046636Y112062D01*
X1046713Y111979D01*
X1046741Y111936D01*
X1047723Y110954D01*
X1047723Y106978D01*
X1044912Y104167D01*
X1040936Y104167D01*
G37*
%LPD*%
%LPC*%
G36*
X592372Y49557D02*
X592372Y49557D01*
X589561Y52368D01*
X589561Y56628D01*
X589554Y56679D01*
X589555Y56731D01*
X589534Y56810D01*
X589521Y56891D01*
X589499Y56938D01*
X589485Y56988D01*
X589441Y57057D01*
X589406Y57131D01*
X589370Y57168D01*
X589343Y57212D01*
X589280Y57265D01*
X589224Y57325D01*
X589179Y57351D01*
X589140Y57384D01*
X589065Y57416D01*
X588994Y57457D01*
X588943Y57468D01*
X588896Y57488D01*
X588814Y57497D01*
X588734Y57515D01*
X588683Y57510D01*
X588631Y57516D01*
X588551Y57500D01*
X588469Y57493D01*
X588421Y57474D01*
X588371Y57464D01*
X588327Y57436D01*
X588222Y57394D01*
X588083Y57281D01*
X588045Y57256D01*
X587712Y56923D01*
X583736Y56923D01*
X580925Y59734D01*
X580925Y63710D01*
X583106Y65891D01*
X583119Y65907D01*
X583135Y65921D01*
X583197Y66014D01*
X583264Y66105D01*
X583271Y66124D01*
X583282Y66142D01*
X583292Y66186D01*
X583351Y66356D01*
X583355Y66468D01*
X583366Y66519D01*
X583366Y86798D01*
X583363Y86819D01*
X583365Y86840D01*
X583343Y86950D01*
X583326Y87061D01*
X583317Y87080D01*
X583313Y87101D01*
X583289Y87139D01*
X583211Y87300D01*
X583134Y87383D01*
X583106Y87426D01*
X580981Y89551D01*
X580981Y93527D01*
X583792Y96338D01*
X587768Y96338D01*
X590579Y93527D01*
X590579Y93288D01*
X590586Y93237D01*
X590585Y93185D01*
X590606Y93106D01*
X590619Y93025D01*
X590641Y92978D01*
X590655Y92928D01*
X590699Y92859D01*
X590734Y92785D01*
X590770Y92748D01*
X590797Y92704D01*
X590860Y92651D01*
X590916Y92591D01*
X590961Y92565D01*
X591000Y92532D01*
X591075Y92500D01*
X591146Y92459D01*
X591197Y92448D01*
X591244Y92428D01*
X591326Y92419D01*
X591406Y92401D01*
X591457Y92406D01*
X591509Y92400D01*
X591589Y92416D01*
X591671Y92423D01*
X591719Y92442D01*
X591769Y92452D01*
X591813Y92480D01*
X591918Y92522D01*
X592057Y92635D01*
X592095Y92660D01*
X592372Y92937D01*
X596348Y92937D01*
X599159Y90126D01*
X599159Y86150D01*
X597034Y84025D01*
X597021Y84009D01*
X597005Y83995D01*
X596943Y83902D01*
X596876Y83811D01*
X596869Y83792D01*
X596858Y83774D01*
X596848Y83730D01*
X596789Y83560D01*
X596785Y83448D01*
X596774Y83397D01*
X596774Y59097D01*
X596777Y59076D01*
X596775Y59055D01*
X596797Y58945D01*
X596814Y58834D01*
X596823Y58815D01*
X596827Y58794D01*
X596851Y58756D01*
X596929Y58595D01*
X597006Y58512D01*
X597034Y58469D01*
X599159Y56344D01*
X599159Y52368D01*
X596348Y49557D01*
X592372Y49557D01*
G37*
%LPD*%
%LPC*%
G36*
X1122470Y168683D02*
X1122470Y168683D01*
X1119659Y171494D01*
X1119659Y175470D01*
X1122470Y178281D01*
X1125267Y178281D01*
X1125288Y178284D01*
X1125309Y178282D01*
X1125419Y178304D01*
X1125530Y178321D01*
X1125549Y178330D01*
X1125569Y178334D01*
X1125608Y178358D01*
X1125769Y178436D01*
X1125852Y178513D01*
X1125895Y178541D01*
X1135398Y188044D01*
X1135435Y188094D01*
X1135479Y188137D01*
X1135514Y188201D01*
X1135556Y188258D01*
X1135576Y188317D01*
X1135606Y188371D01*
X1135620Y188442D01*
X1135643Y188509D01*
X1135646Y188571D01*
X1135658Y188632D01*
X1135649Y188679D01*
X1135653Y188775D01*
X1135596Y188982D01*
X1135591Y189012D01*
X1134907Y190663D01*
X1134907Y193694D01*
X1136067Y196495D01*
X1138211Y198639D01*
X1141012Y199799D01*
X1156236Y199799D01*
X1159037Y198639D01*
X1161181Y196495D01*
X1162341Y193694D01*
X1162341Y190663D01*
X1161181Y187862D01*
X1159037Y185718D01*
X1156236Y184558D01*
X1141012Y184558D01*
X1139953Y184996D01*
X1139893Y185011D01*
X1139836Y185036D01*
X1139765Y185043D01*
X1139695Y185060D01*
X1139633Y185057D01*
X1139572Y185063D01*
X1139501Y185049D01*
X1139430Y185045D01*
X1139372Y185023D01*
X1139311Y185011D01*
X1139270Y184985D01*
X1139181Y184952D01*
X1139012Y184821D01*
X1138985Y184804D01*
X1129517Y175336D01*
X1129504Y175319D01*
X1129488Y175306D01*
X1129426Y175212D01*
X1129359Y175122D01*
X1129352Y175102D01*
X1129341Y175084D01*
X1129331Y175040D01*
X1129272Y174871D01*
X1129268Y174758D01*
X1129257Y174708D01*
X1129257Y171494D01*
X1126446Y168683D01*
X1122470Y168683D01*
G37*
%LPD*%
%LPC*%
G36*
X1731308Y142013D02*
X1731308Y142013D01*
X1728497Y144824D01*
X1728497Y148800D01*
X1731308Y151611D01*
X1735288Y151611D01*
X1735373Y151554D01*
X1735464Y151487D01*
X1735483Y151480D01*
X1735501Y151469D01*
X1735545Y151459D01*
X1735715Y151400D01*
X1735827Y151396D01*
X1735878Y151385D01*
X1767798Y151385D01*
X1767819Y151388D01*
X1767840Y151386D01*
X1767950Y151408D01*
X1768061Y151425D01*
X1768080Y151434D01*
X1768101Y151438D01*
X1768139Y151462D01*
X1768300Y151540D01*
X1768376Y151611D01*
X1772368Y151611D01*
X1775179Y148800D01*
X1775179Y144824D01*
X1772368Y142013D01*
X1768388Y142013D01*
X1768303Y142070D01*
X1768212Y142137D01*
X1768193Y142144D01*
X1768175Y142155D01*
X1768131Y142165D01*
X1767961Y142224D01*
X1767849Y142228D01*
X1767798Y142239D01*
X1735878Y142239D01*
X1735857Y142236D01*
X1735836Y142238D01*
X1735726Y142216D01*
X1735615Y142199D01*
X1735596Y142190D01*
X1735575Y142186D01*
X1735537Y142162D01*
X1735376Y142084D01*
X1735300Y142013D01*
X1731308Y142013D01*
G37*
%LPD*%
%LPC*%
G36*
X220339Y27886D02*
X220339Y27886D01*
X216324Y29548D01*
X213252Y32621D01*
X211589Y36636D01*
X211589Y40981D01*
X213252Y44995D01*
X216324Y48068D01*
X220339Y49731D01*
X224684Y49731D01*
X228699Y48068D01*
X231771Y44995D01*
X233434Y40981D01*
X233434Y36636D01*
X231771Y32621D01*
X228699Y29548D01*
X224684Y27886D01*
X220339Y27886D01*
G37*
%LPD*%
%LPC*%
G36*
X194939Y27886D02*
X194939Y27886D01*
X190924Y29548D01*
X187852Y32621D01*
X186189Y36636D01*
X186189Y40981D01*
X187852Y44995D01*
X190924Y48068D01*
X194939Y49731D01*
X199284Y49731D01*
X203299Y48068D01*
X206371Y44995D01*
X208034Y40981D01*
X208034Y36636D01*
X206371Y32621D01*
X203299Y29548D01*
X199284Y27886D01*
X194939Y27886D01*
G37*
%LPD*%
%LPC*%
G36*
X271139Y27886D02*
X271139Y27886D01*
X267124Y29548D01*
X264052Y32621D01*
X262389Y36636D01*
X262389Y40981D01*
X264052Y44995D01*
X267124Y48068D01*
X271139Y49731D01*
X275484Y49731D01*
X279499Y48068D01*
X282571Y44995D01*
X284234Y40981D01*
X284234Y36636D01*
X282571Y32621D01*
X279499Y29548D01*
X275484Y27886D01*
X271139Y27886D01*
G37*
%LPD*%
%LPC*%
G36*
X245739Y27886D02*
X245739Y27886D01*
X241724Y29548D01*
X238652Y32621D01*
X236989Y36636D01*
X236989Y40981D01*
X238652Y44995D01*
X241724Y48068D01*
X245739Y49731D01*
X250084Y49731D01*
X254099Y48068D01*
X257171Y44995D01*
X258834Y40981D01*
X258834Y36636D01*
X257171Y32621D01*
X254099Y29548D01*
X250084Y27886D01*
X245739Y27886D01*
G37*
%LPD*%
%LPC*%
G36*
X628948Y137187D02*
X628948Y137187D01*
X628220Y137915D01*
X628204Y137928D01*
X628190Y137944D01*
X628097Y138006D01*
X628006Y138073D01*
X627987Y138080D01*
X627969Y138091D01*
X627925Y138101D01*
X627755Y138160D01*
X627643Y138164D01*
X627592Y138175D01*
X594148Y138175D01*
X594127Y138172D01*
X594106Y138174D01*
X593996Y138152D01*
X593885Y138135D01*
X593866Y138126D01*
X593845Y138122D01*
X593807Y138098D01*
X593646Y138020D01*
X593563Y137943D01*
X593520Y137915D01*
X593046Y137441D01*
X589070Y137441D01*
X586259Y140252D01*
X586259Y144228D01*
X589070Y147039D01*
X593046Y147039D01*
X594536Y145549D01*
X594552Y145536D01*
X594566Y145520D01*
X594659Y145458D01*
X594750Y145391D01*
X594769Y145384D01*
X594787Y145373D01*
X594831Y145363D01*
X595001Y145304D01*
X595113Y145300D01*
X595164Y145289D01*
X627084Y145289D01*
X627105Y145292D01*
X627126Y145290D01*
X627236Y145312D01*
X627347Y145329D01*
X627366Y145338D01*
X627387Y145342D01*
X627425Y145366D01*
X627586Y145444D01*
X627669Y145521D01*
X627712Y145549D01*
X628948Y146785D01*
X632924Y146785D01*
X635735Y143974D01*
X635735Y139998D01*
X632924Y137187D01*
X628948Y137187D01*
G37*
%LPD*%
%LPC*%
G36*
X1775412Y184558D02*
X1775412Y184558D01*
X1772611Y185718D01*
X1770467Y187862D01*
X1769307Y190663D01*
X1769307Y193694D01*
X1770467Y196495D01*
X1772611Y198639D01*
X1775412Y199799D01*
X1790636Y199799D01*
X1793437Y198639D01*
X1795581Y196495D01*
X1796741Y193694D01*
X1796741Y190663D01*
X1795581Y187862D01*
X1793437Y185718D01*
X1790636Y184558D01*
X1775412Y184558D01*
G37*
%LPD*%
%LPC*%
G36*
X2117862Y184558D02*
X2117862Y184558D01*
X2115061Y185718D01*
X2112917Y187862D01*
X2111757Y190663D01*
X2111757Y193694D01*
X2112917Y196495D01*
X2115061Y198639D01*
X2117862Y199799D01*
X2133086Y199799D01*
X2135887Y198639D01*
X2138031Y196495D01*
X2139191Y193694D01*
X2139191Y190663D01*
X2138031Y187862D01*
X2135887Y185718D01*
X2133086Y184558D01*
X2117862Y184558D01*
G37*
%LPD*%
%LPC*%
G36*
X24604Y32158D02*
X24604Y32158D01*
X21804Y33318D01*
X19660Y35462D01*
X18500Y38263D01*
X18500Y41294D01*
X19660Y44095D01*
X21804Y46239D01*
X24604Y47399D01*
X39828Y47399D01*
X42629Y46239D01*
X44773Y44095D01*
X45933Y41294D01*
X45933Y38263D01*
X44773Y35462D01*
X42629Y33318D01*
X39828Y32158D01*
X24604Y32158D01*
G37*
%LPD*%
%LPC*%
G36*
X100804Y32158D02*
X100804Y32158D01*
X98004Y33318D01*
X95860Y35462D01*
X94700Y38263D01*
X94700Y41294D01*
X95860Y44095D01*
X98004Y46239D01*
X100804Y47399D01*
X116028Y47399D01*
X118829Y46239D01*
X120973Y44095D01*
X122133Y41294D01*
X122133Y38263D01*
X120973Y35462D01*
X118829Y33318D01*
X116028Y32158D01*
X100804Y32158D01*
G37*
%LPD*%
%LPC*%
G36*
X303712Y209958D02*
X303712Y209958D01*
X300911Y211118D01*
X298767Y213262D01*
X297607Y216063D01*
X297607Y219094D01*
X298767Y221895D01*
X300911Y224039D01*
X303712Y225199D01*
X318936Y225199D01*
X321737Y224039D01*
X323881Y221895D01*
X325041Y219094D01*
X325041Y216063D01*
X323881Y213262D01*
X321737Y211118D01*
X318936Y209958D01*
X303712Y209958D01*
G37*
%LPD*%
%LPC*%
G36*
X169112Y209958D02*
X169112Y209958D01*
X166311Y211118D01*
X164167Y213262D01*
X163007Y216063D01*
X163007Y219094D01*
X164167Y221895D01*
X166311Y224039D01*
X169112Y225199D01*
X184336Y225199D01*
X187137Y224039D01*
X189281Y221895D01*
X190441Y219094D01*
X190441Y216063D01*
X189281Y213262D01*
X187137Y211118D01*
X184336Y209958D01*
X169112Y209958D01*
G37*
%LPD*%
%LPC*%
G36*
X2117862Y209958D02*
X2117862Y209958D01*
X2115061Y211118D01*
X2112917Y213262D01*
X2111757Y216063D01*
X2111757Y219094D01*
X2112917Y221895D01*
X2115061Y224039D01*
X2117862Y225199D01*
X2133086Y225199D01*
X2135887Y224039D01*
X2138031Y221895D01*
X2139191Y219094D01*
X2139191Y216063D01*
X2138031Y213262D01*
X2135887Y211118D01*
X2133086Y209958D01*
X2117862Y209958D01*
G37*
%LPD*%
%LPC*%
G36*
X722362Y209958D02*
X722362Y209958D01*
X719561Y211118D01*
X717417Y213262D01*
X716257Y216063D01*
X716257Y219094D01*
X717417Y221895D01*
X719561Y224039D01*
X722362Y225199D01*
X737586Y225199D01*
X740387Y224039D01*
X742531Y221895D01*
X743691Y219094D01*
X743691Y216063D01*
X742531Y213262D01*
X740387Y211118D01*
X737586Y209958D01*
X722362Y209958D01*
G37*
%LPD*%
%LPC*%
G36*
X1978312Y209958D02*
X1978312Y209958D01*
X1975511Y211118D01*
X1973367Y213262D01*
X1972207Y216063D01*
X1972207Y219094D01*
X1973367Y221895D01*
X1975511Y224039D01*
X1978312Y225199D01*
X1993536Y225199D01*
X1996337Y224039D01*
X1998481Y221895D01*
X1999641Y219094D01*
X1999641Y216063D01*
X1998481Y213262D01*
X1996337Y211118D01*
X1993536Y209958D01*
X1978312Y209958D01*
G37*
%LPD*%
%LPC*%
G36*
X24604Y57558D02*
X24604Y57558D01*
X21804Y58718D01*
X19660Y60862D01*
X18500Y63663D01*
X18500Y66694D01*
X19660Y69495D01*
X21804Y71639D01*
X24604Y72799D01*
X39828Y72799D01*
X42629Y71639D01*
X44773Y69495D01*
X45933Y66694D01*
X45933Y63663D01*
X44773Y60862D01*
X42629Y58718D01*
X39828Y57558D01*
X24604Y57558D01*
G37*
%LPD*%
%LPC*%
G36*
X100804Y57558D02*
X100804Y57558D01*
X98004Y58718D01*
X95860Y60862D01*
X94700Y63663D01*
X94700Y66694D01*
X95860Y69495D01*
X98004Y71639D01*
X100804Y72799D01*
X116028Y72799D01*
X118829Y71639D01*
X120973Y69495D01*
X122133Y66694D01*
X122133Y63663D01*
X120973Y60862D01*
X118829Y58718D01*
X116028Y57558D01*
X100804Y57558D01*
G37*
%LPD*%
%LPC*%
G36*
X1141012Y57558D02*
X1141012Y57558D01*
X1138211Y58718D01*
X1136067Y60862D01*
X1134907Y63663D01*
X1134907Y66694D01*
X1136067Y69495D01*
X1138211Y71639D01*
X1141012Y72799D01*
X1156236Y72799D01*
X1159037Y71639D01*
X1161181Y69495D01*
X1162341Y66694D01*
X1162341Y63663D01*
X1161181Y60862D01*
X1159037Y58718D01*
X1156236Y57558D01*
X1141012Y57558D01*
G37*
%LPD*%
%LPC*%
G36*
X1838762Y209958D02*
X1838762Y209958D01*
X1835961Y211118D01*
X1833817Y213262D01*
X1832657Y216063D01*
X1832657Y219094D01*
X1833817Y221895D01*
X1835961Y224039D01*
X1838762Y225199D01*
X1853986Y225199D01*
X1856787Y224039D01*
X1858931Y221895D01*
X1860091Y219094D01*
X1860091Y216063D01*
X1858931Y213262D01*
X1856787Y211118D01*
X1853986Y209958D01*
X1838762Y209958D01*
G37*
%LPD*%
%LPC*%
G36*
X582812Y209958D02*
X582812Y209958D01*
X580011Y211118D01*
X577867Y213262D01*
X576707Y216063D01*
X576707Y219094D01*
X577867Y221895D01*
X580011Y224039D01*
X582812Y225199D01*
X598036Y225199D01*
X600837Y224039D01*
X602981Y221895D01*
X604141Y219094D01*
X604141Y216063D01*
X602981Y213262D01*
X600837Y211118D01*
X598036Y209958D01*
X582812Y209958D01*
G37*
%LPD*%
%LPC*%
G36*
X24604Y82958D02*
X24604Y82958D01*
X21804Y84118D01*
X19660Y86262D01*
X18500Y89063D01*
X18500Y92094D01*
X19660Y94895D01*
X21804Y97039D01*
X24604Y98199D01*
X39828Y98199D01*
X42629Y97039D01*
X44773Y94895D01*
X45933Y92094D01*
X45933Y89063D01*
X44773Y86262D01*
X42629Y84118D01*
X39828Y82958D01*
X24604Y82958D01*
G37*
%LPD*%
%LPC*%
G36*
X100804Y82958D02*
X100804Y82958D01*
X98004Y84118D01*
X95860Y86262D01*
X94700Y89063D01*
X94700Y92094D01*
X95860Y94895D01*
X98004Y97039D01*
X100804Y98199D01*
X116028Y98199D01*
X118829Y97039D01*
X120973Y94895D01*
X122133Y92094D01*
X122133Y89063D01*
X120973Y86262D01*
X118829Y84118D01*
X116028Y82958D01*
X100804Y82958D01*
G37*
%LPD*%
%LPC*%
G36*
X1141012Y82958D02*
X1141012Y82958D01*
X1138211Y84118D01*
X1136067Y86262D01*
X1134907Y89063D01*
X1134907Y92094D01*
X1136067Y94895D01*
X1138211Y97039D01*
X1141012Y98199D01*
X1156236Y98199D01*
X1159037Y97039D01*
X1161181Y94895D01*
X1162341Y92094D01*
X1162341Y89063D01*
X1161181Y86262D01*
X1159037Y84118D01*
X1156236Y82958D01*
X1141012Y82958D01*
G37*
%LPD*%
%LPC*%
G36*
X1699212Y209958D02*
X1699212Y209958D01*
X1696411Y211118D01*
X1694267Y213262D01*
X1693107Y216063D01*
X1693107Y219094D01*
X1694267Y221895D01*
X1696411Y224039D01*
X1699212Y225199D01*
X1714436Y225199D01*
X1717237Y224039D01*
X1719381Y221895D01*
X1720541Y219094D01*
X1720541Y216063D01*
X1719381Y213262D01*
X1717237Y211118D01*
X1714436Y209958D01*
X1699212Y209958D01*
G37*
%LPD*%
%LPC*%
G36*
X1559662Y209958D02*
X1559662Y209958D01*
X1556861Y211118D01*
X1554717Y213262D01*
X1553557Y216063D01*
X1553557Y219094D01*
X1554717Y221895D01*
X1556861Y224039D01*
X1559662Y225199D01*
X1574886Y225199D01*
X1577687Y224039D01*
X1579831Y221895D01*
X1580991Y219094D01*
X1580991Y216063D01*
X1579831Y213262D01*
X1577687Y211118D01*
X1574886Y209958D01*
X1559662Y209958D01*
G37*
%LPD*%
%LPC*%
G36*
X100804Y108358D02*
X100804Y108358D01*
X98004Y109518D01*
X95860Y111662D01*
X94700Y114463D01*
X94700Y117494D01*
X95860Y120295D01*
X98004Y122439D01*
X100804Y123599D01*
X116028Y123599D01*
X118829Y122439D01*
X120973Y120295D01*
X122133Y117494D01*
X122133Y114463D01*
X120973Y111662D01*
X118829Y109518D01*
X116028Y108358D01*
X100804Y108358D01*
G37*
%LPD*%
%LPC*%
G36*
X24604Y108358D02*
X24604Y108358D01*
X21804Y109518D01*
X19660Y111662D01*
X18500Y114463D01*
X18500Y117494D01*
X19660Y120295D01*
X21804Y122439D01*
X24604Y123599D01*
X39828Y123599D01*
X42629Y122439D01*
X44773Y120295D01*
X45933Y117494D01*
X45933Y114463D01*
X44773Y111662D01*
X42629Y109518D01*
X39828Y108358D01*
X24604Y108358D01*
G37*
%LPD*%
%LPC*%
G36*
X1141012Y108358D02*
X1141012Y108358D01*
X1138211Y109518D01*
X1136067Y111662D01*
X1134907Y114463D01*
X1134907Y117494D01*
X1136067Y120295D01*
X1138211Y122439D01*
X1141012Y123599D01*
X1156236Y123599D01*
X1159037Y122439D01*
X1161181Y120295D01*
X1162341Y117494D01*
X1162341Y114463D01*
X1161181Y111662D01*
X1159037Y109518D01*
X1156236Y108358D01*
X1141012Y108358D01*
G37*
%LPD*%
%LPC*%
G36*
X443262Y209958D02*
X443262Y209958D01*
X440461Y211118D01*
X438317Y213262D01*
X437157Y216063D01*
X437157Y219094D01*
X438317Y221895D01*
X440461Y224039D01*
X443262Y225199D01*
X458486Y225199D01*
X461287Y224039D01*
X463431Y221895D01*
X464591Y219094D01*
X464591Y216063D01*
X463431Y213262D01*
X461287Y211118D01*
X458486Y209958D01*
X443262Y209958D01*
G37*
%LPD*%
%LPC*%
G36*
X100804Y133758D02*
X100804Y133758D01*
X98004Y134918D01*
X95860Y137062D01*
X94700Y139863D01*
X94700Y142894D01*
X95860Y145695D01*
X98004Y147839D01*
X100804Y148999D01*
X116028Y148999D01*
X118829Y147839D01*
X120973Y145695D01*
X122133Y142894D01*
X122133Y139863D01*
X120973Y137062D01*
X118829Y134918D01*
X116028Y133758D01*
X100804Y133758D01*
G37*
%LPD*%
%LPC*%
G36*
X1141012Y133758D02*
X1141012Y133758D01*
X1138211Y134918D01*
X1136067Y137062D01*
X1134907Y139863D01*
X1134907Y142894D01*
X1136067Y145695D01*
X1138211Y147839D01*
X1141012Y148999D01*
X1156236Y148999D01*
X1159037Y147839D01*
X1161181Y145695D01*
X1162341Y142894D01*
X1162341Y139863D01*
X1161181Y137062D01*
X1159037Y134918D01*
X1156236Y133758D01*
X1141012Y133758D01*
G37*
%LPD*%
%LPC*%
G36*
X1001462Y209958D02*
X1001462Y209958D01*
X998661Y211118D01*
X996517Y213262D01*
X995357Y216063D01*
X995357Y219094D01*
X996517Y221895D01*
X998661Y224039D01*
X1001462Y225199D01*
X1016686Y225199D01*
X1019487Y224039D01*
X1021631Y221895D01*
X1022791Y219094D01*
X1022791Y216063D01*
X1021631Y213262D01*
X1019487Y211118D01*
X1016686Y209958D01*
X1001462Y209958D01*
G37*
%LPD*%
%LPC*%
G36*
X1141012Y159158D02*
X1141012Y159158D01*
X1138211Y160318D01*
X1136067Y162462D01*
X1134907Y165263D01*
X1134907Y168294D01*
X1136067Y171095D01*
X1138211Y173239D01*
X1141012Y174399D01*
X1156236Y174399D01*
X1159037Y173239D01*
X1161181Y171095D01*
X1162341Y168294D01*
X1162341Y165263D01*
X1161181Y162462D01*
X1159037Y160318D01*
X1156236Y159158D01*
X1141012Y159158D01*
G37*
%LPD*%
%LPC*%
G36*
X100804Y159158D02*
X100804Y159158D01*
X98004Y160318D01*
X95860Y162462D01*
X94700Y165263D01*
X94700Y168294D01*
X95860Y171095D01*
X98004Y173239D01*
X100804Y174399D01*
X116028Y174399D01*
X118829Y173239D01*
X120973Y171095D01*
X122133Y168294D01*
X122133Y165263D01*
X120973Y162462D01*
X118829Y160318D01*
X116028Y159158D01*
X100804Y159158D01*
G37*
%LPD*%
%LPC*%
G36*
X1420112Y209958D02*
X1420112Y209958D01*
X1417311Y211118D01*
X1415167Y213262D01*
X1414007Y216063D01*
X1414007Y219094D01*
X1415167Y221895D01*
X1417311Y224039D01*
X1420112Y225199D01*
X1435336Y225199D01*
X1438137Y224039D01*
X1440281Y221895D01*
X1441441Y219094D01*
X1441441Y216063D01*
X1440281Y213262D01*
X1438137Y211118D01*
X1435336Y209958D01*
X1420112Y209958D01*
G37*
%LPD*%
%LPC*%
G36*
X1141012Y209958D02*
X1141012Y209958D01*
X1138211Y211118D01*
X1136067Y213262D01*
X1134907Y216063D01*
X1134907Y219094D01*
X1136067Y221895D01*
X1138211Y224039D01*
X1141012Y225199D01*
X1156236Y225199D01*
X1159037Y224039D01*
X1161181Y221895D01*
X1162341Y219094D01*
X1162341Y216063D01*
X1161181Y213262D01*
X1159037Y211118D01*
X1156236Y209958D01*
X1141012Y209958D01*
G37*
%LPD*%
%LPC*%
G36*
X798562Y184558D02*
X798562Y184558D01*
X795761Y185718D01*
X793617Y187862D01*
X792457Y190663D01*
X792457Y193694D01*
X793617Y196495D01*
X795761Y198639D01*
X798562Y199799D01*
X813786Y199799D01*
X816587Y198639D01*
X818731Y196495D01*
X819891Y193694D01*
X819891Y190663D01*
X818731Y187862D01*
X816587Y185718D01*
X813786Y184558D01*
X798562Y184558D01*
G37*
%LPD*%
%LPC*%
G36*
X100804Y184558D02*
X100804Y184558D01*
X98004Y185718D01*
X95860Y187862D01*
X94700Y190663D01*
X94700Y193694D01*
X95860Y196495D01*
X98004Y198639D01*
X100804Y199799D01*
X116028Y199799D01*
X118829Y198639D01*
X120973Y196495D01*
X122133Y193694D01*
X122133Y190663D01*
X120973Y187862D01*
X118829Y185718D01*
X116028Y184558D01*
X100804Y184558D01*
G37*
%LPD*%
%LPC*%
G36*
X938112Y184558D02*
X938112Y184558D01*
X935311Y185718D01*
X933167Y187862D01*
X932007Y190663D01*
X932007Y193694D01*
X933167Y196495D01*
X935311Y198639D01*
X938112Y199799D01*
X953336Y199799D01*
X956137Y198639D01*
X958281Y196495D01*
X959441Y193694D01*
X959441Y190663D01*
X958281Y187862D01*
X956137Y185718D01*
X953336Y184558D01*
X938112Y184558D01*
G37*
%LPD*%
%LPC*%
G36*
X1356762Y184558D02*
X1356762Y184558D01*
X1353961Y185718D01*
X1351817Y187862D01*
X1350657Y190663D01*
X1350657Y193694D01*
X1351817Y196495D01*
X1353961Y198639D01*
X1356762Y199799D01*
X1371986Y199799D01*
X1374787Y198639D01*
X1376931Y196495D01*
X1378091Y193694D01*
X1378091Y190663D01*
X1376931Y187862D01*
X1374787Y185718D01*
X1371986Y184558D01*
X1356762Y184558D01*
G37*
%LPD*%
%LPC*%
G36*
X1001462Y184558D02*
X1001462Y184558D01*
X998661Y185718D01*
X996517Y187862D01*
X995357Y190663D01*
X995357Y193694D01*
X996517Y196495D01*
X998661Y198639D01*
X1001462Y199799D01*
X1016686Y199799D01*
X1019487Y198639D01*
X1021631Y196495D01*
X1022791Y193694D01*
X1022791Y190663D01*
X1021631Y187862D01*
X1019487Y185718D01*
X1016686Y184558D01*
X1001462Y184558D01*
G37*
%LPD*%
%LPC*%
G36*
X1280562Y209958D02*
X1280562Y209958D01*
X1277761Y211118D01*
X1275617Y213262D01*
X1274457Y216063D01*
X1274457Y219094D01*
X1275617Y221895D01*
X1277761Y224039D01*
X1280562Y225199D01*
X1295786Y225199D01*
X1298587Y224039D01*
X1300731Y221895D01*
X1301891Y219094D01*
X1301891Y216063D01*
X1300731Y213262D01*
X1298587Y211118D01*
X1295786Y209958D01*
X1280562Y209958D01*
G37*
%LPD*%
%LPC*%
G36*
X1077662Y184558D02*
X1077662Y184558D01*
X1074861Y185718D01*
X1072717Y187862D01*
X1071557Y190663D01*
X1071557Y193694D01*
X1072717Y196495D01*
X1074861Y198639D01*
X1077662Y199799D01*
X1092886Y199799D01*
X1095687Y198639D01*
X1097831Y196495D01*
X1098991Y193694D01*
X1098991Y190663D01*
X1097831Y187862D01*
X1095687Y185718D01*
X1092886Y184558D01*
X1077662Y184558D01*
G37*
%LPD*%
%LPC*%
G36*
X1420112Y184558D02*
X1420112Y184558D01*
X1417311Y185718D01*
X1415167Y187862D01*
X1414007Y190663D01*
X1414007Y193694D01*
X1415167Y196495D01*
X1417311Y198639D01*
X1420112Y199799D01*
X1435336Y199799D01*
X1438137Y198639D01*
X1440281Y196495D01*
X1441441Y193694D01*
X1441441Y190663D01*
X1440281Y187862D01*
X1438137Y185718D01*
X1435336Y184558D01*
X1420112Y184558D01*
G37*
%LPD*%
%LPC*%
G36*
X659012Y184558D02*
X659012Y184558D01*
X656211Y185718D01*
X654067Y187862D01*
X652907Y190663D01*
X652907Y193694D01*
X654067Y196495D01*
X656211Y198639D01*
X659012Y199799D01*
X674236Y199799D01*
X677037Y198639D01*
X679181Y196495D01*
X680341Y193694D01*
X680341Y190663D01*
X679181Y187862D01*
X677037Y185718D01*
X674236Y184558D01*
X659012Y184558D01*
G37*
%LPD*%
%LPC*%
G36*
X1496312Y184558D02*
X1496312Y184558D01*
X1493511Y185718D01*
X1491367Y187862D01*
X1490207Y190663D01*
X1490207Y193694D01*
X1491367Y196495D01*
X1493511Y198639D01*
X1496312Y199799D01*
X1511536Y199799D01*
X1514337Y198639D01*
X1516481Y196495D01*
X1517641Y193694D01*
X1517641Y190663D01*
X1516481Y187862D01*
X1514337Y185718D01*
X1511536Y184558D01*
X1496312Y184558D01*
G37*
%LPD*%
%LPC*%
G36*
X1559662Y184558D02*
X1559662Y184558D01*
X1556861Y185718D01*
X1554717Y187862D01*
X1553557Y190663D01*
X1553557Y193694D01*
X1554717Y196495D01*
X1556861Y198639D01*
X1559662Y199799D01*
X1574886Y199799D01*
X1577687Y198639D01*
X1579831Y196495D01*
X1580991Y193694D01*
X1580991Y190663D01*
X1579831Y187862D01*
X1577687Y185718D01*
X1574886Y184558D01*
X1559662Y184558D01*
G37*
%LPD*%
%LPC*%
G36*
X169112Y184558D02*
X169112Y184558D01*
X166311Y185718D01*
X164167Y187862D01*
X163007Y190663D01*
X163007Y193694D01*
X164167Y196495D01*
X166311Y198639D01*
X169112Y199799D01*
X184336Y199799D01*
X187137Y198639D01*
X189281Y196495D01*
X190441Y193694D01*
X190441Y190663D01*
X189281Y187862D01*
X187137Y185718D01*
X184336Y184558D01*
X169112Y184558D01*
G37*
%LPD*%
%LPC*%
G36*
X582812Y184558D02*
X582812Y184558D01*
X580011Y185718D01*
X577867Y187862D01*
X576707Y190663D01*
X576707Y193694D01*
X577867Y196495D01*
X580011Y198639D01*
X582812Y199799D01*
X598036Y199799D01*
X600837Y198639D01*
X602981Y196495D01*
X604141Y193694D01*
X604141Y190663D01*
X602981Y187862D01*
X600837Y185718D01*
X598036Y184558D01*
X582812Y184558D01*
G37*
%LPD*%
%LPC*%
G36*
X519462Y184558D02*
X519462Y184558D01*
X516661Y185718D01*
X514517Y187862D01*
X513357Y190663D01*
X513357Y193694D01*
X514517Y196495D01*
X516661Y198639D01*
X519462Y199799D01*
X534686Y199799D01*
X537487Y198639D01*
X539631Y196495D01*
X540791Y193694D01*
X540791Y190663D01*
X539631Y187862D01*
X537487Y185718D01*
X534686Y184558D01*
X519462Y184558D01*
G37*
%LPD*%
%LPC*%
G36*
X443262Y184558D02*
X443262Y184558D01*
X440461Y185718D01*
X438317Y187862D01*
X437157Y190663D01*
X437157Y193694D01*
X438317Y196495D01*
X440461Y198639D01*
X443262Y199799D01*
X458486Y199799D01*
X461287Y198639D01*
X463431Y196495D01*
X464591Y193694D01*
X464591Y190663D01*
X463431Y187862D01*
X461287Y185718D01*
X458486Y184558D01*
X443262Y184558D01*
G37*
%LPD*%
%LPC*%
G36*
X861912Y209958D02*
X861912Y209958D01*
X859111Y211118D01*
X856967Y213262D01*
X855807Y216063D01*
X855807Y219094D01*
X856967Y221895D01*
X859111Y224039D01*
X861912Y225199D01*
X877136Y225199D01*
X879937Y224039D01*
X882081Y221895D01*
X883241Y219094D01*
X883241Y216063D01*
X882081Y213262D01*
X879937Y211118D01*
X877136Y209958D01*
X861912Y209958D01*
G37*
%LPD*%
%LPC*%
G36*
X303712Y184558D02*
X303712Y184558D01*
X300911Y185718D01*
X298767Y187862D01*
X297607Y190663D01*
X297607Y193694D01*
X298767Y196495D01*
X300911Y198639D01*
X303712Y199799D01*
X318936Y199799D01*
X321737Y198639D01*
X323881Y196495D01*
X325041Y193694D01*
X325041Y190663D01*
X323881Y187862D01*
X321737Y185718D01*
X318936Y184558D01*
X303712Y184558D01*
G37*
%LPD*%
%LPC*%
G36*
X245312Y184558D02*
X245312Y184558D01*
X242511Y185718D01*
X240367Y187862D01*
X239207Y190663D01*
X239207Y193694D01*
X240367Y196495D01*
X242511Y198639D01*
X245312Y199799D01*
X260536Y199799D01*
X263337Y198639D01*
X265481Y196495D01*
X266641Y193694D01*
X266641Y190663D01*
X265481Y187862D01*
X263337Y185718D01*
X260536Y184558D01*
X245312Y184558D01*
G37*
%LPD*%
%LPC*%
G36*
X1635862Y184558D02*
X1635862Y184558D01*
X1633061Y185718D01*
X1630917Y187862D01*
X1629757Y190663D01*
X1629757Y193694D01*
X1630917Y196495D01*
X1633061Y198639D01*
X1635862Y199799D01*
X1651086Y199799D01*
X1653887Y198639D01*
X1656031Y196495D01*
X1657191Y193694D01*
X1657191Y190663D01*
X1656031Y187862D01*
X1653887Y185718D01*
X1651086Y184558D01*
X1635862Y184558D01*
G37*
%LPD*%
%LPC*%
G36*
X1699212Y184558D02*
X1699212Y184558D01*
X1696411Y185718D01*
X1694267Y187862D01*
X1693107Y190663D01*
X1693107Y193694D01*
X1694267Y196495D01*
X1696411Y198639D01*
X1699212Y199799D01*
X1714436Y199799D01*
X1717237Y198639D01*
X1719381Y196495D01*
X1720541Y193694D01*
X1720541Y190663D01*
X1719381Y187862D01*
X1717237Y185718D01*
X1714436Y184558D01*
X1699212Y184558D01*
G37*
%LPD*%
%LPC*%
G36*
X722362Y184558D02*
X722362Y184558D01*
X719561Y185718D01*
X717417Y187862D01*
X716257Y190663D01*
X716257Y193694D01*
X717417Y196495D01*
X719561Y198639D01*
X722362Y199799D01*
X737586Y199799D01*
X740387Y198639D01*
X742531Y196495D01*
X743691Y193694D01*
X743691Y190663D01*
X742531Y187862D01*
X740387Y185718D01*
X737586Y184558D01*
X722362Y184558D01*
G37*
%LPD*%
%LPC*%
G36*
X1838762Y184558D02*
X1838762Y184558D01*
X1835961Y185718D01*
X1833817Y187862D01*
X1832657Y190663D01*
X1832657Y193694D01*
X1833817Y196495D01*
X1835961Y198639D01*
X1838762Y199799D01*
X1853986Y199799D01*
X1856787Y198639D01*
X1858931Y196495D01*
X1860091Y193694D01*
X1860091Y190663D01*
X1858931Y187862D01*
X1856787Y185718D01*
X1853986Y184558D01*
X1838762Y184558D01*
G37*
%LPD*%
%LPC*%
G36*
X1914962Y184558D02*
X1914962Y184558D01*
X1912161Y185718D01*
X1910017Y187862D01*
X1908857Y190663D01*
X1908857Y193694D01*
X1910017Y196495D01*
X1912161Y198639D01*
X1914962Y199799D01*
X1930186Y199799D01*
X1932987Y198639D01*
X1935131Y196495D01*
X1936291Y193694D01*
X1936291Y190663D01*
X1935131Y187862D01*
X1932987Y185718D01*
X1930186Y184558D01*
X1914962Y184558D01*
G37*
%LPD*%
%LPC*%
G36*
X1978312Y184558D02*
X1978312Y184558D01*
X1975511Y185718D01*
X1973367Y187862D01*
X1972207Y190663D01*
X1972207Y193694D01*
X1973367Y196495D01*
X1975511Y198639D01*
X1978312Y199799D01*
X1993536Y199799D01*
X1996337Y198639D01*
X1998481Y196495D01*
X1999641Y193694D01*
X1999641Y190663D01*
X1998481Y187862D01*
X1996337Y185718D01*
X1993536Y184558D01*
X1978312Y184558D01*
G37*
%LPD*%
%LPC*%
G36*
X2054512Y184558D02*
X2054512Y184558D01*
X2051711Y185718D01*
X2049567Y187862D01*
X2048407Y190663D01*
X2048407Y193694D01*
X2049567Y196495D01*
X2051711Y198639D01*
X2054512Y199799D01*
X2069736Y199799D01*
X2072537Y198639D01*
X2074681Y196495D01*
X2075841Y193694D01*
X2075841Y190663D01*
X2074681Y187862D01*
X2072537Y185718D01*
X2069736Y184558D01*
X2054512Y184558D01*
G37*
%LPD*%
%LPC*%
G36*
X379912Y184558D02*
X379912Y184558D01*
X377111Y185718D01*
X374967Y187862D01*
X373807Y190663D01*
X373807Y193694D01*
X374967Y196495D01*
X377111Y198639D01*
X379912Y199799D01*
X395136Y199799D01*
X397937Y198639D01*
X400081Y196495D01*
X401241Y193694D01*
X401241Y190663D01*
X400081Y187862D01*
X397937Y185718D01*
X395136Y184558D01*
X379912Y184558D01*
G37*
%LPD*%
%LPC*%
G36*
X861912Y184558D02*
X861912Y184558D01*
X859111Y185718D01*
X856967Y187862D01*
X855807Y190663D01*
X855807Y193694D01*
X856967Y196495D01*
X859111Y198639D01*
X861912Y199799D01*
X877136Y199799D01*
X879937Y198639D01*
X882081Y196495D01*
X883241Y193694D01*
X883241Y190663D01*
X882081Y187862D01*
X879937Y185718D01*
X877136Y184558D01*
X861912Y184558D01*
G37*
%LPD*%
%LPC*%
G36*
X725976Y65559D02*
X725976Y65559D01*
X723165Y68370D01*
X723165Y72346D01*
X725290Y74471D01*
X725303Y74487D01*
X725319Y74501D01*
X725381Y74594D01*
X725448Y74685D01*
X725455Y74704D01*
X725466Y74722D01*
X725476Y74766D01*
X725535Y74936D01*
X725539Y75048D01*
X725550Y75099D01*
X725550Y111337D01*
X725547Y111358D01*
X725549Y111379D01*
X725527Y111489D01*
X725510Y111600D01*
X725501Y111619D01*
X725497Y111640D01*
X725473Y111678D01*
X725395Y111839D01*
X725318Y111922D01*
X725290Y111965D01*
X723165Y114090D01*
X723165Y118066D01*
X725976Y120877D01*
X729952Y120877D01*
X732763Y118066D01*
X732763Y114090D01*
X730638Y111965D01*
X730625Y111949D01*
X730609Y111935D01*
X730547Y111842D01*
X730480Y111751D01*
X730473Y111732D01*
X730462Y111714D01*
X730452Y111670D01*
X730393Y111500D01*
X730389Y111388D01*
X730378Y111337D01*
X730378Y75099D01*
X730381Y75078D01*
X730379Y75057D01*
X730401Y74947D01*
X730418Y74836D01*
X730427Y74817D01*
X730431Y74796D01*
X730455Y74758D01*
X730533Y74597D01*
X730610Y74514D01*
X730638Y74471D01*
X732763Y72346D01*
X732763Y68370D01*
X729952Y65559D01*
X725976Y65559D01*
G37*
%LPD*%
%LPC*%
G36*
X662984Y72572D02*
X662984Y72572D01*
X660173Y75383D01*
X660173Y79359D01*
X662298Y81484D01*
X662311Y81500D01*
X662327Y81514D01*
X662389Y81607D01*
X662456Y81698D01*
X662463Y81717D01*
X662474Y81735D01*
X662484Y81779D01*
X662543Y81949D01*
X662547Y82061D01*
X662558Y82112D01*
X662558Y110782D01*
X662555Y110802D01*
X662557Y110823D01*
X662535Y110934D01*
X662518Y111044D01*
X662509Y111063D01*
X662505Y111084D01*
X662481Y111123D01*
X662403Y111284D01*
X662326Y111366D01*
X662298Y111410D01*
X660173Y113535D01*
X660173Y117510D01*
X662984Y120321D01*
X666960Y120321D01*
X669771Y117510D01*
X669771Y113535D01*
X667646Y111410D01*
X667633Y111393D01*
X667617Y111380D01*
X667555Y111286D01*
X667488Y111196D01*
X667481Y111176D01*
X667470Y111158D01*
X667460Y111114D01*
X667401Y110945D01*
X667397Y110832D01*
X667386Y110782D01*
X667386Y82112D01*
X667389Y82091D01*
X667387Y82070D01*
X667409Y81960D01*
X667426Y81849D01*
X667435Y81830D01*
X667439Y81809D01*
X667463Y81771D01*
X667541Y81610D01*
X667618Y81527D01*
X667646Y81484D01*
X669771Y79359D01*
X669771Y75383D01*
X666960Y72572D01*
X662984Y72572D01*
G37*
%LPD*%
%LPC*%
G36*
X649014Y72826D02*
X649014Y72826D01*
X646203Y75637D01*
X646203Y79613D01*
X648836Y82246D01*
X648849Y82262D01*
X648865Y82276D01*
X648927Y82369D01*
X648994Y82460D01*
X649001Y82479D01*
X649012Y82497D01*
X649022Y82541D01*
X649081Y82711D01*
X649085Y82823D01*
X649096Y82874D01*
X649096Y111036D01*
X649093Y111056D01*
X649095Y111077D01*
X649078Y111164D01*
X649072Y111240D01*
X649061Y111266D01*
X649056Y111298D01*
X649047Y111317D01*
X649043Y111338D01*
X649019Y111377D01*
X649009Y111397D01*
X648973Y111487D01*
X648954Y111510D01*
X648941Y111538D01*
X648870Y111614D01*
X648861Y111624D01*
X648836Y111664D01*
X646965Y113535D01*
X646965Y117510D01*
X649776Y120321D01*
X653752Y120321D01*
X656563Y117510D01*
X656563Y113535D01*
X654184Y111156D01*
X654171Y111139D01*
X654155Y111126D01*
X654093Y111032D01*
X654026Y110942D01*
X654019Y110922D01*
X654008Y110904D01*
X653998Y110860D01*
X653939Y110691D01*
X653935Y110578D01*
X653924Y110528D01*
X653924Y81858D01*
X653927Y81837D01*
X653925Y81816D01*
X653947Y81706D01*
X653964Y81595D01*
X653973Y81576D01*
X653977Y81555D01*
X654001Y81517D01*
X654079Y81356D01*
X654156Y81273D01*
X654184Y81230D01*
X655801Y79613D01*
X655801Y75637D01*
X652990Y72826D01*
X649014Y72826D01*
G37*
%LPD*%
%LPC*%
G36*
X675176Y72826D02*
X675176Y72826D01*
X672365Y75637D01*
X672365Y79613D01*
X674236Y81484D01*
X674249Y81500D01*
X674265Y81514D01*
X674327Y81607D01*
X674394Y81698D01*
X674401Y81717D01*
X674412Y81735D01*
X674422Y81779D01*
X674481Y81949D01*
X674485Y82061D01*
X674496Y82112D01*
X674496Y110782D01*
X674493Y110802D01*
X674495Y110823D01*
X674473Y110934D01*
X674456Y111044D01*
X674447Y111063D01*
X674443Y111084D01*
X674419Y111123D01*
X674341Y111284D01*
X674264Y111366D01*
X674236Y111410D01*
X672111Y113535D01*
X672111Y117510D01*
X674922Y120321D01*
X678898Y120321D01*
X681709Y117510D01*
X681709Y113535D01*
X679584Y111410D01*
X679571Y111393D01*
X679555Y111380D01*
X679493Y111286D01*
X679426Y111196D01*
X679419Y111176D01*
X679408Y111158D01*
X679398Y111114D01*
X679339Y110945D01*
X679335Y110832D01*
X679324Y110782D01*
X679324Y82620D01*
X679327Y82599D01*
X679325Y82578D01*
X679347Y82468D01*
X679353Y82424D01*
X679355Y82409D01*
X679356Y82404D01*
X679364Y82357D01*
X679373Y82338D01*
X679377Y82317D01*
X679401Y82279D01*
X679433Y82212D01*
X679454Y82162D01*
X679464Y82149D01*
X679479Y82118D01*
X679556Y82035D01*
X679584Y81992D01*
X681963Y79613D01*
X681963Y75637D01*
X679152Y72826D01*
X675176Y72826D01*
G37*
%LPD*%
%LPC*%
G36*
X1608626Y74195D02*
X1608626Y74195D01*
X1605815Y77006D01*
X1605815Y80982D01*
X1608448Y83615D01*
X1608461Y83631D01*
X1608477Y83645D01*
X1608539Y83738D01*
X1608606Y83829D01*
X1608613Y83848D01*
X1608624Y83866D01*
X1608634Y83910D01*
X1608693Y84080D01*
X1608697Y84192D01*
X1608708Y84243D01*
X1608708Y110321D01*
X1608705Y110342D01*
X1608707Y110363D01*
X1608685Y110473D01*
X1608668Y110584D01*
X1608659Y110603D01*
X1608655Y110624D01*
X1608631Y110662D01*
X1608553Y110823D01*
X1608476Y110906D01*
X1608448Y110949D01*
X1606323Y113074D01*
X1606323Y117050D01*
X1609134Y119861D01*
X1613110Y119861D01*
X1615921Y117050D01*
X1615921Y113074D01*
X1613796Y110949D01*
X1613783Y110933D01*
X1613767Y110919D01*
X1613705Y110826D01*
X1613638Y110735D01*
X1613631Y110716D01*
X1613620Y110698D01*
X1613610Y110654D01*
X1613551Y110484D01*
X1613547Y110372D01*
X1613536Y110321D01*
X1613536Y83227D01*
X1613539Y83206D01*
X1613537Y83185D01*
X1613559Y83075D01*
X1613576Y82964D01*
X1613585Y82945D01*
X1613589Y82924D01*
X1613613Y82886D01*
X1613691Y82725D01*
X1613768Y82642D01*
X1613796Y82599D01*
X1615413Y80982D01*
X1615413Y77006D01*
X1612602Y74195D01*
X1608626Y74195D01*
G37*
%LPD*%
%LPC*%
G36*
X738676Y76236D02*
X738676Y76236D01*
X735865Y79047D01*
X735865Y83022D01*
X737990Y85147D01*
X738003Y85164D01*
X738019Y85177D01*
X738081Y85271D01*
X738148Y85361D01*
X738155Y85381D01*
X738166Y85398D01*
X738176Y85443D01*
X738235Y85612D01*
X738239Y85725D01*
X738250Y85775D01*
X738250Y111591D01*
X738247Y111612D01*
X738249Y111633D01*
X738227Y111743D01*
X738210Y111854D01*
X738201Y111873D01*
X738197Y111894D01*
X738173Y111932D01*
X738095Y112093D01*
X738018Y112176D01*
X737990Y112219D01*
X736119Y114090D01*
X736119Y118066D01*
X738930Y120877D01*
X742906Y120877D01*
X745717Y118066D01*
X745717Y114090D01*
X743338Y111711D01*
X743325Y111695D01*
X743309Y111681D01*
X743247Y111588D01*
X743180Y111497D01*
X743173Y111478D01*
X743162Y111460D01*
X743152Y111416D01*
X743093Y111246D01*
X743089Y111139D01*
X743080Y111098D01*
X743080Y111094D01*
X743078Y111083D01*
X743078Y85775D01*
X743081Y85754D01*
X743079Y85733D01*
X743101Y85623D01*
X743118Y85512D01*
X743127Y85493D01*
X743131Y85473D01*
X743155Y85434D01*
X743233Y85273D01*
X743310Y85190D01*
X743338Y85147D01*
X745463Y83022D01*
X745463Y79047D01*
X742652Y76236D01*
X738676Y76236D01*
G37*
%LPD*%
%LPC*%
G36*
X687622Y76236D02*
X687622Y76236D01*
X684811Y79047D01*
X684811Y83022D01*
X686936Y85147D01*
X686949Y85164D01*
X686965Y85177D01*
X687027Y85271D01*
X687094Y85361D01*
X687101Y85381D01*
X687112Y85398D01*
X687122Y85443D01*
X687181Y85612D01*
X687185Y85725D01*
X687196Y85775D01*
X687196Y110782D01*
X687193Y110802D01*
X687195Y110823D01*
X687173Y110934D01*
X687156Y111044D01*
X687147Y111063D01*
X687143Y111084D01*
X687119Y111123D01*
X687041Y111284D01*
X686964Y111366D01*
X686936Y111410D01*
X684811Y113535D01*
X684811Y117510D01*
X687622Y120321D01*
X691598Y120321D01*
X694409Y117510D01*
X694409Y113535D01*
X692284Y111410D01*
X692271Y111393D01*
X692255Y111380D01*
X692193Y111286D01*
X692126Y111196D01*
X692119Y111176D01*
X692108Y111158D01*
X692098Y111114D01*
X692039Y110945D01*
X692035Y110832D01*
X692024Y110782D01*
X692024Y85775D01*
X692027Y85754D01*
X692025Y85733D01*
X692047Y85623D01*
X692064Y85512D01*
X692073Y85493D01*
X692077Y85473D01*
X692101Y85434D01*
X692179Y85273D01*
X692256Y85190D01*
X692284Y85147D01*
X694409Y83022D01*
X694409Y79047D01*
X691598Y76236D01*
X687622Y76236D01*
G37*
%LPD*%
%LPC*%
G36*
X606088Y45902D02*
X606088Y45902D01*
X603277Y48713D01*
X603277Y52689D01*
X605402Y54814D01*
X605415Y54830D01*
X605431Y54844D01*
X605493Y54937D01*
X605560Y55028D01*
X605567Y55047D01*
X605578Y55065D01*
X605588Y55109D01*
X605647Y55279D01*
X605651Y55391D01*
X605662Y55442D01*
X605662Y79637D01*
X605659Y79658D01*
X605661Y79679D01*
X605639Y79790D01*
X605622Y79900D01*
X605613Y79919D01*
X605609Y79940D01*
X605585Y79978D01*
X605507Y80140D01*
X605430Y80222D01*
X605402Y80266D01*
X603023Y82644D01*
X603023Y86620D01*
X605834Y89431D01*
X609810Y89431D01*
X612621Y86620D01*
X612621Y82644D01*
X610750Y80774D01*
X610737Y80757D01*
X610721Y80743D01*
X610659Y80650D01*
X610592Y80560D01*
X610585Y80540D01*
X610574Y80522D01*
X610564Y80478D01*
X610505Y80309D01*
X610501Y80196D01*
X610490Y80145D01*
X610490Y55442D01*
X610493Y55421D01*
X610491Y55400D01*
X610513Y55290D01*
X610530Y55179D01*
X610539Y55160D01*
X610543Y55139D01*
X610567Y55101D01*
X610645Y54940D01*
X610722Y54857D01*
X610750Y54814D01*
X612875Y52689D01*
X612875Y48713D01*
X610064Y45902D01*
X606088Y45902D01*
G37*
%LPD*%
%LPC*%
G36*
X1621580Y80291D02*
X1621580Y80291D01*
X1618769Y83102D01*
X1618769Y87078D01*
X1620894Y89203D01*
X1620907Y89219D01*
X1620923Y89233D01*
X1620985Y89326D01*
X1621052Y89417D01*
X1621059Y89436D01*
X1621070Y89454D01*
X1621080Y89498D01*
X1621139Y89668D01*
X1621143Y89780D01*
X1621154Y89831D01*
X1621154Y110575D01*
X1621151Y110596D01*
X1621153Y110617D01*
X1621131Y110727D01*
X1621114Y110838D01*
X1621105Y110857D01*
X1621101Y110878D01*
X1621077Y110916D01*
X1620999Y111077D01*
X1620922Y111160D01*
X1620894Y111203D01*
X1618769Y113328D01*
X1618769Y117304D01*
X1621580Y120115D01*
X1625556Y120115D01*
X1628367Y117304D01*
X1628367Y113328D01*
X1626242Y111203D01*
X1626229Y111187D01*
X1626213Y111173D01*
X1626151Y111080D01*
X1626084Y110989D01*
X1626077Y110970D01*
X1626066Y110952D01*
X1626056Y110908D01*
X1625997Y110738D01*
X1625993Y110626D01*
X1625982Y110575D01*
X1625982Y89831D01*
X1625985Y89810D01*
X1625983Y89789D01*
X1626005Y89679D01*
X1626022Y89568D01*
X1626031Y89549D01*
X1626035Y89528D01*
X1626059Y89490D01*
X1626137Y89329D01*
X1626214Y89246D01*
X1626242Y89203D01*
X1628367Y87078D01*
X1628367Y83102D01*
X1625556Y80291D01*
X1621580Y80291D01*
G37*
%LPD*%
%LPC*%
G36*
X1634026Y83593D02*
X1634026Y83593D01*
X1631215Y86404D01*
X1631215Y90380D01*
X1633594Y92759D01*
X1633607Y92775D01*
X1633623Y92789D01*
X1633685Y92882D01*
X1633752Y92973D01*
X1633759Y92992D01*
X1633770Y93010D01*
X1633780Y93054D01*
X1633839Y93224D01*
X1633843Y93336D01*
X1633854Y93387D01*
X1633854Y110575D01*
X1633851Y110596D01*
X1633853Y110617D01*
X1633831Y110727D01*
X1633814Y110838D01*
X1633805Y110857D01*
X1633801Y110878D01*
X1633777Y110916D01*
X1633699Y111077D01*
X1633622Y111160D01*
X1633594Y111203D01*
X1631469Y113328D01*
X1631469Y117304D01*
X1634280Y120115D01*
X1638256Y120115D01*
X1641067Y117304D01*
X1641067Y113328D01*
X1638942Y111203D01*
X1638929Y111187D01*
X1638913Y111173D01*
X1638851Y111080D01*
X1638784Y110989D01*
X1638777Y110970D01*
X1638766Y110952D01*
X1638756Y110908D01*
X1638697Y110738D01*
X1638693Y110626D01*
X1638682Y110575D01*
X1638682Y92879D01*
X1638685Y92858D01*
X1638683Y92837D01*
X1638705Y92727D01*
X1638722Y92616D01*
X1638731Y92597D01*
X1638735Y92576D01*
X1638759Y92538D01*
X1638837Y92377D01*
X1638914Y92294D01*
X1638942Y92251D01*
X1640813Y90380D01*
X1640813Y86404D01*
X1638002Y83593D01*
X1634026Y83593D01*
G37*
%LPD*%
%LPC*%
G36*
X1673396Y87403D02*
X1673396Y87403D01*
X1670585Y90214D01*
X1670585Y94190D01*
X1671694Y95299D01*
X1671707Y95315D01*
X1671723Y95329D01*
X1671757Y95380D01*
X1671762Y95385D01*
X1671775Y95407D01*
X1671785Y95422D01*
X1671852Y95513D01*
X1671859Y95532D01*
X1671870Y95550D01*
X1671879Y95589D01*
X1671894Y95616D01*
X1671906Y95669D01*
X1671939Y95764D01*
X1671941Y95827D01*
X1671952Y95875D01*
X1671950Y95906D01*
X1671954Y95927D01*
X1671954Y110321D01*
X1671951Y110342D01*
X1671953Y110363D01*
X1671931Y110473D01*
X1671914Y110584D01*
X1671905Y110603D01*
X1671901Y110624D01*
X1671877Y110662D01*
X1671799Y110823D01*
X1671722Y110906D01*
X1671694Y110949D01*
X1669569Y113074D01*
X1669569Y117050D01*
X1672380Y119861D01*
X1676356Y119861D01*
X1679167Y117050D01*
X1679167Y113074D01*
X1677042Y110949D01*
X1677029Y110933D01*
X1677013Y110919D01*
X1676951Y110826D01*
X1676884Y110735D01*
X1676877Y110716D01*
X1676866Y110698D01*
X1676856Y110654D01*
X1676797Y110484D01*
X1676793Y110372D01*
X1676782Y110321D01*
X1676782Y97889D01*
X1676797Y97787D01*
X1676805Y97685D01*
X1676817Y97657D01*
X1676822Y97626D01*
X1676866Y97534D01*
X1676904Y97438D01*
X1676924Y97415D01*
X1676937Y97387D01*
X1677007Y97312D01*
X1677072Y97232D01*
X1677098Y97215D01*
X1677119Y97193D01*
X1677208Y97142D01*
X1677277Y97095D01*
X1680183Y94190D01*
X1680183Y90214D01*
X1677372Y87403D01*
X1673396Y87403D01*
G37*
%LPD*%
%LPC*%
G36*
X878376Y44632D02*
X878376Y44632D01*
X875565Y47443D01*
X875565Y51419D01*
X877690Y53544D01*
X877703Y53560D01*
X877719Y53574D01*
X877781Y53667D01*
X877848Y53758D01*
X877855Y53777D01*
X877866Y53795D01*
X877876Y53839D01*
X877880Y53849D01*
X877890Y53868D01*
X877898Y53901D01*
X877935Y54009D01*
X877938Y54080D01*
X877948Y54127D01*
X877946Y54153D01*
X877950Y54172D01*
X877950Y66633D01*
X877947Y66654D01*
X877949Y66675D01*
X877932Y66762D01*
X877927Y66828D01*
X877917Y66851D01*
X877910Y66896D01*
X877901Y66915D01*
X877897Y66936D01*
X877873Y66974D01*
X877844Y67034D01*
X877828Y67075D01*
X877819Y67085D01*
X877795Y67135D01*
X877718Y67218D01*
X877690Y67261D01*
X875565Y69386D01*
X875565Y73362D01*
X878376Y76173D01*
X882352Y76173D01*
X885163Y73362D01*
X885163Y69386D01*
X883038Y67261D01*
X883025Y67245D01*
X883009Y67231D01*
X882975Y67181D01*
X882970Y67175D01*
X882956Y67152D01*
X882947Y67138D01*
X882880Y67047D01*
X882873Y67028D01*
X882862Y67010D01*
X882853Y66971D01*
X882838Y66945D01*
X882826Y66891D01*
X882793Y66796D01*
X882791Y66734D01*
X882780Y66685D01*
X882782Y66654D01*
X882778Y66633D01*
X882778Y54172D01*
X882781Y54151D01*
X882779Y54130D01*
X882797Y54038D01*
X882801Y53985D01*
X882809Y53966D01*
X882818Y53909D01*
X882827Y53890D01*
X882831Y53869D01*
X882855Y53831D01*
X882933Y53670D01*
X883010Y53587D01*
X883038Y53544D01*
X885163Y51419D01*
X885163Y47443D01*
X882352Y44632D01*
X878376Y44632D01*
G37*
%LPD*%
%LPC*%
G36*
X1570780Y142521D02*
X1570780Y142521D01*
X1567969Y145332D01*
X1567969Y149308D01*
X1570094Y151433D01*
X1570107Y151449D01*
X1570123Y151463D01*
X1570185Y151556D01*
X1570252Y151647D01*
X1570259Y151666D01*
X1570270Y151684D01*
X1570280Y151728D01*
X1570339Y151898D01*
X1570343Y152010D01*
X1570354Y152061D01*
X1570354Y163915D01*
X1570351Y163936D01*
X1570353Y163957D01*
X1570331Y164067D01*
X1570314Y164178D01*
X1570305Y164197D01*
X1570301Y164218D01*
X1570277Y164256D01*
X1570199Y164417D01*
X1570122Y164500D01*
X1570094Y164543D01*
X1568223Y166414D01*
X1568223Y170390D01*
X1571034Y173201D01*
X1575010Y173201D01*
X1577821Y170390D01*
X1577821Y166414D01*
X1575442Y164035D01*
X1575429Y164019D01*
X1575413Y164005D01*
X1575351Y163912D01*
X1575284Y163821D01*
X1575277Y163802D01*
X1575266Y163784D01*
X1575256Y163740D01*
X1575197Y163570D01*
X1575193Y163458D01*
X1575182Y163407D01*
X1575182Y152061D01*
X1575185Y152040D01*
X1575183Y152019D01*
X1575205Y151909D01*
X1575222Y151798D01*
X1575231Y151779D01*
X1575235Y151758D01*
X1575259Y151720D01*
X1575337Y151559D01*
X1575414Y151476D01*
X1575442Y151433D01*
X1577567Y149308D01*
X1577567Y145332D01*
X1574756Y142521D01*
X1570780Y142521D01*
G37*
%LPD*%
%LPC*%
G36*
X1558080Y142775D02*
X1558080Y142775D01*
X1555269Y145586D01*
X1555269Y149562D01*
X1557140Y151433D01*
X1557153Y151449D01*
X1557169Y151463D01*
X1557231Y151556D01*
X1557298Y151647D01*
X1557305Y151666D01*
X1557316Y151684D01*
X1557326Y151728D01*
X1557385Y151898D01*
X1557389Y152010D01*
X1557400Y152061D01*
X1557400Y163407D01*
X1557397Y163428D01*
X1557399Y163449D01*
X1557377Y163559D01*
X1557360Y163670D01*
X1557351Y163689D01*
X1557347Y163710D01*
X1557323Y163748D01*
X1557245Y163909D01*
X1557168Y163992D01*
X1557140Y164035D01*
X1555015Y166160D01*
X1555015Y170136D01*
X1557826Y172947D01*
X1561802Y172947D01*
X1564613Y170136D01*
X1564613Y166160D01*
X1562488Y164035D01*
X1562475Y164019D01*
X1562459Y164005D01*
X1562397Y163912D01*
X1562330Y163821D01*
X1562323Y163802D01*
X1562312Y163784D01*
X1562302Y163740D01*
X1562243Y163570D01*
X1562239Y163458D01*
X1562228Y163407D01*
X1562228Y152569D01*
X1562231Y152548D01*
X1562229Y152527D01*
X1562251Y152417D01*
X1562268Y152306D01*
X1562277Y152287D01*
X1562281Y152266D01*
X1562305Y152228D01*
X1562383Y152067D01*
X1562460Y151984D01*
X1562488Y151941D01*
X1564867Y149562D01*
X1564867Y145586D01*
X1562056Y142775D01*
X1558080Y142775D01*
G37*
%LPD*%
%LPC*%
G36*
X1647234Y90705D02*
X1647234Y90705D01*
X1644423Y93516D01*
X1644423Y97492D01*
X1646548Y99617D01*
X1646561Y99633D01*
X1646577Y99647D01*
X1646639Y99740D01*
X1646706Y99831D01*
X1646713Y99850D01*
X1646724Y99868D01*
X1646734Y99912D01*
X1646793Y100082D01*
X1646797Y100194D01*
X1646808Y100245D01*
X1646808Y110575D01*
X1646805Y110596D01*
X1646807Y110617D01*
X1646785Y110727D01*
X1646768Y110838D01*
X1646759Y110857D01*
X1646755Y110878D01*
X1646731Y110916D01*
X1646653Y111077D01*
X1646576Y111160D01*
X1646548Y111203D01*
X1644423Y113328D01*
X1644423Y117304D01*
X1647234Y120115D01*
X1651210Y120115D01*
X1654021Y117304D01*
X1654021Y113328D01*
X1651896Y111203D01*
X1651883Y111187D01*
X1651867Y111173D01*
X1651805Y111080D01*
X1651738Y110989D01*
X1651731Y110970D01*
X1651720Y110952D01*
X1651710Y110908D01*
X1651651Y110738D01*
X1651647Y110626D01*
X1651636Y110575D01*
X1651636Y100245D01*
X1651639Y100224D01*
X1651637Y100203D01*
X1651659Y100093D01*
X1651676Y99982D01*
X1651685Y99963D01*
X1651689Y99942D01*
X1651713Y99904D01*
X1651791Y99743D01*
X1651868Y99660D01*
X1651896Y99617D01*
X1654021Y97492D01*
X1654021Y93516D01*
X1651210Y90705D01*
X1647234Y90705D01*
G37*
%LPD*%
%LPC*%
G36*
X865676Y44632D02*
X865676Y44632D01*
X862865Y47443D01*
X862865Y51419D01*
X864990Y53544D01*
X865003Y53560D01*
X865019Y53574D01*
X865081Y53667D01*
X865148Y53758D01*
X865155Y53777D01*
X865166Y53795D01*
X865176Y53839D01*
X865180Y53849D01*
X865190Y53868D01*
X865198Y53901D01*
X865235Y54009D01*
X865238Y54080D01*
X865248Y54127D01*
X865246Y54153D01*
X865250Y54172D01*
X865250Y63021D01*
X865247Y63042D01*
X865249Y63063D01*
X865227Y63173D01*
X865210Y63284D01*
X865201Y63303D01*
X865197Y63324D01*
X865173Y63362D01*
X865095Y63523D01*
X865018Y63606D01*
X864990Y63649D01*
X862865Y65774D01*
X862865Y69750D01*
X865676Y72561D01*
X869652Y72561D01*
X872463Y69750D01*
X872463Y65774D01*
X870338Y63649D01*
X870325Y63633D01*
X870309Y63619D01*
X870247Y63526D01*
X870180Y63435D01*
X870173Y63416D01*
X870162Y63398D01*
X870152Y63354D01*
X870093Y63184D01*
X870089Y63072D01*
X870078Y63021D01*
X870078Y54172D01*
X870081Y54151D01*
X870079Y54130D01*
X870097Y54038D01*
X870101Y53985D01*
X870109Y53966D01*
X870118Y53909D01*
X870127Y53890D01*
X870131Y53869D01*
X870155Y53831D01*
X870233Y53670D01*
X870310Y53587D01*
X870338Y53544D01*
X872463Y51419D01*
X872463Y47443D01*
X869652Y44632D01*
X865676Y44632D01*
G37*
%LPD*%
%LPC*%
G36*
X878376Y95841D02*
X878376Y95841D01*
X875565Y98652D01*
X875565Y102628D01*
X877690Y104753D01*
X877703Y104769D01*
X877719Y104783D01*
X877781Y104876D01*
X877848Y104967D01*
X877855Y104986D01*
X877866Y105004D01*
X877876Y105048D01*
X877935Y105218D01*
X877939Y105330D01*
X877950Y105381D01*
X877950Y111083D01*
X877947Y111104D01*
X877949Y111125D01*
X877927Y111235D01*
X877927Y111240D01*
X877926Y111240D01*
X877910Y111346D01*
X877901Y111365D01*
X877897Y111386D01*
X877873Y111424D01*
X877795Y111585D01*
X877718Y111668D01*
X877690Y111711D01*
X875565Y113836D01*
X875565Y117812D01*
X878376Y120623D01*
X882352Y120623D01*
X885163Y117812D01*
X885163Y113836D01*
X883038Y111711D01*
X883025Y111695D01*
X883009Y111681D01*
X882947Y111588D01*
X882880Y111497D01*
X882873Y111478D01*
X882862Y111460D01*
X882852Y111416D01*
X882793Y111246D01*
X882789Y111139D01*
X882780Y111098D01*
X882780Y111094D01*
X882778Y111083D01*
X882778Y105381D01*
X882781Y105360D01*
X882779Y105339D01*
X882801Y105229D01*
X882818Y105118D01*
X882827Y105099D01*
X882831Y105078D01*
X882855Y105040D01*
X882933Y104879D01*
X883010Y104796D01*
X883038Y104753D01*
X885163Y102628D01*
X885163Y98652D01*
X882352Y95841D01*
X878376Y95841D01*
G37*
%LPD*%
%LPC*%
G36*
X1191558Y44985D02*
X1191558Y44985D01*
X1188747Y47796D01*
X1188747Y51772D01*
X1190872Y53897D01*
X1190885Y53913D01*
X1190901Y53927D01*
X1190963Y54020D01*
X1191030Y54111D01*
X1191037Y54130D01*
X1191048Y54148D01*
X1191058Y54192D01*
X1191117Y54362D01*
X1191121Y54474D01*
X1191132Y54525D01*
X1191132Y59013D01*
X1191129Y59034D01*
X1191131Y59055D01*
X1191109Y59165D01*
X1191092Y59276D01*
X1191083Y59295D01*
X1191079Y59316D01*
X1191055Y59354D01*
X1190977Y59515D01*
X1190900Y59598D01*
X1190872Y59641D01*
X1187985Y62528D01*
X1187985Y66504D01*
X1190796Y69315D01*
X1194772Y69315D01*
X1197583Y66504D01*
X1197583Y62528D01*
X1196220Y61165D01*
X1196207Y61149D01*
X1196191Y61135D01*
X1196129Y61042D01*
X1196062Y60951D01*
X1196055Y60932D01*
X1196044Y60914D01*
X1196034Y60870D01*
X1195975Y60700D01*
X1195971Y60588D01*
X1195960Y60537D01*
X1195960Y54525D01*
X1195963Y54504D01*
X1195961Y54483D01*
X1195983Y54373D01*
X1196000Y54262D01*
X1196009Y54243D01*
X1196013Y54222D01*
X1196037Y54184D01*
X1196115Y54023D01*
X1196192Y53940D01*
X1196220Y53897D01*
X1198345Y51772D01*
X1198345Y47796D01*
X1195534Y44985D01*
X1191558Y44985D01*
G37*
%LPD*%
%LPC*%
G36*
X852976Y44632D02*
X852976Y44632D01*
X850165Y47443D01*
X850165Y51419D01*
X852290Y53544D01*
X852303Y53560D01*
X852319Y53574D01*
X852381Y53667D01*
X852448Y53758D01*
X852455Y53777D01*
X852466Y53795D01*
X852476Y53839D01*
X852480Y53849D01*
X852490Y53868D01*
X852498Y53901D01*
X852535Y54009D01*
X852538Y54080D01*
X852548Y54127D01*
X852546Y54153D01*
X852550Y54172D01*
X852550Y59366D01*
X852547Y59387D01*
X852549Y59408D01*
X852527Y59519D01*
X852510Y59629D01*
X852501Y59648D01*
X852497Y59669D01*
X852473Y59707D01*
X852395Y59869D01*
X852318Y59951D01*
X852290Y59994D01*
X850165Y62119D01*
X850165Y66095D01*
X852976Y68906D01*
X856952Y68906D01*
X859763Y66095D01*
X859763Y62119D01*
X857638Y59994D01*
X857625Y59978D01*
X857609Y59964D01*
X857547Y59871D01*
X857480Y59781D01*
X857473Y59761D01*
X857462Y59743D01*
X857452Y59699D01*
X857393Y59529D01*
X857389Y59417D01*
X857378Y59366D01*
X857378Y54172D01*
X857381Y54151D01*
X857379Y54130D01*
X857397Y54038D01*
X857401Y53985D01*
X857409Y53966D01*
X857418Y53909D01*
X857427Y53890D01*
X857431Y53869D01*
X857455Y53831D01*
X857533Y53670D01*
X857610Y53587D01*
X857638Y53544D01*
X859763Y51419D01*
X859763Y47443D01*
X856952Y44632D01*
X852976Y44632D01*
G37*
%LPD*%
%LPC*%
G36*
X840530Y44632D02*
X840530Y44632D01*
X837719Y47443D01*
X837719Y51419D01*
X839590Y53290D01*
X839603Y53306D01*
X839619Y53320D01*
X839681Y53413D01*
X839748Y53503D01*
X839755Y53523D01*
X839766Y53541D01*
X839776Y53585D01*
X839835Y53755D01*
X839839Y53867D01*
X839850Y53918D01*
X839850Y57235D01*
X839847Y57256D01*
X839849Y57277D01*
X839827Y57387D01*
X839810Y57498D01*
X839801Y57517D01*
X839797Y57538D01*
X839773Y57576D01*
X839695Y57737D01*
X839618Y57820D01*
X839590Y57863D01*
X837465Y59988D01*
X837465Y63964D01*
X840276Y66775D01*
X844252Y66775D01*
X847063Y63964D01*
X847063Y59988D01*
X844938Y57863D01*
X844925Y57847D01*
X844909Y57833D01*
X844847Y57740D01*
X844780Y57649D01*
X844773Y57630D01*
X844762Y57612D01*
X844752Y57568D01*
X844693Y57398D01*
X844689Y57286D01*
X844678Y57235D01*
X844678Y54426D01*
X844681Y54405D01*
X844679Y54384D01*
X844701Y54273D01*
X844718Y54163D01*
X844727Y54144D01*
X844731Y54123D01*
X844755Y54085D01*
X844833Y53923D01*
X844910Y53841D01*
X844938Y53798D01*
X847317Y51419D01*
X847317Y47443D01*
X844506Y44632D01*
X840530Y44632D01*
G37*
%LPD*%
%LPC*%
G36*
X865422Y99496D02*
X865422Y99496D01*
X862611Y102307D01*
X862611Y106283D01*
X864736Y108408D01*
X864749Y108424D01*
X864765Y108438D01*
X864827Y108531D01*
X864894Y108622D01*
X864901Y108641D01*
X864912Y108659D01*
X864922Y108703D01*
X864981Y108873D01*
X864985Y108985D01*
X864996Y109036D01*
X864996Y111337D01*
X864993Y111358D01*
X864995Y111379D01*
X864973Y111490D01*
X864956Y111600D01*
X864947Y111619D01*
X864943Y111640D01*
X864919Y111678D01*
X864841Y111840D01*
X864764Y111922D01*
X864736Y111965D01*
X862611Y114090D01*
X862611Y118066D01*
X865422Y120877D01*
X869398Y120877D01*
X872209Y118066D01*
X872209Y114090D01*
X870084Y111965D01*
X870071Y111949D01*
X870055Y111935D01*
X869993Y111842D01*
X869926Y111752D01*
X869919Y111732D01*
X869908Y111714D01*
X869898Y111670D01*
X869839Y111500D01*
X869835Y111388D01*
X869824Y111337D01*
X869824Y109036D01*
X869827Y109015D01*
X869825Y108994D01*
X869847Y108884D01*
X869864Y108773D01*
X869873Y108754D01*
X869877Y108733D01*
X869901Y108695D01*
X869979Y108534D01*
X870056Y108451D01*
X870084Y108408D01*
X872209Y106283D01*
X872209Y102307D01*
X869398Y99496D01*
X865422Y99496D01*
G37*
%LPD*%
%LPC*%
G36*
X840530Y99750D02*
X840530Y99750D01*
X837719Y102561D01*
X837719Y106537D01*
X839590Y108408D01*
X839603Y108424D01*
X839619Y108438D01*
X839681Y108531D01*
X839748Y108622D01*
X839755Y108641D01*
X839766Y108659D01*
X839776Y108703D01*
X839835Y108873D01*
X839839Y108985D01*
X839850Y109036D01*
X839850Y111337D01*
X839847Y111358D01*
X839849Y111379D01*
X839827Y111489D01*
X839810Y111600D01*
X839801Y111619D01*
X839797Y111640D01*
X839773Y111678D01*
X839695Y111839D01*
X839618Y111922D01*
X839590Y111965D01*
X837465Y114090D01*
X837465Y118066D01*
X840276Y120877D01*
X844252Y120877D01*
X847063Y118066D01*
X847063Y114090D01*
X844938Y111965D01*
X844925Y111949D01*
X844909Y111935D01*
X844847Y111842D01*
X844780Y111751D01*
X844773Y111732D01*
X844762Y111714D01*
X844752Y111670D01*
X844693Y111500D01*
X844689Y111388D01*
X844678Y111337D01*
X844678Y109544D01*
X844681Y109523D01*
X844679Y109502D01*
X844701Y109392D01*
X844718Y109281D01*
X844727Y109262D01*
X844731Y109241D01*
X844755Y109203D01*
X844833Y109042D01*
X844910Y108959D01*
X844938Y108916D01*
X847317Y106537D01*
X847317Y102561D01*
X844506Y99750D01*
X840530Y99750D01*
G37*
%LPD*%
%LPC*%
G36*
X1784801Y208942D02*
X1784801Y208942D01*
X1784801Y215801D01*
X1797572Y215801D01*
X1797425Y215059D01*
X1796774Y213488D01*
X1795829Y212073D01*
X1794626Y210870D01*
X1793211Y209925D01*
X1791639Y209274D01*
X1789971Y208942D01*
X1784801Y208942D01*
G37*
%LPD*%
%LPC*%
G36*
X254701Y208942D02*
X254701Y208942D01*
X254701Y215801D01*
X267472Y215801D01*
X267325Y215059D01*
X266674Y213488D01*
X265729Y212073D01*
X264526Y210870D01*
X263111Y209925D01*
X261539Y209274D01*
X259871Y208942D01*
X254701Y208942D01*
G37*
%LPD*%
%LPC*%
G36*
X1924351Y208942D02*
X1924351Y208942D01*
X1924351Y215801D01*
X1937122Y215801D01*
X1936975Y215059D01*
X1936324Y213488D01*
X1935379Y212073D01*
X1934176Y210870D01*
X1932761Y209925D01*
X1931189Y209274D01*
X1929521Y208942D01*
X1924351Y208942D01*
G37*
%LPD*%
%LPC*%
G36*
X1645251Y208942D02*
X1645251Y208942D01*
X1645251Y215801D01*
X1658022Y215801D01*
X1657875Y215059D01*
X1657224Y213488D01*
X1656279Y212073D01*
X1655076Y210870D01*
X1653661Y209925D01*
X1652089Y209274D01*
X1650421Y208942D01*
X1645251Y208942D01*
G37*
%LPD*%
%LPC*%
G36*
X2063901Y208942D02*
X2063901Y208942D01*
X2063901Y215801D01*
X2076672Y215801D01*
X2076525Y215059D01*
X2075874Y213488D01*
X2074929Y212073D01*
X2073726Y210870D01*
X2072311Y209925D01*
X2070739Y209274D01*
X2069071Y208942D01*
X2063901Y208942D01*
G37*
%LPD*%
%LPC*%
G36*
X1505701Y208942D02*
X1505701Y208942D01*
X1505701Y215801D01*
X1518472Y215801D01*
X1518325Y215059D01*
X1517674Y213488D01*
X1516729Y212073D01*
X1515526Y210870D01*
X1514111Y209925D01*
X1512539Y209274D01*
X1510871Y208942D01*
X1505701Y208942D01*
G37*
%LPD*%
%LPC*%
G36*
X528851Y208942D02*
X528851Y208942D01*
X528851Y215801D01*
X541622Y215801D01*
X541475Y215059D01*
X540824Y213488D01*
X539879Y212073D01*
X538676Y210870D01*
X537261Y209925D01*
X535689Y209274D01*
X534021Y208942D01*
X528851Y208942D01*
G37*
%LPD*%
%LPC*%
G36*
X1087051Y208942D02*
X1087051Y208942D01*
X1087051Y215801D01*
X1099822Y215801D01*
X1099675Y215059D01*
X1099024Y213488D01*
X1098079Y212073D01*
X1096876Y210870D01*
X1095461Y209925D01*
X1093889Y209274D01*
X1092221Y208942D01*
X1087051Y208942D01*
G37*
%LPD*%
%LPC*%
G36*
X110193Y208942D02*
X110193Y208942D01*
X110193Y215801D01*
X122965Y215801D01*
X122817Y215059D01*
X122166Y213488D01*
X121221Y212073D01*
X120018Y210870D01*
X118603Y209925D01*
X117032Y209274D01*
X115363Y208942D01*
X110193Y208942D01*
G37*
%LPD*%
%LPC*%
G36*
X947501Y208942D02*
X947501Y208942D01*
X947501Y215801D01*
X960272Y215801D01*
X960125Y215059D01*
X959474Y213488D01*
X958529Y212073D01*
X957326Y210870D01*
X955911Y209925D01*
X954339Y209274D01*
X952671Y208942D01*
X947501Y208942D01*
G37*
%LPD*%
%LPC*%
G36*
X668401Y208942D02*
X668401Y208942D01*
X668401Y215801D01*
X681172Y215801D01*
X681025Y215059D01*
X680374Y213488D01*
X679429Y212073D01*
X678226Y210870D01*
X676811Y209925D01*
X675239Y209274D01*
X673571Y208942D01*
X668401Y208942D01*
G37*
%LPD*%
%LPC*%
G36*
X1366151Y208942D02*
X1366151Y208942D01*
X1366151Y215801D01*
X1378922Y215801D01*
X1378775Y215059D01*
X1378124Y213488D01*
X1377179Y212073D01*
X1375976Y210870D01*
X1374561Y209925D01*
X1372989Y209274D01*
X1371321Y208942D01*
X1366151Y208942D01*
G37*
%LPD*%
%LPC*%
G36*
X807951Y208942D02*
X807951Y208942D01*
X807951Y215801D01*
X820722Y215801D01*
X820575Y215059D01*
X819924Y213488D01*
X818979Y212073D01*
X817776Y210870D01*
X816361Y209925D01*
X814789Y209274D01*
X813121Y208942D01*
X807951Y208942D01*
G37*
%LPD*%
%LPC*%
G36*
X1226601Y208942D02*
X1226601Y208942D01*
X1226601Y215801D01*
X1239372Y215801D01*
X1239225Y215059D01*
X1238574Y213488D01*
X1237629Y212073D01*
X1236426Y210870D01*
X1235011Y209925D01*
X1233439Y209274D01*
X1231771Y208942D01*
X1226601Y208942D01*
G37*
%LPD*%
%LPC*%
G36*
X389301Y208942D02*
X389301Y208942D01*
X389301Y215801D01*
X402072Y215801D01*
X401925Y215059D01*
X401274Y213488D01*
X400329Y212073D01*
X399126Y210870D01*
X397711Y209925D01*
X396139Y209274D01*
X394471Y208942D01*
X389301Y208942D01*
G37*
%LPD*%
%LPC*%
G36*
X799227Y208942D02*
X799227Y208942D01*
X797559Y209274D01*
X795987Y209925D01*
X794572Y210870D01*
X793369Y212073D01*
X792424Y213488D01*
X791773Y215059D01*
X791626Y215801D01*
X804397Y215801D01*
X804397Y208942D01*
X799227Y208942D01*
G37*
%LPD*%
%LPC*%
G36*
X1496977Y208942D02*
X1496977Y208942D01*
X1495309Y209274D01*
X1493737Y209925D01*
X1492322Y210870D01*
X1491119Y212073D01*
X1490174Y213488D01*
X1489523Y215059D01*
X1489376Y215801D01*
X1502147Y215801D01*
X1502147Y208942D01*
X1496977Y208942D01*
G37*
%LPD*%
%LPC*%
G36*
X659677Y208942D02*
X659677Y208942D01*
X658009Y209274D01*
X656437Y209925D01*
X655022Y210870D01*
X653819Y212073D01*
X652874Y213488D01*
X652223Y215059D01*
X652076Y215801D01*
X664847Y215801D01*
X664847Y208942D01*
X659677Y208942D01*
G37*
%LPD*%
%LPC*%
G36*
X2055177Y208942D02*
X2055177Y208942D01*
X2053509Y209274D01*
X2051937Y209925D01*
X2050522Y210870D01*
X2049319Y212073D01*
X2048374Y213488D01*
X2047723Y215059D01*
X2047576Y215801D01*
X2060347Y215801D01*
X2060347Y208942D01*
X2055177Y208942D01*
G37*
%LPD*%
%LPC*%
G36*
X1357427Y208942D02*
X1357427Y208942D01*
X1355759Y209274D01*
X1354187Y209925D01*
X1352772Y210870D01*
X1351569Y212073D01*
X1350624Y213488D01*
X1349973Y215059D01*
X1349826Y215801D01*
X1362597Y215801D01*
X1362597Y208942D01*
X1357427Y208942D01*
G37*
%LPD*%
%LPC*%
G36*
X938777Y208942D02*
X938777Y208942D01*
X937109Y209274D01*
X935537Y209925D01*
X934122Y210870D01*
X932919Y212073D01*
X931974Y213488D01*
X931323Y215059D01*
X931176Y215801D01*
X943947Y215801D01*
X943947Y208942D01*
X938777Y208942D01*
G37*
%LPD*%
%LPC*%
G36*
X2194727Y208942D02*
X2194727Y208942D01*
X2193059Y209274D01*
X2191487Y209925D01*
X2190072Y210870D01*
X2188869Y212073D01*
X2187924Y213488D01*
X2187273Y215059D01*
X2187126Y215801D01*
X2199897Y215801D01*
X2199897Y208942D01*
X2194727Y208942D01*
G37*
%LPD*%
%LPC*%
G36*
X101470Y208942D02*
X101470Y208942D01*
X99801Y209274D01*
X98229Y209925D01*
X96815Y210870D01*
X95612Y212073D01*
X94667Y213488D01*
X94015Y215059D01*
X93868Y215801D01*
X106639Y215801D01*
X106639Y208942D01*
X101470Y208942D01*
G37*
%LPD*%
%LPC*%
G36*
X245977Y208942D02*
X245977Y208942D01*
X244309Y209274D01*
X242737Y209925D01*
X241322Y210870D01*
X240119Y212073D01*
X239174Y213488D01*
X238523Y215059D01*
X238376Y215801D01*
X251147Y215801D01*
X251147Y208942D01*
X245977Y208942D01*
G37*
%LPD*%
%LPC*%
G36*
X1915627Y208942D02*
X1915627Y208942D01*
X1913959Y209274D01*
X1912387Y209925D01*
X1910972Y210870D01*
X1909769Y212073D01*
X1908824Y213488D01*
X1908173Y215059D01*
X1908026Y215801D01*
X1920797Y215801D01*
X1920797Y208942D01*
X1915627Y208942D01*
G37*
%LPD*%
%LPC*%
G36*
X380577Y208942D02*
X380577Y208942D01*
X378909Y209274D01*
X377337Y209925D01*
X375922Y210870D01*
X374719Y212073D01*
X373774Y213488D01*
X373123Y215059D01*
X372976Y215801D01*
X385747Y215801D01*
X385747Y208942D01*
X380577Y208942D01*
G37*
%LPD*%
%LPC*%
G36*
X1776077Y208942D02*
X1776077Y208942D01*
X1774409Y209274D01*
X1772837Y209925D01*
X1771422Y210870D01*
X1770219Y212073D01*
X1769274Y213488D01*
X1768623Y215059D01*
X1768476Y215801D01*
X1781247Y215801D01*
X1781247Y208942D01*
X1776077Y208942D01*
G37*
%LPD*%
%LPC*%
G36*
X520127Y208942D02*
X520127Y208942D01*
X518459Y209274D01*
X516887Y209925D01*
X515472Y210870D01*
X514269Y212073D01*
X513324Y213488D01*
X512673Y215059D01*
X512526Y215801D01*
X525297Y215801D01*
X525297Y208942D01*
X520127Y208942D01*
G37*
%LPD*%
%LPC*%
G36*
X1636527Y208942D02*
X1636527Y208942D01*
X1634859Y209274D01*
X1633287Y209925D01*
X1631872Y210870D01*
X1630669Y212073D01*
X1629724Y213488D01*
X1629073Y215059D01*
X1628926Y215801D01*
X1641697Y215801D01*
X1641697Y208942D01*
X1636527Y208942D01*
G37*
%LPD*%
%LPC*%
G36*
X1217877Y208942D02*
X1217877Y208942D01*
X1216209Y209274D01*
X1214637Y209925D01*
X1213222Y210870D01*
X1212019Y212073D01*
X1211074Y213488D01*
X1210423Y215059D01*
X1210276Y215801D01*
X1223047Y215801D01*
X1223047Y208942D01*
X1217877Y208942D01*
G37*
%LPD*%
%LPC*%
G36*
X1078327Y208942D02*
X1078327Y208942D01*
X1076659Y209274D01*
X1075087Y209925D01*
X1073672Y210870D01*
X1072469Y212073D01*
X1071524Y213488D01*
X1070873Y215059D01*
X1070726Y215801D01*
X1083497Y215801D01*
X1083497Y208942D01*
X1078327Y208942D01*
G37*
%LPD*%
D10*
X197111Y38808D03*
X222511Y38808D03*
X247911Y38808D03*
X273311Y38808D03*
D11*
X38312Y217579D02*
X26120Y217579D01*
X26120Y192179D02*
X38312Y192179D01*
X38312Y65179D02*
X26120Y65179D01*
X26120Y39779D02*
X38312Y39779D01*
X38312Y166779D02*
X26120Y166779D01*
X26120Y141379D02*
X38312Y141379D01*
X38312Y90579D02*
X26120Y90579D01*
X26120Y115979D02*
X38312Y115979D01*
X102320Y39779D02*
X114512Y39779D01*
X114512Y65179D02*
X102320Y65179D01*
X102320Y90579D02*
X114512Y90579D01*
X114512Y115979D02*
X102320Y115979D01*
X102320Y141379D02*
X114512Y141379D01*
X114512Y166779D02*
X102320Y166779D01*
X102320Y192179D02*
X114512Y192179D01*
X114512Y217579D02*
X102320Y217579D01*
X170628Y192179D02*
X182820Y192179D01*
X246828Y217579D02*
X259020Y217579D01*
X182820Y217579D02*
X170628Y217579D01*
X246828Y192179D02*
X259020Y192179D01*
X305228Y192179D02*
X317420Y192179D01*
X381428Y217579D02*
X393620Y217579D01*
X317420Y217579D02*
X305228Y217579D01*
X381428Y192179D02*
X393620Y192179D01*
X444778Y192179D02*
X456970Y192179D01*
X520978Y217579D02*
X533170Y217579D01*
X456970Y217579D02*
X444778Y217579D01*
X520978Y192179D02*
X533170Y192179D01*
X584328Y192179D02*
X596520Y192179D01*
X660528Y217579D02*
X672720Y217579D01*
X596520Y217579D02*
X584328Y217579D01*
X660528Y192179D02*
X672720Y192179D01*
X723878Y192179D02*
X736070Y192179D01*
X800078Y217579D02*
X812270Y217579D01*
X736070Y217579D02*
X723878Y217579D01*
X800078Y192179D02*
X812270Y192179D01*
X1142528Y217579D02*
X1154720Y217579D01*
X1154720Y192179D02*
X1142528Y192179D01*
X1142528Y65179D02*
X1154720Y65179D01*
X1154720Y39779D02*
X1142528Y39779D01*
X1142528Y166779D02*
X1154720Y166779D01*
X1154720Y141379D02*
X1142528Y141379D01*
X1142528Y90579D02*
X1154720Y90579D01*
X1154720Y115979D02*
X1142528Y115979D01*
X1218728Y39779D02*
X1230920Y39779D01*
X1230920Y65179D02*
X1218728Y65179D01*
X1218728Y90579D02*
X1230920Y90579D01*
X1230920Y115979D02*
X1218728Y115979D01*
X1218728Y141379D02*
X1230920Y141379D01*
X1230920Y166779D02*
X1218728Y166779D01*
X1218728Y192179D02*
X1230920Y192179D01*
X1230920Y217579D02*
X1218728Y217579D01*
X1282078Y192179D02*
X1294270Y192179D01*
X1358278Y217579D02*
X1370470Y217579D01*
X1294270Y217579D02*
X1282078Y217579D01*
X1358278Y192179D02*
X1370470Y192179D01*
X1421628Y192179D02*
X1433820Y192179D01*
X1497828Y217579D02*
X1510020Y217579D01*
X1433820Y217579D02*
X1421628Y217579D01*
X1497828Y192179D02*
X1510020Y192179D01*
X1561178Y192179D02*
X1573370Y192179D01*
X1637378Y217579D02*
X1649570Y217579D01*
X1573370Y217579D02*
X1561178Y217579D01*
X1637378Y192179D02*
X1649570Y192179D01*
X1700728Y192179D02*
X1712920Y192179D01*
X1776928Y217579D02*
X1789120Y217579D01*
X1712920Y217579D02*
X1700728Y217579D01*
X1776928Y192179D02*
X1789120Y192179D01*
X1840278Y192179D02*
X1852470Y192179D01*
X1916478Y217579D02*
X1928670Y217579D01*
X1852470Y217579D02*
X1840278Y217579D01*
X1916478Y192179D02*
X1928670Y192179D01*
X875620Y192179D02*
X863428Y192179D01*
X939628Y217579D02*
X951820Y217579D01*
X875620Y217579D02*
X863428Y217579D01*
X939628Y192179D02*
X951820Y192179D01*
X1979828Y192179D02*
X1992020Y192179D01*
X2056028Y217579D02*
X2068220Y217579D01*
X1992020Y217579D02*
X1979828Y217579D01*
X2056028Y192179D02*
X2068220Y192179D01*
X1015170Y192179D02*
X1002978Y192179D01*
X1079178Y217579D02*
X1091370Y217579D01*
X1015170Y217579D02*
X1002978Y217579D01*
X1079178Y192179D02*
X1091370Y192179D01*
X2119378Y192179D02*
X2131570Y192179D01*
X2195578Y217579D02*
X2207770Y217579D01*
X2131570Y217579D02*
X2119378Y217579D01*
X2195578Y192179D02*
X2207770Y192179D01*
D12*
X689610Y115522D03*
D13*
X689610Y81034D01*
D12*
X689610Y81034D03*
X1521460Y114145D03*
D13*
X1508915Y101600D01*
X1401042Y101600D01*
D12*
X1195677Y115979D03*
D13*
X1206003Y77724D02*
X1235202Y77724D01*
X1244854Y87376D02*
X1276604Y87376D01*
X1244854Y87376D02*
X1235202Y77724D01*
D12*
X1276604Y87376D03*
D13*
X1206003Y77724D02*
X1195606Y88121D01*
D12*
X1399540Y86868D03*
D13*
X1399540Y100098D01*
X1401042Y101600D01*
X1195606Y88121D02*
X1195606Y115907D01*
X1195677Y115979D01*
D12*
X676910Y115522D03*
D13*
X676910Y77879D01*
X677164Y77625D01*
D12*
X677164Y77625D03*
X1509522Y114300D03*
D13*
X1500124Y104902D01*
X1397239Y104902D02*
X1392682Y100345D01*
X1392682Y80010D01*
X1397239Y104902D02*
X1500124Y104902D01*
D12*
X1392682Y80010D03*
X1193546Y49784D03*
D13*
X1193546Y63754D01*
X1192784Y64516D01*
D12*
X1192784Y64516D03*
X664972Y115522D03*
D13*
X664972Y77371D01*
D12*
X664972Y77371D03*
X1496060Y114554D03*
D13*
X1489964Y108458D01*
D12*
X1202182Y92456D03*
X1296699Y107471D03*
D13*
X1296571Y107343D01*
X1217069Y107343D01*
X1202182Y92456D01*
D12*
X1391002Y107852D03*
D13*
X1391608Y108458D02*
X1489964Y108458D01*
X1391608Y108458D02*
X1391002Y107852D01*
D12*
X651764Y115522D03*
D13*
X651510Y115268D01*
X651510Y78133D01*
X651002Y77625D01*
D12*
X651002Y77625D03*
X1483868Y115062D03*
D13*
X1396492Y115062D01*
D12*
X1303274Y114554D03*
X1396492Y115062D03*
D13*
X1301849Y115979D02*
X1224824Y115979D01*
X1301849Y115979D02*
X1303274Y114554D01*
D12*
X1288288Y99568D03*
D13*
X1229406Y99568D01*
X1224824Y90579D01*
D12*
X1240282Y45720D03*
D13*
X1220823Y65179D01*
X1224824Y65179D01*
D12*
X607822Y84632D03*
D13*
X608076Y84378D01*
X608076Y50701D01*
D12*
X608076Y50701D03*
X1314450Y126492D03*
D13*
X1235303Y126492D01*
X1224824Y141379D01*
D12*
X594360Y88138D03*
D13*
X594360Y54356D01*
D12*
X594360Y54356D03*
X22578Y153924D03*
D13*
X16341Y160161D01*
X16341Y211102D01*
X22818Y217579D02*
X32216Y217579D01*
X22818Y217579D02*
X16341Y211102D01*
D12*
X772655Y57150D03*
X695325Y57531D03*
D13*
X772556Y57249D02*
X772655Y57150D01*
X695607Y57249D02*
X695325Y57531D01*
X695607Y57249D02*
X772556Y57249D01*
D12*
X766318Y16256D03*
D13*
X766318Y47498D01*
X763016Y50800D02*
X745998Y50800D01*
D12*
X745998Y50800D03*
D13*
X763016Y50800D02*
X766318Y47498D01*
D12*
X880364Y115824D03*
X880364Y100640D03*
D13*
X880364Y115824D01*
D12*
X1124458Y173482D03*
D13*
X1142946Y192179D02*
X1148624Y192179D01*
X1142946Y192179D02*
X1125774Y175006D01*
X1125774Y174798D01*
X1124458Y173482D01*
D12*
X867410Y116078D03*
X867410Y104295D03*
D13*
X867410Y116078D01*
D12*
X1255461Y185166D03*
X1313180Y185773D03*
D13*
X1271517Y185166D02*
X1255461Y185166D01*
X1271517Y185166D02*
X1274156Y182527D01*
X1299896Y182527D01*
X1303143Y185773D01*
X1313180Y185773D01*
D12*
X1675384Y92202D03*
X1674368Y115062D03*
D13*
X1674368Y93218D01*
X1675384Y92202D01*
D12*
X842264Y116078D03*
X842518Y104549D03*
D13*
X842264Y104803D01*
X842264Y116078D01*
D12*
X1649222Y115316D03*
X1649222Y95504D03*
D13*
X1649222Y115316D01*
D12*
X1636268Y115316D03*
X1636014Y88392D03*
D13*
X1636268Y88646D02*
X1636268Y115316D01*
X1636268Y88646D02*
X1636014Y88392D01*
D12*
X1623568Y115316D03*
X1623568Y85090D03*
D13*
X1623568Y115316D01*
D12*
X1611122Y115062D03*
X1610614Y78994D03*
D13*
X1611122Y79502D02*
X1611122Y115062D01*
X1611122Y79502D02*
X1610614Y78994D01*
D12*
X842264Y61976D03*
D13*
X842264Y49685D01*
X842518Y49431D01*
D12*
X842518Y49431D03*
X854964Y64107D03*
D13*
X854964Y49431D01*
D12*
X854964Y49431D03*
X867664Y67762D03*
D13*
X867664Y49431D01*
D12*
X867664Y49431D03*
X880364Y71374D03*
D13*
X880364Y49431D01*
D12*
X880364Y49431D03*
D14*
X1148624Y39779D02*
X1157887Y39779D01*
X1180338Y62230D01*
X1180338Y203355D01*
D12*
X1180338Y203355D03*
X1042924Y108966D03*
X1042924Y185166D03*
D15*
X1042924Y108966D01*
D12*
X236474Y13716D03*
D15*
X236982Y14224D01*
X279908Y14224D01*
X279908Y14478D02*
X293624Y28194D01*
X279908Y14478D02*
X279908Y14224D01*
X293624Y28194D02*
X293624Y102108D01*
D12*
X630936Y141986D03*
X591058Y142240D03*
D15*
X630682Y141732D02*
X630936Y141986D01*
X630682Y141732D02*
X591566Y141732D01*
X591058Y142240D01*
D12*
X1770380Y146812D03*
X1733296Y146812D03*
D14*
X1770380Y146812D01*
D12*
X293624Y102108D03*
X1560068Y147574D03*
X1559814Y168148D03*
X1201928Y211074D03*
D13*
X1201928Y140970D01*
X1201674Y140970D01*
D12*
X1201674Y140970D03*
D13*
X1559814Y147828D02*
X1559814Y168148D01*
X1559814Y147828D02*
X1560068Y147574D01*
D12*
X1585722Y17526D03*
D13*
X1459837Y17526D01*
X1453896Y23467D01*
D12*
X1453896Y23467D03*
X1320292Y93726D03*
D13*
X1320137Y131896D02*
X1317667Y134366D01*
X1320137Y93726D02*
X1320292Y93726D01*
X1320137Y93726D02*
X1320137Y131896D01*
X1317667Y134366D02*
X1245362Y134366D01*
X1240609Y139119D01*
X1224824Y192179D02*
X1220416Y191004D01*
X1240609Y170811D02*
X1240609Y139119D01*
X1240609Y170811D02*
X1220416Y191004D01*
D12*
X585780Y91539D03*
D13*
X585780Y61778D02*
X585724Y61722D01*
X585780Y61778D02*
X585780Y91539D01*
D12*
X585724Y61722D03*
X740664Y81034D03*
D13*
X740664Y115824D01*
X740918Y116078D01*
D12*
X740918Y116078D03*
X1192629Y167287D03*
D13*
X1192629Y210959D01*
X1192530Y211058D01*
D12*
X1192530Y211058D03*
X1573022Y168402D03*
X1572768Y147320D03*
D13*
X1572768Y168148D01*
X1573022Y168402D01*
D12*
X727964Y70358D03*
D13*
X727964Y116078D01*
D12*
X727964Y116078D03*
X638810Y187198D03*
X828802Y187706D03*
X893064Y189992D03*
X1470660Y187198D03*
X1661414Y189230D03*
X1725422Y188976D03*
X893064Y49431D03*
X1725168Y49276D03*
X1661668Y49276D03*
X1560322Y49022D03*
X1464310Y34290D03*
X829564Y49431D03*
X631952Y34290D03*
X727964Y19911D03*
D14*
X1725422Y188327D02*
X1725422Y188976D01*
X1725422Y188327D02*
X1718605Y181511D01*
X1669133Y181511D01*
X1661414Y189230D01*
X1661414Y199639D02*
X1643474Y217579D01*
X1661414Y199639D02*
X1661414Y189230D01*
X1725422Y188976D02*
X1754025Y217579D01*
X1783024Y217579D01*
X1828701Y206911D02*
X1860399Y206911D01*
X1818033Y217579D02*
X1783024Y217579D01*
X1871067Y217579D02*
X1922574Y217579D01*
X1828701Y206911D02*
X1818033Y217579D01*
X1860399Y206911D02*
X1871067Y217579D01*
X1967701Y206911D02*
X2001939Y206911D01*
X1957033Y217579D02*
X1922574Y217579D01*
X2012607Y217579D02*
X2062124Y217579D01*
X1967701Y206911D02*
X1957033Y217579D01*
X2001939Y206911D02*
X2012607Y217579D01*
X2106701Y206911D02*
X2141701Y206911D01*
X2096033Y217579D02*
X2062124Y217579D01*
X2152369Y217579D02*
X2201674Y217579D01*
X2106701Y206911D02*
X2096033Y217579D01*
X2141701Y206911D02*
X2152369Y217579D01*
X1580875Y206911D02*
X1550701Y206911D01*
X1540033Y217579D02*
X1503924Y217579D01*
X1591543Y217579D02*
X1643474Y217579D01*
X1550701Y206911D02*
X1540033Y217579D01*
X1580875Y206911D02*
X1591543Y217579D01*
X1470660Y189822D02*
X1470660Y187198D01*
X1470660Y189822D02*
X1503924Y217579D01*
X1470660Y188506D02*
X1470660Y187198D01*
X1470660Y188506D02*
X1452256Y206911D01*
X1411701Y206911D01*
X1401033Y217579D02*
X1364374Y217579D01*
X1401033Y217579D02*
X1411701Y206911D01*
X1302621Y206911D02*
X1272701Y206911D01*
X1361834Y215039D02*
X1364374Y217579D01*
X1361834Y215039D02*
X1310749Y215039D01*
X1262033Y217579D02*
X1224824Y217579D01*
X1302621Y206911D02*
X1310749Y215039D01*
X1272701Y206911D02*
X1262033Y217579D01*
X1023351Y206911D02*
X994701Y206911D01*
X1082480Y214785D02*
X1085274Y217579D01*
X1082480Y214785D02*
X1031225Y214785D01*
X984033Y217579D02*
X945724Y217579D01*
X1023351Y206911D02*
X1031225Y214785D01*
X994701Y206911D02*
X984033Y217579D01*
X945724Y217579D02*
X920651Y217579D01*
X893064Y189992D01*
X876145Y206911D01*
X855701Y206911D01*
X845033Y217579D02*
X806174Y217579D01*
X845033Y217579D02*
X855701Y206911D01*
X806174Y217579D02*
X805930Y217182D01*
X828802Y194310D02*
X828802Y187706D01*
X828802Y194310D02*
X805930Y217182D01*
X743827Y206911D02*
X716701Y206911D01*
X803634Y215039D02*
X806174Y217579D01*
X803634Y215039D02*
X751955Y215039D01*
X706033Y217579D02*
X666624Y217579D01*
X743827Y206911D02*
X751955Y215039D01*
X716701Y206911D02*
X706033Y217579D01*
X602541Y206911D02*
X577701Y206911D01*
X665100Y216055D02*
X666624Y217579D01*
X665100Y216055D02*
X611685Y216055D01*
X567033Y217579D02*
X527074Y217579D01*
X602541Y206911D02*
X611685Y216055D01*
X577701Y206911D02*
X567033Y217579D01*
X463033Y206911D02*
X438701Y206911D01*
X473701Y217579D02*
X527074Y217579D01*
X428033Y217579D02*
X387524Y217579D01*
X463033Y206911D02*
X473701Y217579D01*
X438701Y206911D02*
X428033Y217579D01*
X323779Y206911D02*
X299701Y206911D01*
X334447Y217579D02*
X387524Y217579D01*
X289033Y217579D02*
X252924Y217579D01*
X323779Y206911D02*
X334447Y217579D01*
X299701Y206911D02*
X289033Y217579D01*
X190621Y206911D02*
X160701Y206911D01*
X251146Y215801D02*
X252924Y217579D01*
X251146Y215801D02*
X199511Y215801D01*
X150033Y217579D02*
X108416Y217579D01*
X190621Y206911D02*
X199511Y215801D01*
X160701Y206911D02*
X150033Y217579D01*
X638810Y191972D02*
X638810Y187198D01*
X638810Y191972D02*
X666624Y217579D01*
X1133701Y206911D02*
X1161081Y206911D01*
X1205178Y218920D02*
X1206519Y217579D01*
X1224824Y217579D01*
X1123033Y217579D02*
X1085274Y217579D01*
X1123033Y217579D02*
X1133701Y206911D01*
X1161081Y206911D02*
X1173091Y218920D01*
X1205178Y218920D01*
X1661668Y49276D02*
X1725168Y49276D01*
X1661668Y49276D02*
X1560576Y49276D01*
X1560322Y49022D01*
X1725168Y49276D02*
X1725168Y188722D01*
X1725422Y188976D01*
X1560322Y49022D02*
X1479042Y49022D01*
X1464310Y34290D01*
X893064Y49431D02*
X893064Y189992D01*
X893064Y49431D02*
X891460Y49431D01*
X831422Y49431D02*
X829564Y49431D01*
X883614Y41585D02*
X891460Y49431D01*
X883614Y41585D02*
X839268Y41585D01*
X831422Y49431D01*
X751567Y19911D02*
X727964Y19911D01*
X751567Y19911D02*
X763068Y8410D01*
X788543Y8410D01*
X829564Y49431D01*
X727964Y19911D02*
X646331Y19911D01*
X631952Y34290D01*
M02*
